<svg width="16" height="17" viewBox="0 0 16 17" fill="none" xmlns="http://www.w3.org/2000/svg">
<path d="M15.3282 7.87065L8.31775 14.8811C7.45892 15.7399 6.2941 16.2224 5.07953 16.2224C3.86496 16.2224 2.70014 15.7399 1.84131 14.8811C0.982485 14.0222 0.5 12.8574 0.5 11.6428C0.5 10.4283 0.982485 9.26346 1.84131 8.40463L8.85173 1.39421C9.42428 0.821657 10.2008 0.5 11.0105 0.5C11.8203 0.5 12.5968 0.821657 13.1694 1.39421C13.7419 1.96676 14.0636 2.74331 14.0636 3.55302C14.0636 4.36273 13.7419 5.13928 13.1694 5.71183L6.15131 12.7223C6.00956 12.864 5.84128 12.9764 5.65607 13.0532C5.47087 13.1299 5.27237 13.1694 5.0719 13.1694C4.87144 13.1694 4.67294 13.1299 4.48773 13.0532C4.30253 12.9764 4.13425 12.864 3.9925 12.7223C3.85075 12.5805 3.73831 12.4122 3.66159 12.227C3.58488 12.0418 3.54539 11.8433 3.54539 11.6428C3.54539 11.4424 3.58488 11.2439 3.66159 11.0587C3.73831 10.8735 3.85075 10.7052 3.9925 10.5634L10.4689 4.09463" stroke="#C9CECD" stroke-linecap="round" stroke-linejoin="round"/>
</svg>
