<svg width="347" height="21" viewBox="0 0 347 21" fill="none" xmlns="http://www.w3.org/2000/svg">
<path d="M21.7218 13.8865V12.8778L27.1321 10.9128L21.7218 8.9609V7.9522L27.3417 10.0744V11.7643L21.7218 13.8865ZM30.5571 6.1182C30.5571 8.3321 29.1292 8.7775 28.0681 8.7775V7.795C29.1161 7.795 30.4785 7.2317 30.4785 6.0265V5.83H31.6182V15H30.5571V6.1182ZM36.6765 15.1703C35.1831 15.1703 33.5849 14.1747 33.5849 12.1311V8.6989C33.5849 6.6553 35.1831 5.6597 36.6765 5.6597C38.1699 5.6597 39.7681 6.6553 39.7681 8.6989V12.1311C39.7681 14.1747 38.1699 15.1703 36.6765 15.1703ZM34.6329 12.0656C34.6329 13.4149 35.563 14.1616 36.6765 14.1616C37.79 14.1616 38.7201 13.4149 38.7201 12.0656V8.7644C38.7201 7.4282 37.7769 6.6684 36.6765 6.6684C35.5761 6.6684 34.6329 7.4282 34.6329 8.7644V12.0656ZM48.6237 9.0919C47.2089 9.0919 46.3181 10.2447 46.3181 11.6464C46.3181 13.3101 47.3661 14.2271 48.6499 14.2271C49.9599 14.2271 50.9555 13.1791 50.9555 11.6464C50.9555 10.0744 49.9599 9.0919 48.6237 9.0919ZM45.3094 17.751V8.319H46.3574V10.677C46.567 9.3539 47.3661 8.1487 49.0167 8.1487C50.7328 8.1487 52.0297 9.629 52.0297 11.6464C52.0297 13.6769 50.7721 15.1703 49.0167 15.1703C47.6543 15.1703 46.567 14.2271 46.3574 12.7468V17.751H45.3094ZM55.6298 15.1703C54.215 15.1703 53.2718 14.2533 53.2718 13.0612C53.2718 11.8036 54.2019 11.07 55.4726 10.939L57.9092 10.677C57.883 9.7993 57.2673 9.0919 56.1276 9.0919C55.1058 9.0919 54.608 9.7207 54.4639 10.3495L53.5338 10.0613C53.8089 8.9347 54.739 8.1487 56.1276 8.1487C58.014 8.1487 58.9441 9.3932 58.9441 10.7425V15H57.8961V12.904C57.8961 14.3188 56.9267 15.1703 55.6298 15.1703ZM54.3198 13.0612C54.3198 13.821 54.9748 14.2664 55.7739 14.2664C57.3459 14.2664 57.9092 13.0481 57.9092 12.0263V11.594L55.7084 11.8298C54.7652 11.9346 54.3198 12.38 54.3198 13.0612ZM60.9041 15V8.319H61.939V10.9914C61.939 9.4456 62.8298 8.2535 64.4411 8.2535V9.3801H64.297C62.6595 9.3801 61.9521 10.4805 61.9521 11.7512V15H60.9041ZM67.9896 15C67.0726 15 66.3783 14.4367 66.3783 13.3363V9.236H65.2255V8.319H66.4045V6.7994H67.4263V8.319H69.5092V9.236H67.4263V13.3363C67.4263 13.8734 67.7407 14.083 68.1468 14.083H69.4175V15H67.9896ZM71.0873 15V8.319H72.1353V10.3757C72.1353 9.4063 72.9082 8.1487 74.4016 8.1487C75.9867 8.1487 76.8251 9.3277 76.8251 10.6639V15H75.7771V10.8735C75.7771 9.8255 74.9911 9.1181 74.0348 9.1181C72.9082 9.1181 72.1353 9.9434 72.1353 11.07V15H71.0873ZM81.592 15.1703C79.5746 15.1703 78.2646 13.6638 78.2646 11.594C78.2646 9.4587 79.7973 8.1487 81.5789 8.1487C83.5963 8.1487 84.7229 9.6814 84.7229 11.5285C84.7229 11.6988 84.7098 11.8691 84.6967 11.987H79.3126C79.4436 13.3232 80.282 14.2271 81.592 14.2271C82.509 14.2271 83.2426 13.8603 83.7011 13.1005L84.4871 13.5983C83.9762 14.5415 82.9151 15.1703 81.592 15.1703ZM79.3257 11.07H83.7011C83.7011 9.9565 82.7841 9.0657 81.5789 9.0657C80.282 9.0657 79.5091 9.9565 79.3257 11.07ZM86.2981 15V8.319H87.333V10.9914C87.333 9.4456 88.2238 8.2535 89.8351 8.2535V9.3801H89.691C88.0535 9.3801 87.3461 10.4805 87.3461 11.7512V15H86.2981ZM93.554 15.1703C91.982 15.1703 91.0126 14.3057 90.7506 13.1398L91.72 12.8778C91.9296 13.7817 92.6894 14.2402 93.6064 14.2402C94.6806 14.2402 95.2832 13.7686 95.2832 13.1529C95.2832 12.6289 94.9295 12.2752 94.1828 12.1311L93.0693 11.9215C92.0737 11.7381 91.2222 11.2534 91.2222 10.0613C91.2222 9.0002 92.113 8.1487 93.6588 8.1487C94.995 8.1487 96.0299 8.8561 96.2657 10.0482L95.3225 10.3102C95.2177 9.5504 94.5496 9.0657 93.6588 9.0657C92.7025 9.0657 92.2047 9.5111 92.2047 10.0613C92.2047 10.5853 92.5846 10.8735 93.3182 11.0176L94.4448 11.2403C95.4928 11.4499 96.2919 12.0263 96.2919 13.1529C96.2919 14.345 95.1915 15.1703 93.554 15.1703Z" fill="#1A1A1A"/>
<rect y="3" width="14.5264" height="14.5264" rx="3" fill="#262626"/>
<path d="M136.156 6.1182C136.156 8.3321 134.728 8.7775 133.667 8.7775V7.795C134.715 7.795 136.077 7.2317 136.077 6.0265V5.83H137.217V15H136.156V6.1182ZM139.315 11.6726V10.7032H142.917V11.6726H139.315ZM146.979 6.1182C146.979 8.3321 145.551 8.7775 144.49 8.7775V7.795C145.538 7.795 146.9 7.2317 146.9 6.0265V5.83H148.04V15H146.979V6.1182ZM153.098 15.1703C151.605 15.1703 150.006 14.1747 150.006 12.1311V8.6989C150.006 6.6553 151.605 5.6597 153.098 5.6597C154.591 5.6597 156.19 6.6553 156.19 8.6989V12.1311C156.19 14.1747 154.591 15.1703 153.098 15.1703ZM151.054 12.0656C151.054 13.4149 151.985 14.1616 153.098 14.1616C154.212 14.1616 155.142 13.4149 155.142 12.0656V8.7644C155.142 7.4282 154.198 6.6684 153.098 6.6684C151.998 6.6684 151.054 7.4282 151.054 8.7644V12.0656ZM165.045 9.0919C163.63 9.0919 162.74 10.2447 162.74 11.6464C162.74 13.3101 163.788 14.2271 165.071 14.2271C166.381 14.2271 167.377 13.1791 167.377 11.6464C167.377 10.0744 166.381 9.0919 165.045 9.0919ZM161.731 17.751V8.319H162.779V10.677C162.989 9.3539 163.788 8.1487 165.438 8.1487C167.154 8.1487 168.451 9.629 168.451 11.6464C168.451 13.6769 167.194 15.1703 165.438 15.1703C164.076 15.1703 162.989 14.2271 162.779 12.7468V17.751H161.731ZM172.051 15.1703C170.636 15.1703 169.693 14.2533 169.693 13.0612C169.693 11.8036 170.623 11.07 171.894 10.939L174.331 10.677C174.304 9.7993 173.689 9.0919 172.549 9.0919C171.527 9.0919 171.029 9.7207 170.885 10.3495L169.955 10.0613C170.23 8.9347 171.16 8.1487 172.549 8.1487C174.435 8.1487 175.366 9.3932 175.366 10.7425V15H174.318V12.904C174.318 14.3188 173.348 15.1703 172.051 15.1703ZM170.741 13.0612C170.741 13.821 171.396 14.2664 172.195 14.2664C173.767 14.2664 174.331 13.0481 174.331 12.0263V11.594L172.13 11.8298C171.187 11.9346 170.741 12.38 170.741 13.0612ZM177.326 15V8.319H178.36V10.9914C178.36 9.4456 179.251 8.2535 180.863 8.2535V9.3801H180.718C179.081 9.3801 178.374 10.4805 178.374 11.7512V15H177.326ZM184.411 15C183.494 15 182.8 14.4367 182.8 13.3363V9.236H181.647V8.319H182.826V6.7994H183.848V8.319H185.931V9.236H183.848V13.3363C183.848 13.8734 184.162 14.083 184.568 14.083H185.839V15H184.411ZM187.509 15V8.319H188.557V10.3757C188.557 9.4063 189.33 8.1487 190.823 8.1487C192.408 8.1487 193.247 9.3277 193.247 10.6639V15H192.199V10.8735C192.199 9.8255 191.413 9.1181 190.456 9.1181C189.33 9.1181 188.557 9.9434 188.557 11.07V15H187.509ZM198.014 15.1703C195.996 15.1703 194.686 13.6638 194.686 11.594C194.686 9.4587 196.219 8.1487 198 8.1487C200.018 8.1487 201.144 9.6814 201.144 11.5285C201.144 11.6988 201.131 11.8691 201.118 11.987H195.734C195.865 13.3232 196.704 14.2271 198.014 14.2271C198.931 14.2271 199.664 13.8603 200.123 13.1005L200.909 13.5983C200.398 14.5415 199.337 15.1703 198.014 15.1703ZM195.747 11.07H200.123C200.123 9.9565 199.206 9.0657 198 9.0657C196.704 9.0657 195.931 9.9565 195.747 11.07ZM202.72 15V8.319H203.754V10.9914C203.754 9.4456 204.645 8.2535 206.257 8.2535V9.3801H206.112C204.475 9.3801 203.768 10.4805 203.768 11.7512V15H202.72ZM209.975 15.1703C208.403 15.1703 207.434 14.3057 207.172 13.1398L208.141 12.8778C208.351 13.7817 209.111 14.2402 210.028 14.2402C211.102 14.2402 211.705 13.7686 211.705 13.1529C211.705 12.6289 211.351 12.2752 210.604 12.1311L209.491 11.9215C208.495 11.7381 207.644 11.2534 207.644 10.0613C207.644 9.0002 208.534 8.1487 210.08 8.1487C211.416 8.1487 212.451 8.8561 212.687 10.0482L211.744 10.3102C211.639 9.5504 210.971 9.0657 210.08 9.0657C209.124 9.0657 208.626 9.5111 208.626 10.0613C208.626 10.5853 209.006 10.8735 209.74 11.0176L210.866 11.2403C211.914 11.4499 212.713 12.0263 212.713 13.1529C212.713 14.345 211.613 15.1703 209.975 15.1703Z" fill="#1A1A1A"/>
<rect x="111.355" y="3" width="14.5264" height="14.5264" rx="3" fill="#787A7A"/>
<path d="M248.916 15V5.83H250.999L255.191 14.7904V5.83H256.252V15H254.13L249.991 6.0396V15H248.916ZM261.492 15.1703C259.475 15.1703 258.021 13.7293 258.021 11.6595C258.021 9.6028 259.475 8.1487 261.492 8.1487C263.51 8.1487 264.964 9.6028 264.964 11.6595C264.964 13.7293 263.51 15.1703 261.492 15.1703ZM259.095 11.6595C259.095 13.166 260.091 14.2271 261.492 14.2271C262.894 14.2271 263.89 13.166 263.89 11.6595C263.89 10.1923 262.894 9.0919 261.492 9.0919C260.091 9.0919 259.095 10.1923 259.095 11.6595ZM273.565 9.0919C272.15 9.0919 271.259 10.2447 271.259 11.6464C271.259 13.3101 272.307 14.2271 273.591 14.2271C274.901 14.2271 275.897 13.1791 275.897 11.6464C275.897 10.0744 274.901 9.0919 273.565 9.0919ZM270.25 17.751V8.319H271.298V10.677C271.508 9.3539 272.307 8.1487 273.958 8.1487C275.674 8.1487 276.971 9.629 276.971 11.6464C276.971 13.6769 275.713 15.1703 273.958 15.1703C272.595 15.1703 271.508 14.2271 271.298 12.7468V17.751H270.25ZM280.571 15.1703C279.156 15.1703 278.213 14.2533 278.213 13.0612C278.213 11.8036 279.143 11.07 280.414 10.939L282.85 10.677C282.824 9.7993 282.208 9.0919 281.069 9.0919C280.047 9.0919 279.549 9.7207 279.405 10.3495L278.475 10.0613C278.75 8.9347 279.68 8.1487 281.069 8.1487C282.955 8.1487 283.885 9.3932 283.885 10.7425V15H282.837V12.904C282.837 14.3188 281.868 15.1703 280.571 15.1703ZM279.261 13.0612C279.261 13.821 279.916 14.2664 280.715 14.2664C282.287 14.2664 282.85 13.0481 282.85 12.0263V11.594L280.649 11.8298C279.706 11.9346 279.261 12.38 279.261 13.0612ZM285.845 15V8.319H286.88V10.9914C286.88 9.4456 287.771 8.2535 289.382 8.2535V9.3801H289.238C287.6 9.3801 286.893 10.4805 286.893 11.7512V15H285.845ZM292.931 15C292.014 15 291.319 14.4367 291.319 13.3363V9.236H290.167V8.319H291.346V6.7994H292.367V8.319H294.45V9.236H292.367V13.3363C292.367 13.8734 292.682 14.083 293.088 14.083H294.359V15H292.931ZM296.028 15V8.319H297.076V10.3757C297.076 9.4063 297.849 8.1487 299.343 8.1487C300.928 8.1487 301.766 9.3277 301.766 10.6639V15H300.718V10.8735C300.718 9.8255 299.932 9.1181 298.976 9.1181C297.849 9.1181 297.076 9.9434 297.076 11.07V15H296.028ZM306.533 15.1703C304.516 15.1703 303.206 13.6638 303.206 11.594C303.206 9.4587 304.738 8.1487 306.52 8.1487C308.537 8.1487 309.664 9.6814 309.664 11.5285C309.664 11.6988 309.651 11.8691 309.638 11.987H304.254C304.385 13.3232 305.223 14.2271 306.533 14.2271C307.45 14.2271 308.184 13.8603 308.642 13.1005L309.428 13.5983C308.917 14.5415 307.856 15.1703 306.533 15.1703ZM304.267 11.07H308.642C308.642 9.9565 307.725 9.0657 306.52 9.0657C305.223 9.0657 304.45 9.9565 304.267 11.07ZM311.239 15V8.319H312.274V10.9914C312.274 9.4456 313.165 8.2535 314.776 8.2535V9.3801H314.632C312.995 9.3801 312.287 10.4805 312.287 11.7512V15H311.239ZM318.495 15.1703C316.923 15.1703 315.954 14.3057 315.692 13.1398L316.661 12.8778C316.871 13.7817 317.63 14.2402 318.547 14.2402C319.622 14.2402 320.224 13.7686 320.224 13.1529C320.224 12.6289 319.87 12.2752 319.124 12.1311L318.01 11.9215C317.015 11.7381 316.163 11.2534 316.163 10.0613C316.163 9.0002 317.054 8.1487 318.6 8.1487C319.936 8.1487 320.971 8.8561 321.207 10.0482L320.263 10.3102C320.159 9.5504 319.491 9.0657 318.6 9.0657C317.643 9.0657 317.146 9.5111 317.146 10.0613C317.146 10.5853 317.526 10.8735 318.259 11.0176L319.386 11.2403C320.434 11.4499 321.233 12.0263 321.233 13.1529C321.233 14.345 320.132 15.1703 318.495 15.1703ZM328.536 15L326.126 8.319H327.279L329.532 14.7904L331.903 8.319H333.082L329.48 17.751H328.366L329.453 15H328.536ZM337.07 15.1703C335.052 15.1703 333.742 13.6638 333.742 11.594C333.742 9.4587 335.275 8.1487 337.057 8.1487C339.074 8.1487 340.201 9.6814 340.201 11.5285C340.201 11.6988 340.188 11.8691 340.175 11.987H334.79C334.921 13.3232 335.76 14.2271 337.07 14.2271C337.987 14.2271 338.72 13.8603 339.179 13.1005L339.965 13.5983C339.454 14.5415 338.393 15.1703 337.07 15.1703ZM334.804 11.07H339.179C339.179 9.9565 338.262 9.0657 337.057 9.0657C335.76 9.0657 334.987 9.9565 334.804 11.07ZM343.885 15C342.968 15 342.274 14.4367 342.274 13.3363V9.236H341.121V8.319H342.3V6.7994H343.322V8.319H345.405V9.236H343.322V13.3363C343.322 13.8734 343.636 14.083 344.042 14.083H345.313V15H343.885Z" fill="#1A1A1A"/>
<rect x="226.016" y="3" width="14.5264" height="14.5264" rx="3" fill="white"/>
</svg>
