<svg width="347" height="21" viewBox="0 0 347 21" fill="none" xmlns="http://www.w3.org/2000/svg">
<g clip-path="url(#clip0_436_129)">
<path d="M21.7227 13.8865V12.8778L27.133 10.9128L21.7227 8.96087V7.95217L27.3426 10.0744V11.7643L21.7227 13.8865ZM30.558 6.11817C30.558 8.33207 29.1301 8.77747 28.069 8.77747V7.79497C29.117 7.79497 30.4794 7.23167 30.4794 6.02647V5.82997H31.6191V15H30.558V6.11817ZM36.6774 15.1703C35.184 15.1703 33.5858 14.1747 33.5858 12.1311V8.69887C33.5858 6.65527 35.184 5.65967 36.6774 5.65967C38.1708 5.65967 39.769 6.65527 39.769 8.69887V12.1311C39.769 14.1747 38.1708 15.1703 36.6774 15.1703ZM34.6338 12.0656C34.6338 13.4149 35.5639 14.1616 36.6774 14.1616C37.7909 14.1616 38.721 13.4149 38.721 12.0656V8.76437C38.721 7.42817 37.7778 6.66837 36.6774 6.66837C35.577 6.66837 34.6338 7.42817 34.6338 8.76437V12.0656ZM48.6246 9.09187C47.2098 9.09187 46.319 10.2447 46.319 11.6464C46.319 13.3101 47.367 14.2271 48.6508 14.2271C49.9608 14.2271 50.9564 13.1791 50.9564 11.6464C50.9564 10.0744 49.9608 9.09187 48.6246 9.09187ZM45.3103 17.751V8.31897H46.3583V10.677C46.5679 9.35387 47.367 8.14867 49.0176 8.14867C50.7337 8.14867 52.0306 9.62897 52.0306 11.6464C52.0306 13.6769 50.773 15.1703 49.0176 15.1703C47.6552 15.1703 46.5679 14.2271 46.3583 12.7468V17.751H45.3103ZM55.6307 15.1703C54.2159 15.1703 53.2727 14.2533 53.2727 13.0612C53.2727 11.8036 54.2028 11.07 55.4735 10.939L57.9101 10.677C57.8839 9.79927 57.2682 9.09187 56.1285 9.09187C55.1067 9.09187 54.6089 9.72067 54.4648 10.3495L53.5347 10.0613C53.8098 8.93467 54.7399 8.14867 56.1285 8.14867C58.0149 8.14867 58.945 9.39317 58.945 10.7425V15H57.897V12.904C57.897 14.3188 56.9276 15.1703 55.6307 15.1703ZM54.3207 13.0612C54.3207 13.821 54.9757 14.2664 55.7748 14.2664C57.3468 14.2664 57.9101 13.0481 57.9101 12.0263V11.594L55.7093 11.8298C54.7661 11.9346 54.3207 12.38 54.3207 13.0612ZM60.905 15V8.31897H61.9399V10.9914C61.9399 9.44557 62.8307 8.25347 64.442 8.25347V9.38007H64.2979C62.6604 9.38007 61.953 10.4805 61.953 11.7512V15H60.905ZM67.9905 15C67.0735 15 66.3792 14.4367 66.3792 13.3363V9.23597H65.2264V8.31897H66.4054V6.79937H67.4272V8.31897H69.5101V9.23597H67.4272V13.3363C67.4272 13.8734 67.7416 14.083 68.1477 14.083H69.4184V15H67.9905ZM71.0882 15V8.31897H72.1362V10.3757C72.1362 9.40627 72.9091 8.14867 74.4025 8.14867C75.9876 8.14867 76.826 9.32767 76.826 10.6639V15H75.778V10.8735C75.778 9.82547 74.992 9.11807 74.0357 9.11807C72.9091 9.11807 72.1362 9.94337 72.1362 11.07V15H71.0882ZM81.5929 15.1703C79.5755 15.1703 78.2655 13.6638 78.2655 11.594C78.2655 9.45867 79.7982 8.14867 81.5798 8.14867C83.5972 8.14867 84.7238 9.68137 84.7238 11.5285C84.7238 11.6988 84.7107 11.8691 84.6976 11.987H79.3135C79.4445 13.3232 80.2829 14.2271 81.5929 14.2271C82.5099 14.2271 83.2435 13.8603 83.702 13.1005L84.488 13.5983C83.9771 14.5415 82.916 15.1703 81.5929 15.1703ZM79.3266 11.07H83.702C83.702 9.95647 82.785 9.06567 81.5798 9.06567C80.2829 9.06567 79.51 9.95647 79.3266 11.07ZM86.299 15V8.31897H87.3339V10.9914C87.3339 9.44557 88.2247 8.25347 89.836 8.25347V9.38007H89.6919C88.0544 9.38007 87.347 10.4805 87.347 11.7512V15H86.299ZM93.5549 15.1703C91.9829 15.1703 91.0135 14.3057 90.7515 13.1398L91.7209 12.8778C91.9305 13.7817 92.6903 14.2402 93.6073 14.2402C94.6815 14.2402 95.2841 13.7686 95.2841 13.1529C95.2841 12.6289 94.9304 12.2752 94.1837 12.1311L93.0702 11.9215C92.0746 11.7381 91.2231 11.2534 91.2231 10.0613C91.2231 9.00017 92.1139 8.14867 93.6597 8.14867C94.9959 8.14867 96.0308 8.85607 96.2666 10.0482L95.3234 10.3102C95.2186 9.55037 94.5505 9.06567 93.6597 9.06567C92.7034 9.06567 92.2056 9.51107 92.2056 10.0613C92.2056 10.5853 92.5855 10.8735 93.3191 11.0176L94.4457 11.2403C95.4937 11.4499 96.2928 12.0263 96.2928 13.1529C96.2928 14.345 95.1924 15.1703 93.5549 15.1703Z" fill="#262626"/>
<path d="M11.5264 3H3C1.34315 3 0 4.34315 0 6V14.5264C0 16.1833 1.34315 17.5264 3 17.5264H11.5264C13.1833 17.5264 14.5264 16.1833 14.5264 14.5264V6C14.5264 4.34315 13.1833 3 11.5264 3Z" fill="#262626"/>
<path d="M136.157 6.11817C136.157 8.33207 134.729 8.77747 133.668 8.77747V7.79497C134.716 7.79497 136.078 7.23167 136.078 6.02647V5.82997H137.218V15H136.157V6.11817ZM139.316 11.6726V10.7032H142.918V11.6726H139.316ZM146.98 6.11817C146.98 8.33207 145.552 8.77747 144.491 8.77747V7.79497C145.539 7.79497 146.901 7.23167 146.901 6.02647V5.82997H148.041V15H146.98V6.11817ZM153.099 15.1703C151.606 15.1703 150.007 14.1747 150.007 12.1311V8.69887C150.007 6.65527 151.606 5.65967 153.099 5.65967C154.592 5.65967 156.191 6.65527 156.191 8.69887V12.1311C156.191 14.1747 154.592 15.1703 153.099 15.1703ZM151.055 12.0656C151.055 13.4149 151.986 14.1616 153.099 14.1616C154.213 14.1616 155.143 13.4149 155.143 12.0656V8.76437C155.143 7.42817 154.199 6.66837 153.099 6.66837C151.999 6.66837 151.055 7.42817 151.055 8.76437V12.0656ZM165.046 9.09187C163.631 9.09187 162.741 10.2447 162.741 11.6464C162.741 13.3101 163.789 14.2271 165.072 14.2271C166.382 14.2271 167.378 13.1791 167.378 11.6464C167.378 10.0744 166.382 9.09187 165.046 9.09187ZM161.732 17.751V8.31897H162.78V10.677C162.99 9.35387 163.789 8.14867 165.439 8.14867C167.155 8.14867 168.452 9.62897 168.452 11.6464C168.452 13.6769 167.195 15.1703 165.439 15.1703C164.077 15.1703 162.99 14.2271 162.78 12.7468V17.751H161.732ZM172.052 15.1703C170.637 15.1703 169.694 14.2533 169.694 13.0612C169.694 11.8036 170.624 11.07 171.895 10.939L174.332 10.677C174.305 9.79927 173.69 9.09187 172.55 9.09187C171.528 9.09187 171.03 9.72067 170.886 10.3495L169.956 10.0613C170.231 8.93467 171.161 8.14867 172.55 8.14867C174.436 8.14867 175.367 9.39317 175.367 10.7425V15H174.319V12.904C174.319 14.3188 173.349 15.1703 172.052 15.1703ZM170.742 13.0612C170.742 13.821 171.397 14.2664 172.196 14.2664C173.768 14.2664 174.332 13.0481 174.332 12.0263V11.594L172.131 11.8298C171.188 11.9346 170.742 12.38 170.742 13.0612ZM177.327 15V8.31897H178.361V10.9914C178.361 9.44557 179.252 8.25347 180.864 8.25347V9.38007H180.719C179.082 9.38007 178.375 10.4805 178.375 11.7512V15H177.327ZM184.412 15C183.495 15 182.801 14.4367 182.801 13.3363V9.23597H181.648V8.31897H182.827V6.79937H183.849V8.31897H185.932V9.23597H183.849V13.3363C183.849 13.8734 184.163 14.083 184.569 14.083H185.84V15H184.412ZM187.51 15V8.31897H188.558V10.3757C188.558 9.40627 189.331 8.14867 190.824 8.14867C192.409 8.14867 193.248 9.32767 193.248 10.6639V15H192.2V10.8735C192.2 9.82547 191.414 9.11807 190.457 9.11807C189.331 9.11807 188.558 9.94337 188.558 11.07V15H187.51ZM198.015 15.1703C195.997 15.1703 194.687 13.6638 194.687 11.594C194.687 9.45867 196.22 8.14867 198.001 8.14867C200.019 8.14867 201.145 9.68137 201.145 11.5285C201.145 11.6988 201.132 11.8691 201.119 11.987H195.735C195.866 13.3232 196.705 14.2271 198.015 14.2271C198.932 14.2271 199.665 13.8603 200.124 13.1005L200.91 13.5983C200.399 14.5415 199.338 15.1703 198.015 15.1703ZM195.748 11.07H200.124C200.124 9.95647 199.207 9.06567 198.001 9.06567C196.705 9.06567 195.932 9.95647 195.748 11.07ZM202.721 15V8.31897H203.755V10.9914C203.755 9.44557 204.646 8.25347 206.258 8.25347V9.38007H206.113C204.476 9.38007 203.769 10.4805 203.769 11.7512V15H202.721ZM209.976 15.1703C208.404 15.1703 207.435 14.3057 207.173 13.1398L208.142 12.8778C208.352 13.7817 209.112 14.2402 210.029 14.2402C211.103 14.2402 211.706 13.7686 211.706 13.1529C211.706 12.6289 211.352 12.2752 210.605 12.1311L209.492 11.9215C208.496 11.7381 207.645 11.2534 207.645 10.0613C207.645 9.00017 208.535 8.14867 210.081 8.14867C211.417 8.14867 212.452 8.85607 212.688 10.0482L211.745 10.3102C211.64 9.55037 210.972 9.06567 210.081 9.06567C209.125 9.06567 208.627 9.51107 208.627 10.0613C208.627 10.5853 209.007 10.8735 209.741 11.0176L210.867 11.2403C211.915 11.4499 212.714 12.0263 212.714 13.1529C212.714 14.345 211.614 15.1703 209.976 15.1703Z" fill="#262626"/>
<path d="M122.882 3H114.355C112.699 3 111.355 4.34315 111.355 6V14.5264C111.355 16.1833 112.699 17.5264 114.355 17.5264H122.882C124.539 17.5264 125.882 16.1833 125.882 14.5264V6C125.882 4.34315 124.539 3 122.882 3Z" fill="#F5F3EE"/>
<path d="M248.916 15V5.82996H250.999L255.191 14.7904V5.82996H256.252V15H254.13L249.991 6.03956V15H248.916ZM261.492 15.1703C259.475 15.1703 258.021 13.7293 258.021 11.6595C258.021 9.60276 259.475 8.14866 261.492 8.14866C263.51 8.14866 264.964 9.60276 264.964 11.6595C264.964 13.7293 263.51 15.1703 261.492 15.1703ZM259.095 11.6595C259.095 13.166 260.091 14.2271 261.492 14.2271C262.894 14.2271 263.89 13.166 263.89 11.6595C263.89 10.1923 262.894 9.09186 261.492 9.09186C260.091 9.09186 259.095 10.1923 259.095 11.6595ZM273.565 9.09186C272.15 9.09186 271.259 10.2447 271.259 11.6464C271.259 13.3101 272.307 14.2271 273.591 14.2271C274.901 14.2271 275.897 13.1791 275.897 11.6464C275.897 10.0744 274.901 9.09186 273.565 9.09186ZM270.25 17.751V8.31896H271.298V10.677C271.508 9.35386 272.307 8.14866 273.958 8.14866C275.674 8.14866 276.971 9.62896 276.971 11.6464C276.971 13.6769 275.713 15.1703 273.958 15.1703C272.595 15.1703 271.508 14.2271 271.298 12.7468V17.751H270.25ZM280.571 15.1703C279.156 15.1703 278.213 14.2533 278.213 13.0612C278.213 11.8036 279.143 11.07 280.414 10.939L282.85 10.677C282.824 9.79926 282.208 9.09186 281.069 9.09186C280.047 9.09186 279.549 9.72066 279.405 10.3495L278.475 10.0613C278.75 8.93466 279.68 8.14866 281.069 8.14866C282.955 8.14866 283.885 9.39316 283.885 10.7425V15H282.837V12.904C282.837 14.3188 281.868 15.1703 280.571 15.1703ZM279.261 13.0612C279.261 13.821 279.916 14.2664 280.715 14.2664C282.287 14.2664 282.85 13.0481 282.85 12.0263V11.594L280.649 11.8298C279.706 11.9346 279.261 12.38 279.261 13.0612ZM285.845 15V8.31896H286.88V10.9914C286.88 9.44556 287.771 8.25346 289.382 8.25346V9.38006H289.238C287.6 9.38006 286.893 10.4805 286.893 11.7512V15H285.845ZM292.931 15C292.014 15 291.319 14.4367 291.319 13.3363V9.23596H290.167V8.31896H291.346V6.79936H292.367V8.31896H294.45V9.23596H292.367V13.3363C292.367 13.8734 292.682 14.083 293.088 14.083H294.359V15H292.931ZM296.028 15V8.31896H297.076V10.3757C297.076 9.40626 297.849 8.14866 299.343 8.14866C300.928 8.14866 301.766 9.32766 301.766 10.6639V15H300.718V10.8735C300.718 9.82546 299.932 9.11806 298.976 9.11806C297.849 9.11806 297.076 9.94336 297.076 11.07V15H296.028ZM306.533 15.1703C304.516 15.1703 303.206 13.6638 303.206 11.594C303.206 9.45866 304.738 8.14866 306.52 8.14866C308.537 8.14866 309.664 9.68136 309.664 11.5285C309.664 11.6988 309.651 11.8691 309.638 11.987H304.254C304.385 13.3232 305.223 14.2271 306.533 14.2271C307.45 14.2271 308.184 13.8603 308.642 13.1005L309.428 13.5983C308.917 14.5415 307.856 15.1703 306.533 15.1703ZM304.267 11.07H308.642C308.642 9.95646 307.725 9.06566 306.52 9.06566C305.223 9.06566 304.45 9.95646 304.267 11.07ZM311.239 15V8.31896H312.274V10.9914C312.274 9.44556 313.165 8.25346 314.776 8.25346V9.38006H314.632C312.995 9.38006 312.287 10.4805 312.287 11.7512V15H311.239ZM318.495 15.1703C316.923 15.1703 315.954 14.3057 315.692 13.1398L316.661 12.8778C316.871 13.7817 317.63 14.2402 318.547 14.2402C319.622 14.2402 320.224 13.7686 320.224 13.1529C320.224 12.6289 319.87 12.2752 319.124 12.1311L318.01 11.9215C317.015 11.7381 316.163 11.2534 316.163 10.0613C316.163 9.00016 317.054 8.14866 318.6 8.14866C319.936 8.14866 320.971 8.85606 321.207 10.0482L320.263 10.3102C320.159 9.55036 319.491 9.06566 318.6 9.06566C317.643 9.06566 317.146 9.51106 317.146 10.0613C317.146 10.5853 317.526 10.8735 318.259 11.0176L319.386 11.2403C320.434 11.4499 321.233 12.0263 321.233 13.1529C321.233 14.345 320.132 15.1703 318.495 15.1703ZM328.536 15L326.126 8.31896H327.279L329.532 14.7904L331.903 8.31896H333.082L329.48 17.751H328.366L329.453 15H328.536ZM337.07 15.1703C335.052 15.1703 333.742 13.6638 333.742 11.594C333.742 9.45866 335.275 8.14866 337.057 8.14866C339.074 8.14866 340.201 9.68136 340.201 11.5285C340.201 11.6988 340.188 11.8691 340.175 11.987H334.79C334.921 13.3232 335.76 14.2271 337.07 14.2271C337.987 14.2271 338.72 13.8603 339.179 13.1005L339.965 13.5983C339.454 14.5415 338.393 15.1703 337.07 15.1703ZM334.804 11.07H339.179C339.179 9.95646 338.262 9.06566 337.057 9.06566C335.76 9.06566 334.987 9.95646 334.804 11.07ZM343.885 15C342.968 15 342.274 14.4367 342.274 13.3363V9.23596H341.121V8.31896H342.3V6.79936H343.322V8.31896H345.405V9.23596H343.322V13.3363C343.322 13.8734 343.636 14.083 344.042 14.083H345.313V15H343.885Z" fill="#262626"/>
<path d="M229.016 3.5H237.542C238.923 3.5 240.042 4.61929 240.042 6V14.5264C240.042 15.9071 238.923 17.0264 237.542 17.0264H229.016C227.635 17.0264 226.516 15.9071 226.516 14.5264V6C226.516 4.61929 227.635 3.5 229.016 3.5Z" stroke="#F5F3EE"/>
<path d="M229.016 3.5H237.542C238.923 3.5 240.042 4.61929 240.042 6V14.5264C240.042 15.9071 238.923 17.0264 237.542 17.0264H229.016C227.635 17.0264 226.516 15.9071 226.516 14.5264V6C226.516 4.61929 227.635 3.5 229.016 3.5Z" stroke="#262626"/>
</g>
<defs>
<clipPath id="clip0_436_129">
<rect width="347" height="21" fill="white"/>
</clipPath>
</defs>
</svg>
