<svg width="454" height="219" viewBox="0 0 454 219" fill="none" xmlns="http://www.w3.org/2000/svg">
<path d="M113.514 104.092L131.754 115.358H113.017L113.514 104.092Z" fill="#787A7A"/>
<path d="M125.278 218.982L112.617 214.632L121.415 210.574L125.278 218.982Z" fill="#787A7A"/>
<path d="M125.278 218.982L131.968 218.982L123.346 214.778L125.278 218.982Z" fill="#787A7A"/>
<path d="M121.416 210.574L106.181 201.425L112.619 214.632L121.416 210.574Z" fill="#787A7A"/>
<path d="M117.964 208.497L120.851 192.881L106.181 201.425L117.964 208.497Z" fill="#787A7A"/>
<path d="M120.848 192.881L102.969 179.177L107.992 200.372L120.848 192.881Z" fill="#787A7A"/>
<path d="M117.766 190.52L138.141 169.004L104.461 170.779L102.969 179.177L117.766 190.52Z" fill="#787A7A"/>
<path d="M138.143 169.004L129.53 150.013L100.903 157.319L104.463 170.779L138.143 169.004Z" fill="#787A7A"/>
<path d="M129.53 150.013L136.426 124.497L90.4659 146.404L100.903 157.319L129.53 150.013Z" fill="#787A7A"/>
<path d="M136.426 124.497L152.364 143.439L149.301 150.559L129.53 150.013L136.426 124.497Z" fill="#787A7A"/>
<path d="M129.53 150.013L138.143 169.004L146.833 159.513L149.301 150.559L129.53 150.013Z" fill="#787A7A"/>
<path d="M152.364 143.439L161.161 133.353L136.426 124.497L152.364 143.439Z" fill="#787A7A"/>
<path d="M90.4659 146.404V122.585L113.017 115.358L136.426 124.497L90.4659 146.404Z" fill="#787A7A"/>
<path d="M90.4659 122.585L77.0159 108.988L113.514 104.092L113.017 115.358L90.4659 122.585Z" fill="#787A7A"/>
<path d="M131.754 115.358L136.426 124.497L113.017 115.358H131.754Z" fill="#787A7A"/>
<path d="M77.0159 108.988L79.6299 136.075L90.4659 122.585L77.0159 108.988Z" fill="#787A7A"/>
<path d="M79.6299 136.075L90.4659 146.404V122.585L79.6299 136.075Z" fill="#787A7A"/>
<path d="M77.0159 108.988L59.2257 96.3286L91.3742 107.067L77.0159 108.988Z" fill="#262626"/>
<path d="M77.0166 102.268L71.2424 87.7253L59.2257 96.3286L77.0166 102.268Z" fill="#262626"/>
<path d="M71.2424 87.7253L40.9376 84.7117L62.7763 93.7925L71.2424 87.7253Z" fill="#262626"/>
<path d="M57.2459 91.4906L47.8531 95.002L40.9376 84.7117L57.2459 91.4906Z" fill="#262626"/>
<path d="M56.7576 86.2819L33.6217 54.9528L40.9376 84.7117L56.7576 86.2819Z" fill="#262626"/>
<path d="M53.8413 82.3414L70.5007 65.2333L33.6217 54.9528L53.8413 82.3414Z" fill="#262626"/>
<path d="M70.4993 65.2334L32.3425 25.8282L33.6202 54.9529L70.4993 65.2334Z" fill="#262626"/>
<path d="M39.0545 77.0549L27.4865 65.9258L33.6217 54.9528L39.0545 77.0549Z" fill="#262626"/>
<path d="M27.4865 65.9258L32.8315 36.8401L33.6217 54.9528L27.4865 65.9258Z" fill="#262626"/>
<path d="M32.3425 25.8282L49.041 8.74928L52.9425 47.0914L32.3425 25.8282Z" fill="#262626"/>
<path d="M49.0423 8.74899L15.3235 8.18327L34.8018 23.3114L49.0423 8.74899Z" fill="#262626"/>
<path d="M29.5137 19.1953L14.9318 23.3114L15.3219 8.18327L29.5137 19.1953Z" fill="#262626"/>
<path d="M14.933 23.3116L0 19.1565L14.933 14.9038V23.3116Z" fill="#262626"/>
<path d="M70.5007 65.2333L85.6282 73.6412L102.834 50.7003L70.5007 65.2333Z" fill="#262626"/>
<path d="M64.6962 71.1927L85.6282 73.6412L70.4993 65.2334L64.6962 71.1927Z" fill="#262626"/>
<path d="M102.834 50.7003L73.5628 39.0345L70.5007 65.2333L102.834 50.7003Z" fill="#262626"/>
<path d="M73.5628 39.0345L52.9425 47.0914L70.4993 65.2334L73.5628 39.0345Z" fill="#262626"/>
<path d="M73.5628 39.0345L49.0423 8.74899L52.9441 47.0914L73.5628 39.0345Z" fill="#262626"/>
<path d="M49.0423 8.74899L71.8859 5.01354L73.5628 39.0345L49.0423 8.74899Z" fill="#262626"/>
<path d="M73.5628 39.0345L92.504 23.5945L71.8845 5.01354L73.5628 39.0345Z" fill="#262626"/>
<path d="M92.504 23.5945L99.4679 3.93104L78.8289 11.2756L92.504 23.5945Z" fill="#262626"/>
<path d="M94.6504 17.5083L112.607 14.2115L99.4679 3.93104L94.6504 17.5083Z" fill="#262626"/>
<path d="M112.607 14.2115L125.375 2.74067L104.414 7.80288L112.607 14.2115Z" fill="#262626"/>
<path d="M119.746 7.79313L139.829 9.61709L125.375 2.74067L119.746 7.79313Z" fill="#262626"/>
<path d="M130.281 8.74928L133.188 17.5082L139.829 9.61709L130.281 8.74928Z" fill="#262626"/>
<path d="M133.188 17.5082L124.039 15.4987L131.521 12.4847L133.188 17.5082Z" fill="#262626"/>
<path d="M107.389 7.09098L106.385 0.66324L112.608 5.83274L107.389 7.09098Z" fill="#262626"/>
<path d="M106.385 0.66324L114.9 1.40453L110.647 4.20386L106.385 0.66324Z" fill="#262626"/>
<path d="M95.49 5.34507L81.308 0L77.4064 9.99762L78.8305 11.2754L95.49 5.34507Z" fill="#262626"/>
<path d="M92.504 23.5945L102.834 50.7003L73.5628 39.0345L92.504 23.5945Z" fill="#262626"/>
<path d="M102.834 50.7003L124.038 45.5308L92.504 23.5945L102.834 50.7003Z" fill="#262626"/>
<path d="M124.039 45.5305L131.598 30.0317L106.385 33.2505L124.039 45.5305Z" fill="#262626"/>
<path d="M112.578 32.4609L119.747 18.7666L131.598 30.0317L112.578 32.4609Z" fill="#262626"/>
<path d="M119.747 18.7666L139.215 27.9254L131.597 30.0322L119.747 18.7666Z" fill="#262626"/>
<path d="M139.215 27.9254L127.491 38.459L131.598 30.0317L139.215 27.9254Z" fill="#262626"/>
<path d="M135.87 30.9293L140.991 41.5999L130.281 35.9525L135.87 30.9293Z" fill="#262626"/>
<path d="M191.291 56.406L201.161 45.5305L197.865 60.0831L191.291 56.406Z" fill="#262626"/>
<path d="M187.785 50.0578L190.399 62.4451L197.915 60.06L191.316 56.3977L187.785 50.0578Z" fill="#262626"/>
<path d="M199.124 54.5236L220.699 45.7062L208.848 34.0309L201.161 45.5305L199.124 54.5236Z" fill="#262626"/>
<path d="M201.161 45.5305L194.471 39.376L208.848 34.0309L201.161 45.5305Z" fill="#262626"/>
<path d="M197.865 49.1588L187.76 50.0659L191.291 56.406L197.865 49.1588Z" fill="#262626"/>
<path d="M194.471 39.376L199.124 47.7737L201.161 45.5305L194.471 39.376Z" fill="#262626"/>
<path d="M196.519 35.5131L203.581 34.0305L196.519 24.1987V35.5131Z" fill="#262626"/>
<path d="M196.519 35.5131L194.578 28.0124L196.519 24.1987V35.5131Z" fill="#262626"/>
<path d="M193.154 34.0307V29.1441L188.56 31.0656L193.154 34.0307Z" fill="#262626"/>
<path d="M193.154 34.0307L188.56 35.1135V31.0656L193.154 34.0307Z" fill="#262626"/>
<path d="M220.699 45.7062L234.237 51.724L232.462 28.8417L220.699 45.7062Z" fill="#262626"/>
<path d="M220.699 45.7062L208.848 34.0309L232.462 28.8417L220.699 45.7062Z" fill="#262626"/>
<path d="M220.699 45.7062L224.279 50.895L220.651 51.724L216.271 47.4031L220.699 45.7062Z" fill="#262626"/>
<path d="M220.65 51.7243L226.824 56.4061L224.278 50.8952L220.65 51.7243Z" fill="#262626"/>
<path d="M226.825 56.4061L229.341 55.6941L224.279 50.895L226.825 56.4061Z" fill="#262626"/>
<path d="M229.34 55.6939L225.877 58.8736L226.824 56.4061L229.34 55.6939Z" fill="#262626"/>
<path d="M225.879 58.8738L225.762 55.5965L226.825 56.4061L225.879 58.8738Z" fill="#262626"/>
<path d="M234.237 51.724L236.606 59.7415L240.566 52.8066L234.237 51.724Z" fill="#262626"/>
<path d="M236.607 59.7421L231.389 50.4565L234.237 51.724L236.607 59.7421Z" fill="#262626"/>
<path d="M232.462 28.8417L242.283 21.2438L247.14 41.678L232.462 28.8417Z" fill="#262626"/>
<path d="M247.14 41.678L234.237 51.724L232.462 28.8417L247.14 41.678Z" fill="#262626"/>
<path d="M240.566 52.8066L247.14 41.678L234.237 51.724L240.566 52.8066Z" fill="#262626"/>
<path d="M240.566 52.8066L256.28 60.7367L247.14 41.678L240.566 52.8066Z" fill="#262626"/>
<path d="M242.284 21.2437L253.999 9.76347L234.93 5.8132L242.284 21.2437Z" fill="#262626"/>
<path d="M234.93 5.8132L220.699 11.1193L238.607 13.5284L234.93 5.8132Z" fill="#262626"/>
<path d="M220.699 11.1193L210.507 20.9899L226.288 18.4637L232.316 12.6797L220.699 11.1193Z" fill="#262626"/>
<path d="M210.507 20.9899L221.411 27.213L226.288 18.4637L210.507 20.9899Z" fill="#262626"/>
<path d="M256.281 60.7367L267.654 48.7103L256.281 34.0309L247.142 41.6779L256.281 60.7367Z" fill="#262626"/>
<path d="M266.346 67.5549L273.681 58.0645L267.653 48.7106L256.28 60.7367L266.346 67.5549Z" fill="#262626"/>
<path d="M228.803 175.392L254.163 170.779L238.088 148.189L228.803 175.392Z" fill="#787A7A"/>
<path d="M228.803 175.392L236.108 182.981L254.163 170.779L228.803 175.392Z" fill="#787A7A"/>
<path d="M228.804 175.392L217.724 150.559L238.09 148.189L228.804 175.392Z" fill="#787A7A"/>
<path d="M217.724 150.559L221.879 133.149H234.93L238.09 148.189L217.724 150.559Z" fill="#787A7A"/>
<path d="M254.163 170.779L265.809 133.558L238.088 148.189L254.163 170.779Z" fill="#787A7A"/>
<path d="M265.809 133.558L251.949 114.373L234.93 133.149L238.09 148.189L265.809 133.558Z" fill="#787A7A"/>
<path d="M221.878 133.149L212.777 114.373L234.928 109.808V133.149H221.878Z" fill="#787A7A"/>
<path d="M212.777 114.373L185.487 110.833L209.023 96.3287L212.777 114.373Z" fill="#787A7A"/>
<path d="M185.487 110.833L171.51 95.0019L209.023 96.3287L185.487 110.833Z" fill="#787A7A"/>
<path d="M171.51 95.0019L182.717 72.0514L209.023 96.3287L171.51 95.0019Z" fill="#787A7A"/>
<path d="M209.024 96.3284L231.175 83.3266L234.93 109.808L212.779 114.373L209.024 96.3284Z" fill="#787A7A"/>
<path d="M234.928 109.808L251.949 114.373L234.93 133.149L234.928 109.808Z" fill="#787A7A"/>
<path d="M265.809 133.558L286.741 105.351L251.949 114.373L265.809 133.558Z" fill="#787A7A"/>
<path d="M286.741 105.351L256.28 95.0019L251.949 114.373L286.741 105.351Z" fill="#787A7A"/>
<path d="M231.173 83.3266L256.28 95.0019L251.949 114.373L234.928 109.808L231.173 83.3266Z" fill="#787A7A"/>
<path d="M182.717 72.0514L212.778 63.0679L209.024 96.3284L182.717 72.0514Z" fill="#787A7A"/>
<path d="M212.778 63.0679L231.175 83.3266L209.024 96.3284L212.778 63.0679Z" fill="#787A7A"/>
<path d="M269.341 99.4398L252.935 70.5198L256.28 95.0019L269.341 99.4398Z" fill="#787A7A"/>
<path d="M252.934 70.5198L231.173 83.3266L256.28 95.0019L252.934 70.5198Z" fill="#787A7A"/>
<path d="M252.934 70.5198L231.173 72.0512V83.3266L252.934 70.5198Z" fill="#787A7A"/>
<path d="M231.173 72.0512L212.778 63.0679L231.173 83.3266V72.0512Z" fill="#787A7A"/>
<path d="M281.366 146.414L272.002 153.827L279.522 156.49L281.366 146.414Z" fill="#787A7A"/>
<path d="M272.002 153.827L275.806 167.014L279.522 156.49L272.002 153.827Z" fill="#787A7A"/>
<path d="M275.806 167.014L282.585 158.275L279.522 156.49L275.806 167.014Z" fill="#787A7A"/>
<path d="M282.585 158.275L281.366 146.414L279.522 156.49L282.585 158.275Z" fill="#787A7A"/>
<path d="M256.281 60.7367L252.935 70.5198L266.347 67.5548L256.281 60.7367Z" fill="#787A7A"/>
<path d="M256.282 76.421L266.347 67.5548L252.935 70.5198L256.282 76.421Z" fill="#787A7A"/>
<path d="M302.561 85.6964L281.893 73.2018L296.494 89.315L302.561 85.6964Z" fill="#787A7A"/>
<path d="M281.893 73.2018L308.472 79.7758L302.561 85.6964L281.893 73.2018Z" fill="#787A7A"/>
<path d="M296.494 89.315L275.066 99.4394L281.893 73.2018L296.494 89.315Z" fill="#787A7A"/>
<path d="M275.067 99.4394L262.222 79.6978L281.895 73.2018L275.067 99.4394Z" fill="#787A7A"/>
<path d="M262.219 79.6982L260.542 72.6658L266.346 67.5549L281.893 73.2018L262.219 79.6982Z" fill="#787A7A"/>
<path d="M253.997 9.76352L256.279 34.0309L247.14 41.678L242.283 21.2438L253.997 9.76352Z" fill="#787A7A"/>
<path d="M273.681 58.0645L298.504 63.068L281.893 73.2018L266.346 67.5549L273.681 58.0645Z" fill="#787A7A"/>
<path d="M298.504 63.068L308.472 79.7758L281.893 73.2018L298.504 63.068Z" fill="#787A7A"/>
<path d="M254.592 16.0545L282.42 8.10521L268.511 30.1487L256.279 34.0309L254.592 16.0545Z" fill="#787A7A"/>
<path d="M268.511 30.1487L280.216 39.3757L267.653 48.7106L256.279 34.0309L268.511 30.1487Z" fill="#787A7A"/>
<path d="M280.217 39.3758L273.682 58.0641L267.654 48.7103L280.217 39.3758Z" fill="#787A7A"/>
<path d="M308.472 79.7758L327.083 89.3153L339.236 62.4534L308.472 79.7758Z" fill="#787A7A"/>
<path d="M327.083 89.3153L325.835 101.654L334.73 99.4398L327.083 89.3153Z" fill="#787A7A"/>
<path d="M325.835 101.654L333.082 109.379L334.73 99.4398L325.835 101.654Z" fill="#787A7A"/>
<path d="M334.732 99.44L343.539 85.3555L327.085 89.3156L334.732 99.44Z" fill="#787A7A"/>
<path d="M343.539 85.3555L339.238 62.4534L327.085 89.3156L343.539 85.3555Z" fill="#787A7A"/>
<path d="M339.236 62.4534L316.305 42.5556L308.472 79.7758L339.236 62.4534Z" fill="#787A7A"/>
<path d="M298.504 63.068L316.305 42.5556L308.472 79.7758L298.504 63.068Z" fill="#787A7A"/>
<path d="M280.216 39.3757L298.504 63.068L273.681 58.0645L280.216 39.3757Z" fill="#787A7A"/>
<path d="M280.216 39.3757L316.305 42.5556L298.504 63.068L280.216 39.3757Z" fill="#787A7A"/>
<path d="M282.42 8.10521L307.8 18.4637L268.511 30.1487L282.42 8.10521Z" fill="#787A7A"/>
<path d="M307.801 18.4638L337.852 0.565594L288.157 10.4364L307.801 18.4638Z" fill="#787A7A"/>
<path d="M337.852 0.565594L376.76 31.0656L307.801 18.4638L337.852 0.565594Z" fill="#787A7A"/>
<path d="M307.8 18.4637L280.216 39.3757L268.511 30.1487L307.8 18.4637Z" fill="#787A7A"/>
<path d="M316.305 42.5556L307.8 18.4637L280.216 39.3757L316.305 42.5556Z" fill="#787A7A"/>
<path d="M316.305 42.5556L349.126 40.2829L339.236 62.4534L316.305 42.5556Z" fill="#787A7A"/>
<path d="M349.126 40.2829L307.801 18.4638L316.305 42.5556L349.126 40.2829Z" fill="#787A7A"/>
<path d="M349.126 40.2829L376.76 31.0656L307.801 18.4638L349.126 40.2829Z" fill="#787A7A"/>
<path d="M343.538 85.3553L368.898 76.4208L356.218 63.6824L339.236 62.4534L343.538 85.3553Z" fill="#787A7A"/>
<path d="M368.898 76.4208L389.751 84.6142L391.146 61.1661L368.898 76.4208Z" fill="#787A7A"/>
<path d="M356.218 63.6824L391.146 61.1661L368.898 76.4208L356.218 63.6824Z" fill="#787A7A"/>
<path d="M356.218 63.6824L349.126 40.2829L339.236 62.4534L356.218 63.6824Z" fill="#787A7A"/>
<path d="M356.218 63.6824L376.76 31.0656L349.126 40.2829L356.218 63.6824Z" fill="#787A7A"/>
<path d="M391.146 61.1661L376.76 31.0656L356.218 63.6824L391.146 61.1661Z" fill="#787A7A"/>
<path d="M345.127 6.27161L402.869 7.1397L376.758 31.0657L345.127 6.27161Z" fill="#787A7A"/>
<path d="M402.87 7.13966L424.582 20.0927L397.779 22.6579L393.399 15.8205L402.87 7.13966Z" fill="#787A7A"/>
<path d="M424.581 20.093L442.021 12.0851L409.706 11.217L424.581 20.093Z" fill="#787A7A"/>
<path d="M397.779 22.6579L392.483 36.8594L376.76 31.0656L393.399 15.8205L397.779 22.6579Z" fill="#787A7A"/>
<path d="M392.483 36.8594L401.68 50.0564L391.146 61.1661L376.76 31.0656L392.483 36.8594Z" fill="#787A7A"/>
<path d="M401.68 50.0564L409.708 39.3759L392.483 36.8594L401.68 50.0564Z" fill="#787A7A"/>
<path d="M395.565 28.6076L409.708 39.3759L392.483 36.8594L395.565 28.6076Z" fill="#787A7A"/>
<path d="M389.751 84.6142L363.26 95.4894L368.898 76.4208L389.751 84.6142Z" fill="#787A7A"/>
<path d="M363.26 95.4894L349.732 83.1704L368.898 76.4208L363.26 95.4894Z" fill="#787A7A"/>
<path d="M376.759 89.9396L382.924 104.034L373.687 107.155L363.26 95.4894L376.759 89.9396Z" fill="#787A7A"/>
<path d="M373.686 107.155L372.74 119.513L368.77 101.654L373.686 107.155Z" fill="#787A7A"/>
<path d="M372.74 119.513L368.897 126.243L370.936 111.427L372.74 119.513Z" fill="#787A7A"/>
<path d="M368.897 126.243L380.026 133.568L372.009 120.781L368.897 126.243Z" fill="#787A7A"/>
<path d="M364.469 96.8454L365.737 109.808L370.936 111.427L368.77 101.654L364.469 96.8454Z" fill="#787A7A"/>
<path d="M386.317 127.618L395.768 129.696L390.394 118.05L386.317 127.618Z" fill="#787A7A"/>
<path d="M395.77 129.696L399.261 118.83L390.395 118.05L395.77 129.696Z" fill="#787A7A"/>
<path d="M399.261 118.83L398.179 109.808L390.395 118.05L399.261 118.83Z" fill="#787A7A"/>
<path d="M386.319 127.618L384.193 120.781L389.626 119.874L386.319 127.618Z" fill="#787A7A"/>
<path d="M386.905 179.499L388.485 160.645L401.047 168.955L386.905 179.499Z" fill="#F5F3EE"/>
<path d="M386.905 179.499L399.263 180.221L401.047 168.955L386.905 179.499Z" fill="#F5F3EE"/>
<path d="M399.263 180.221L408.85 175.178L401.047 168.955L399.263 180.221Z" fill="#F5F3EE"/>
<path d="M408.85 175.178L423.481 182.981L419.901 161.64L408.85 175.178Z" fill="#F5F3EE"/>
<path d="M401.047 168.955L419.901 161.64L408.85 175.178L401.047 168.955Z" fill="#F5F3EE"/>
<path d="M423.481 182.981L447.611 172.808L419.901 161.64L423.481 182.981Z" fill="#F5F3EE"/>
<path d="M447.611 172.808L445.426 156.88L419.901 161.64L447.611 172.808Z" fill="#F5F3EE"/>
<path d="M445.426 156.88L439.125 142.688L431.917 159.396L445.426 156.88Z" fill="#F5F3EE"/>
<path d="M434.444 153.553L417.346 147.584L419.901 161.64L431.917 159.396L434.444 153.553Z" fill="#F5F3EE"/>
<path d="M417.346 147.584L425.9 143.625L428.338 151.418L417.346 147.584Z" fill="#F5F3EE"/>
<path d="M417.346 147.584L404.568 154.022L413.444 164.136L419.901 161.64L417.346 147.584Z" fill="#F5F3EE"/>
<path d="M404.568 154.022L388.485 160.645L401.047 168.955L413.444 164.136L404.568 154.022Z" fill="#F5F3EE"/>
<path d="M423.482 182.981L425.901 189.467L439.283 187.019L423.482 182.981Z" fill="#F5F3EE"/>
<path d="M439.283 187.019L447.613 172.808L423.482 182.981L439.283 187.019Z" fill="#F5F3EE"/>
<path d="M423.89 123.239L433.937 131.891L438.306 122.049L423.89 123.239Z" fill="#F5F3EE"/>
<path d="M433.938 131.891L438.308 137.723V122.049L433.938 131.891Z" fill="#F5F3EE"/>
<path d="M438.306 137.723L448.694 131.062L438.306 125.2V137.723Z" fill="#F5F3EE"/>
<path d="M448.693 131.061L453.462 139.362L443.504 134.358L448.693 131.061Z" fill="#F5F3EE"/>
<path d="M152.515 19.5086L142.816 15.8427L160.828 8.74014H179.071L182.766 15.8427L176.993 29.5897L165.908 34.8593L163.368 40.129L156.441 32.11L152.515 19.5086Z" fill="#262626"/>
</svg>
