<svg width="460" height="222" viewBox="0 0 460 222" fill="none" xmlns="http://www.w3.org/2000/svg">
<mask id="path-1-outside-1_436_150" maskUnits="userSpaceOnUse" x="78.706" y="103.376" width="88" height="118" fill="black">
<rect fill="white" x="78.706" y="103.376" width="88" height="118"/>
<path d="M125.107 211.859H125.105L127.036 216.062L135.658 220.266H128.968L116.308 215.916L116.309 215.915L109.872 202.709L125.107 211.859ZM135.445 116.642L140.117 125.782H140.116L164.852 134.638L156.054 144.723L140.116 125.782V125.783L156.054 144.723L152.99 151.843L150.522 160.797L141.834 170.285L141.835 170.287L111.704 171.875L141.833 170.288L121.459 191.803L124.54 194.165L119.744 196.959L124.542 194.165L121.654 209.781L109.872 202.709L111.684 201.654L106.661 180.461L108.153 172.063L108.154 172.062L104.595 158.603L133.22 151.297L104.594 158.603L94.1572 147.689V147.687L83.3213 137.359L94.1572 123.87V123.87L116.708 116.642L117.205 105.376L135.445 116.642ZM116.707 116.642L94.1562 123.87L83.3203 137.359L80.706 110.273L117.205 105.376L116.707 116.642Z"/>
</mask>
<path d="M125.107 211.859H125.105L127.036 216.062L135.658 220.266H128.968L116.308 215.916L116.309 215.915L109.872 202.709L125.107 211.859ZM135.445 116.642L140.117 125.782H140.116L164.852 134.638L156.054 144.723L140.116 125.782V125.783L156.054 144.723L152.99 151.843L150.522 160.797L141.834 170.285L141.835 170.287L111.704 171.875L141.833 170.288L121.459 191.803L124.54 194.165L119.744 196.959L124.542 194.165L121.654 209.781L109.872 202.709L111.684 201.654L106.661 180.461L108.153 172.063L108.154 172.062L104.595 158.603L133.22 151.297L104.594 158.603L94.1572 147.689V147.687L83.3213 137.359L94.1572 123.87V123.87L116.708 116.642L117.205 105.376L135.445 116.642ZM116.707 116.642L94.1562 123.87L83.3203 137.359L80.706 110.273L117.205 105.376L116.707 116.642Z" fill="#F5F3EE"/>
<path d="M125.107 211.859V212.859H128.715L125.622 211.001L125.107 211.859ZM125.105 211.859V210.859H123.546L124.197 212.276L125.105 211.859ZM127.036 216.062L126.127 216.479L126.277 216.804L126.598 216.961L127.036 216.062ZM135.658 220.266V221.266L136.096 219.367L135.658 220.266ZM128.968 220.266L128.643 221.212L128.801 221.266H128.968V220.266ZM116.308 215.916L115.6 215.209L114.468 216.342L115.983 216.862L116.308 215.916ZM116.309 215.915L117.016 216.623L117.52 216.118L117.207 215.477L116.309 215.915ZM109.872 202.709L109.369 201.845L108.566 202.313L108.973 203.147L109.872 202.709ZM135.445 116.642L136.336 116.187L136.209 115.938L135.971 115.791L135.445 116.642ZM140.117 125.782V126.782H141.751L141.008 125.326L140.117 125.782ZM140.116 125.782V124.782H139.116V125.782H140.116ZM164.852 134.638L165.605 135.295L166.569 134.191L165.189 133.697L164.852 134.638ZM140.116 125.783H139.116V126.147L139.351 126.426L140.116 125.783ZM152.99 151.843L152.072 151.448L152.044 151.511L152.026 151.577L152.99 151.843ZM150.522 160.797L151.26 161.473L151.423 161.295L151.487 161.063L150.522 160.797ZM141.834 170.285L141.096 169.609L140.699 170.043L140.885 170.601L141.834 170.285ZM141.835 170.287L141.888 171.286L143.199 171.217L142.784 169.971L141.835 170.287ZM111.704 171.875L111.651 170.877L111.757 172.874L111.704 171.875ZM141.833 170.288L142.559 170.976L144.281 169.158L141.78 169.29L141.833 170.288ZM121.459 191.803L120.733 191.116L119.97 191.921L120.851 192.597L121.459 191.803ZM124.54 194.165L125.043 195.029L126.332 194.279L125.148 193.372L124.54 194.165ZM119.744 196.959L119.241 196.095L120.247 197.824L119.744 196.959ZM124.542 194.165L125.525 194.347L125.921 192.205L124.039 193.301L124.542 194.165ZM121.654 209.781L121.14 210.638L122.376 211.38L122.638 209.962L121.654 209.781ZM111.684 201.654L112.187 202.518L112.828 202.144L112.657 201.423L111.684 201.654ZM106.661 180.461L105.677 180.286L105.64 180.49L105.688 180.692L106.661 180.461ZM108.153 172.063L107.446 171.356L107.224 171.578L107.169 171.888L108.153 172.063ZM108.154 172.062L108.861 172.769L109.268 172.362L109.121 171.806L108.154 172.062ZM104.595 158.603L104.347 157.634L103.37 157.883L103.628 158.859L104.595 158.603ZM133.22 151.297L133.467 152.266L132.972 150.328L133.22 151.297ZM104.594 158.603L103.871 159.294L104.275 159.716L104.841 159.572L104.594 158.603ZM94.1572 147.689H93.1572V148.09L93.4345 148.38L94.1572 147.689ZM94.1572 147.687H95.1572V147.259L94.8472 146.963L94.1572 147.687ZM83.3213 137.359L82.5417 136.732L81.9663 137.449L82.6313 138.083L83.3213 137.359ZM94.1572 123.87L94.9368 124.497L95.1572 124.222V123.87H94.1572ZM94.1572 123.87L93.852 122.917L93.1572 123.14V123.87H94.1572ZM116.708 116.642L117.013 117.594L117.676 117.382L117.707 116.686L116.708 116.642ZM117.205 105.376L117.731 104.526L117.426 104.338L117.072 104.385L117.205 105.376ZM116.707 116.642L117.012 117.594L117.675 117.382L117.706 116.686L116.707 116.642ZM94.1562 123.87L93.851 122.917L93.5648 123.009L93.3766 123.243L94.1562 123.87ZM83.3203 137.359L82.3249 137.455L82.561 139.901L84.0999 137.985L83.3203 137.359ZM80.706 110.273L80.5731 109.282L79.6181 109.41L79.7107 110.369L80.706 110.273ZM125.107 211.859V210.859H125.105V211.859V212.859H125.107V211.859ZM125.105 211.859L124.197 212.276L126.127 216.479L127.036 216.062L127.945 215.644L126.014 211.441L125.105 211.859ZM127.036 216.062L126.598 216.961L135.22 221.165L135.658 220.266L136.096 219.367L127.474 215.163L127.036 216.062ZM135.658 220.266V219.266H128.968V220.266V221.266H135.658V220.266ZM128.968 220.266L129.293 219.32L116.633 214.971L116.308 215.916L115.983 216.862L128.643 221.212L128.968 220.266ZM116.308 215.916L117.015 216.623L117.016 216.623L116.309 215.915L115.601 215.208L115.6 215.209L116.308 215.916ZM116.309 215.915L117.207 215.477L110.771 202.271L109.872 202.709L108.973 203.147L115.41 216.354L116.309 215.915ZM109.872 202.709L109.357 203.567L124.593 212.716L125.107 211.859L125.622 211.001L110.387 201.852L109.872 202.709ZM135.445 116.642L134.555 117.097L139.227 126.237L140.117 125.782L141.008 125.326L136.336 116.187L135.445 116.642ZM140.117 125.782V124.782H140.116V125.782V126.782H140.117V125.782ZM140.116 125.782L139.779 126.723L164.514 135.58L164.852 134.638L165.189 133.697L140.453 124.84L140.116 125.782ZM164.852 134.638L164.098 133.981L155.3 144.066L156.054 144.723L156.807 145.38L165.605 135.295L164.852 134.638ZM156.054 144.723L156.819 144.079L140.881 125.138L140.116 125.782L139.351 126.425L155.289 145.367L156.054 144.723ZM140.116 125.782H139.116V125.783H140.116H141.116V125.782H140.116ZM140.116 125.783L139.351 126.426L155.289 145.367L156.054 144.723L156.819 144.079L140.881 125.139L140.116 125.783ZM156.054 144.723L155.135 144.328L152.072 151.448L152.99 151.843L153.909 152.238L156.972 145.118L156.054 144.723ZM152.99 151.843L152.026 151.577L149.558 160.532L150.522 160.797L151.487 161.063L153.954 152.109L152.99 151.843ZM150.522 160.797L149.785 160.122L141.096 169.609L141.834 170.285L142.571 170.96L151.26 161.473L150.522 160.797ZM141.834 170.285L140.885 170.601L140.886 170.604L141.835 170.287L142.784 169.971L142.783 169.968L141.834 170.285ZM141.835 170.287L141.782 169.289L111.651 170.877L111.704 171.875L111.757 172.874L141.888 171.286L141.835 170.287ZM111.704 171.875L111.757 172.874L141.886 171.287L141.833 170.288L141.78 169.29L111.651 170.877L111.704 171.875ZM141.833 170.288L141.107 169.601L120.733 191.116L121.459 191.803L122.185 192.491L142.559 170.976L141.833 170.288ZM121.459 191.803L120.851 192.597L123.932 194.959L124.54 194.165L125.148 193.372L122.067 191.01L121.459 191.803ZM124.54 194.165L124.037 193.301L119.241 196.095L119.744 196.959L120.248 197.823L125.043 195.029L124.54 194.165ZM119.744 196.959L120.247 197.824L125.045 195.03L124.542 194.165L124.039 193.301L119.241 196.095L119.744 196.959ZM124.542 194.165L123.559 193.984L120.671 209.599L121.654 209.781L122.638 209.962L125.525 194.347L124.542 194.165ZM121.654 209.781L122.169 208.923L110.387 201.852L109.872 202.709L109.357 203.567L121.14 210.638L121.654 209.781ZM109.872 202.709L110.376 203.573L112.187 202.518L111.684 201.654L111.18 200.79L109.369 201.845L109.872 202.709ZM111.684 201.654L112.657 201.423L107.634 180.231L106.661 180.461L105.688 180.692L110.711 201.884L111.684 201.654ZM106.661 180.461L107.646 180.636L109.138 172.238L108.153 172.063L107.169 171.888L105.677 180.286L106.661 180.461ZM108.153 172.063L108.86 172.77L108.861 172.769L108.154 172.062L107.447 171.355L107.446 171.356L108.153 172.063ZM108.154 172.062L109.121 171.806L105.561 158.347L104.595 158.603L103.628 158.859L107.188 172.318L108.154 172.062ZM104.595 158.603L104.842 159.572L133.467 152.266L133.22 151.297L132.972 150.328L104.347 157.634L104.595 158.603ZM133.22 151.297L132.972 150.328L104.346 157.634L104.594 158.603L104.841 159.572L133.467 152.266L133.22 151.297ZM104.594 158.603L105.316 157.912L94.88 146.998L94.1572 147.689L93.4345 148.38L103.871 159.294L104.594 158.603ZM94.1572 147.689H95.1572V147.687H94.1572H93.1572V147.689H94.1572ZM94.1572 147.687L94.8472 146.963L84.0112 136.635L83.3213 137.359L82.6313 138.083L93.4673 148.411L94.1572 147.687ZM83.3213 137.359L84.1009 137.985L94.9368 124.497L94.1572 123.87L93.3776 123.244L82.5417 136.732L83.3213 137.359ZM94.1572 123.87H95.1572V123.87H94.1572H93.1572V123.87H94.1572ZM94.1572 123.87L94.4624 124.822L117.013 117.594L116.708 116.642L116.403 115.69L93.852 122.917L94.1572 123.87ZM116.708 116.642L117.707 116.686L118.204 105.42L117.205 105.376L116.206 105.332L115.709 116.598L116.708 116.642ZM117.205 105.376L116.68 106.227L134.92 117.493L135.445 116.642L135.971 115.791L117.731 104.526L117.205 105.376ZM116.707 116.642L116.402 115.69L93.851 122.917L94.1562 123.87L94.4614 124.822L117.012 117.594L116.707 116.642ZM94.1562 123.87L93.3766 123.243L82.5407 136.733L83.3203 137.359L84.0999 137.985L94.9358 124.496L94.1562 123.87ZM83.3203 137.359L84.3157 137.263L81.7014 110.177L80.706 110.273L79.7107 110.369L82.3249 137.455L83.3203 137.359ZM80.706 110.273L80.839 111.264L117.338 106.367L117.205 105.376L117.072 104.385L80.5731 109.282L80.706 110.273ZM117.205 105.376L116.206 105.332L115.708 116.598L116.707 116.642L117.706 116.686L118.204 105.421L117.205 105.376Z" fill="#262626" mask="url(#path-1-outside-1_436_150)"/>
<mask id="path-3-outside-2_436_150" maskUnits="userSpaceOnUse" x="-0.309586" y="-0.715698" width="148" height="113" fill="black">
<rect fill="white" x="-0.309586" y="-0.715698" width="148" height="113"/>
<path d="M95.0635 108.352L80.706 110.274L62.915 97.6134L95.0635 108.352ZM99.1806 6.62903L84.8564 11.7277L103.159 5.21497L108.106 9.08606L111.078 8.36731L110.075 1.94739L118.59 2.6886L114.338 5.4884L116.289 7.1095L129.064 4.02551L143.519 10.9005L143.52 10.9015L136.88 18.7892L136.881 18.7921L136.878 18.7911V18.7921L136.877 18.7911L127.731 16.7833L135.211 13.7697L133.972 10.0333L123.441 9.07727L116.298 15.4952L98.3515 18.7892L96.1953 24.879H96.1943L77.2529 40.3175V40.3185L96.1943 24.879L127.729 46.8146L106.523 51.9835L106.524 51.9845L89.3183 74.924V74.9249L89.3174 74.924L68.3877 72.4767L57.5342 83.6222L60.4473 87.5665L45.1474 86.047L74.9326 89.0099H74.9316L80.706 103.553L62.915 97.6124L66.4609 95.0734L60.9336 92.7745L51.543 96.2863L44.6279 85.9962H44.6269L42.7441 78.338L31.1767 67.2101L36.5156 38.1515L36.0322 27.1124L74.1885 66.5167L74.1904 66.5177L56.6338 48.3751V48.3741L52.7334 10.0333L75.5771 6.29797V6.29895L81.0986 11.2755L84.998 1.2843L99.1806 6.62903ZM52.7314 10.0333H52.7305L56.6318 48.3761L36.0322 27.1124L47.1103 15.7804L38.4912 24.5958L33.1943 20.4816L18.623 24.5948V24.5958L3.69041 20.4406L18.623 16.1886V24.5577L19.0127 9.4679L52.7314 10.0333ZM123.437 20.0509L142.905 29.2101H142.901L131.181 39.7433L133.019 35.9698L127.729 46.8146L110.075 34.5343L116.269 33.7433L123.437 20.0509ZM144.682 42.8839L133.972 37.2365L139.561 32.214L144.682 42.8839Z"/>
</mask>
<path d="M95.0635 108.352L80.706 110.274L62.915 97.6134L95.0635 108.352ZM99.1806 6.62903L84.8564 11.7277L103.159 5.21497L108.106 9.08606L111.078 8.36731L110.075 1.94739L118.59 2.6886L114.338 5.4884L116.289 7.1095L129.064 4.02551L143.519 10.9005L143.52 10.9015L136.88 18.7892L136.881 18.7921L136.878 18.7911V18.7921L136.877 18.7911L127.731 16.7833L135.211 13.7697L133.972 10.0333L123.441 9.07727L116.298 15.4952L98.3515 18.7892L96.1953 24.879H96.1943L77.2529 40.3175V40.3185L96.1943 24.879L127.729 46.8146L106.523 51.9835L106.524 51.9845L89.3183 74.924V74.9249L89.3174 74.924L68.3877 72.4767L57.5342 83.6222L60.4473 87.5665L45.1474 86.047L74.9326 89.0099H74.9316L80.706 103.553L62.915 97.6124L66.4609 95.0734L60.9336 92.7745L51.543 96.2863L44.6279 85.9962H44.6269L42.7441 78.338L31.1767 67.2101L36.5156 38.1515L36.0322 27.1124L74.1885 66.5167L74.1904 66.5177L56.6338 48.3751V48.3741L52.7334 10.0333L75.5771 6.29797V6.29895L81.0986 11.2755L84.998 1.2843L99.1806 6.62903ZM52.7314 10.0333H52.7305L56.6318 48.3761L36.0322 27.1124L47.1103 15.7804L38.4912 24.5958L33.1943 20.4816L18.623 24.5948V24.5958L3.69041 20.4406L18.623 16.1886V24.5577L19.0127 9.4679L52.7314 10.0333ZM123.437 20.0509L142.905 29.2101H142.901L131.181 39.7433L133.019 35.9698L127.729 46.8146L110.075 34.5343L116.269 33.7433L123.437 20.0509ZM144.682 42.8839L133.972 37.2365L139.561 32.214L144.682 42.8839Z" fill="#262626"/>
<path d="M95.0635 108.352L95.1961 109.343L95.3803 107.403L95.0635 108.352ZM80.706 110.274L80.1263 111.088L80.4477 111.317L80.8387 111.265L80.706 110.274ZM62.915 97.6134L63.2318 96.6649L62.3352 98.4282L62.915 97.6134ZM99.1806 6.62903L99.516 7.57113L102.087 6.65582L99.5333 5.69327L99.1806 6.62903ZM84.8564 11.7277L84.5211 10.7856L85.1917 12.6698L84.8564 11.7277ZM103.159 5.21497L103.775 4.42741L103.342 4.08842L102.824 4.27283L103.159 5.21497ZM108.106 9.08606L107.49 9.87362L107.871 10.1718L108.342 10.058L108.106 9.08606ZM111.078 8.36731L111.313 9.33928L112.208 9.1228L112.066 8.21296L111.078 8.36731ZM110.075 1.94739L110.162 0.951155L108.89 0.840445L109.087 2.10174L110.075 1.94739ZM118.59 2.6886L119.14 3.52379L121.542 1.94183L118.677 1.69237L118.59 2.6886ZM114.338 5.4884L113.788 4.65321L112.661 5.39528L113.699 6.25757L114.338 5.4884ZM116.289 7.1095L115.65 7.87866L116.036 8.19932L116.524 8.08157L116.289 7.1095ZM129.064 4.02551L129.494 3.12246L129.174 2.97032L128.83 3.05344L129.064 4.02551ZM143.519 10.9005L143.966 10.0061L143.957 10.0017L143.948 9.99746L143.519 10.9005ZM143.52 10.9015L144.285 11.5455L145.103 10.5746L143.968 10.0071L143.52 10.9015ZM136.88 18.7892L136.115 18.1451L135.754 18.5738L135.931 19.1054L136.88 18.7892ZM136.881 18.7921L136.565 19.7408L138.462 20.3733L137.83 18.4759L136.881 18.7921ZM136.878 18.7911L137.194 17.8425L135.878 17.4037V18.7911H136.878ZM136.878 18.7921L136.171 19.4992L137.878 21.2063V18.7921H136.878ZM136.877 18.7911L137.584 18.084L137.377 17.8771L137.091 17.8144L136.877 18.7911ZM127.731 16.7833L127.358 15.8558L124.355 17.0658L127.517 17.7601L127.731 16.7833ZM135.211 13.7697L135.585 14.6972L136.456 14.3462L136.16 13.4548L135.211 13.7697ZM133.972 10.0333L134.921 9.71851L134.715 9.09666L134.062 9.03742L133.972 10.0333ZM123.441 9.07727L123.532 8.08137L123.097 8.04193L122.773 8.3334L123.441 9.07727ZM116.298 15.4952L116.478 16.4788L116.756 16.4278L116.966 16.2391L116.298 15.4952ZM98.3515 18.7892L98.171 17.8056L97.602 17.9101L97.4089 18.4554L98.3515 18.7892ZM96.1953 24.879V25.879H96.9021L97.138 25.2128L96.1953 24.879ZM96.1943 24.879V23.879H95.8384L95.5625 24.1039L96.1943 24.879ZM77.2529 40.3175L76.6211 39.5424L76.2529 39.8425V40.3175H77.2529ZM77.2529 40.3185H76.2529V42.4237L77.8847 41.0936L77.2529 40.3185ZM127.729 46.8146L127.965 47.7861L130.121 47.2607L128.3 45.9937L127.729 46.8146ZM106.523 51.9835L106.287 51.012L104.559 51.4331L105.816 52.6906L106.523 51.9835ZM106.524 51.9845L107.324 52.5845L107.845 51.8907L107.232 51.2774L106.524 51.9845ZM89.3183 74.924L88.5184 74.3239L88.3183 74.5906V74.924H89.3183ZM89.3183 74.9249L88.6112 75.632L90.3183 77.3391V74.9249H89.3183ZM89.3174 74.924L90.0245 74.2168L89.7787 73.9711L89.4335 73.9307L89.3174 74.924ZM68.3877 72.4767L68.5038 71.4835L68.0148 71.4263L67.6712 71.779L68.3877 72.4767ZM57.5342 83.6222L56.8177 82.9245L56.2252 83.5331L56.7298 84.2163L57.5342 83.6222ZM60.4473 87.5665L60.3484 88.5616L62.5897 88.7842L61.2517 86.9724L60.4473 87.5665ZM45.1474 86.047L45.2463 85.0519L45.0485 87.0421L45.1474 86.047ZM74.9326 89.0099V90.0099L75.0316 88.0148L74.9326 89.0099ZM74.9316 89.0099V88.0099H73.4586L74.0022 89.3789L74.9316 89.0099ZM80.706 103.553L80.3893 104.501L82.429 105.182L81.6355 103.184L80.706 103.553ZM62.915 97.6124L62.3328 96.7994L60.7395 97.9403L62.5983 98.561L62.915 97.6124ZM66.4609 95.0734L67.0431 95.8864L68.5043 94.8401L66.8449 94.15L66.4609 95.0734ZM60.9336 92.7745L61.3176 91.8512L60.9531 91.6996L60.5833 91.8379L60.9336 92.7745ZM51.543 96.2863L50.713 96.844L51.1535 97.4995L51.8932 97.2229L51.543 96.2863ZM44.6279 85.9962L45.4579 85.4384L45.1607 84.9962H44.6279V85.9962ZM44.6269 85.9962L43.6559 86.235L43.843 86.9962H44.6269V85.9962ZM42.7441 78.338L43.7152 78.0993L43.6461 77.8181L43.4374 77.6173L42.7441 78.338ZM31.1767 67.2101L30.1932 67.0294L30.0961 67.5581L30.4835 67.9307L31.1767 67.2101ZM36.5156 38.1515L37.4991 38.3322L37.5196 38.2208L37.5147 38.1077L36.5156 38.1515ZM36.0322 27.1124L35.3171 26.4134L35.0142 26.7232L35.0332 27.1562L36.0322 27.1124ZM74.1885 66.5167L73.4701 67.2124L73.5887 67.3349L73.7412 67.4111L74.1885 66.5167ZM74.1904 66.5177L73.7432 67.4121L74.909 65.8223L74.1904 66.5177ZM56.6338 48.3751H55.6338V48.7798L55.9152 49.0705L56.6338 48.3751ZM56.6338 48.3741H57.6338V48.3234L57.6286 48.2729L56.6338 48.3741ZM52.7334 10.0333L52.572 9.04643L51.6433 9.1983L51.7385 10.1345L52.7334 10.0333ZM75.5771 6.29797H76.5771V5.12118L75.4158 5.31108L75.5771 6.29797ZM75.5771 6.29895H74.5771V6.74388L74.9076 7.04176L75.5771 6.29895ZM81.0986 11.2755L80.4291 12.0183L81.5041 12.9872L82.0302 11.6391L81.0986 11.2755ZM84.998 1.2843L85.3507 0.348543L84.4258 7.7486e-06L84.0665 0.920727L84.998 1.2843ZM52.7314 10.0333V11.0333L52.7482 9.03347L52.7314 10.0333ZM52.7305 10.0333V9.03333H51.6235L51.7356 10.1346L52.7305 10.0333ZM56.6318 48.3761L55.9136 49.0719L57.9183 51.1413L57.6267 48.2749L56.6318 48.3761ZM47.1103 15.7804L47.8254 16.4794L46.3953 15.0813L47.1103 15.7804ZM38.4912 24.5958L37.8778 25.3856L38.5824 25.9329L39.2062 25.2949L38.4912 24.5958ZM33.1943 20.4816L33.8077 19.6918L33.4088 19.3819L32.9227 19.5192L33.1943 20.4816ZM18.623 24.5948L18.3514 23.6325L17.623 23.8381V24.5948H18.623ZM18.623 24.5958L18.3549 25.5592L19.623 25.9121V24.5958H18.623ZM3.69041 20.4406L3.41656 19.4788L-7.15256e-07 20.4516L3.42233 21.4039L3.69041 20.4406ZM18.623 16.1886H19.623V14.8641L18.3492 15.2268L18.623 16.1886ZM18.623 24.5577H17.623L19.6227 24.5836L18.623 24.5577ZM19.0127 9.4679L19.0294 8.46804L18.0386 8.45142L18.013 9.44208L19.0127 9.4679ZM123.437 20.0509L123.862 19.146L122.995 18.7381L122.551 19.5871L123.437 20.0509ZM142.905 29.2101V30.2101L143.331 28.3052L142.905 29.2101ZM142.901 29.2101V28.2101H142.518L142.233 28.4663L142.901 29.2101ZM131.181 39.7433L130.282 39.3054L131.849 40.4871L131.181 39.7433ZM133.019 35.9698L133.918 36.4077L132.12 35.5315L133.019 35.9698ZM127.729 46.8146L127.158 47.6355L128.117 48.302L128.628 47.2529L127.729 46.8146ZM110.075 34.5343L109.948 33.5424L107.371 33.8715L109.504 35.3552L110.075 34.5343ZM116.269 33.7433L116.395 34.7352L116.913 34.6692L117.154 34.2071L116.269 33.7433ZM144.682 42.8839L144.215 43.7685L146.893 45.1806L145.583 42.4512L144.682 42.8839ZM133.972 37.2365L133.303 36.4927L132.236 37.4517L133.505 38.121L133.972 37.2365ZM139.561 32.214L140.462 31.7813L139.885 30.5782L138.892 31.4702L139.561 32.214ZM95.0635 108.352L94.9308 107.361L80.5734 109.282L80.706 110.274L80.8387 111.265L95.1961 109.343L95.0635 108.352ZM80.706 110.274L81.2858 109.459L63.4948 96.7986L62.915 97.6134L62.3352 98.4282L80.1263 111.088L80.706 110.274ZM62.915 97.6134L62.5982 98.5619L94.7466 109.3L95.0635 108.352L95.3803 107.403L63.2318 96.6649L62.915 97.6134ZM99.1806 6.62903L98.8453 5.68693L84.5211 10.7856L84.8564 11.7277L85.1918 12.6698L99.516 7.57113L99.1806 6.62903ZM84.8564 11.7277L85.1917 12.6698L103.494 6.1571L103.159 5.21497L102.824 4.27283L84.5212 10.7855L84.8564 11.7277ZM103.159 5.21497L102.543 6.00252L107.49 9.87362L108.106 9.08606L108.723 8.2985L103.775 4.42741L103.159 5.21497ZM108.106 9.08606L108.342 10.058L111.313 9.33928L111.078 8.36731L110.843 7.39534L107.871 8.11409L108.106 9.08606ZM111.078 8.36731L112.066 8.21296L111.063 1.79304L110.075 1.94739L109.087 2.10174L110.09 8.52166L111.078 8.36731ZM110.075 1.94739L109.988 2.94362L118.503 3.68483L118.59 2.6886L118.677 1.69237L110.162 0.951155L110.075 1.94739ZM118.59 2.6886L118.04 1.8534L113.788 4.65321L114.338 5.4884L114.888 6.3236L119.14 3.52379L118.59 2.6886ZM114.338 5.4884L113.699 6.25757L115.65 7.87866L116.289 7.1095L116.928 6.34033L114.977 4.71924L114.338 5.4884ZM116.289 7.1095L116.524 8.08157L129.299 4.99759L129.064 4.02551L128.83 3.05344L116.054 6.13742L116.289 7.1095ZM129.064 4.02551L128.635 4.92856L143.089 11.8036L143.519 10.9005L143.948 9.99746L129.494 3.12246L129.064 4.02551ZM143.519 10.9005L143.071 11.7949L143.073 11.7959L143.52 10.9015L143.968 10.0071L143.966 10.0061L143.519 10.9005ZM143.52 10.9015L142.756 10.2574L136.115 18.1451L136.88 18.7892L137.645 19.4332L144.285 11.5455L143.52 10.9015ZM136.88 18.7892L135.931 19.1054L135.932 19.1083L136.881 18.7921L137.83 18.4759L137.829 18.473L136.88 18.7892ZM136.881 18.7921L137.197 17.8434L137.194 17.8425L136.878 18.7911L136.562 19.7398L136.565 19.7408L136.881 18.7921ZM136.878 18.7911H135.878V18.7921H136.878H137.878V18.7911H136.878ZM136.878 18.7921L137.585 18.085L137.584 18.084L136.877 18.7911L136.17 19.4982L136.171 19.4992L136.878 18.7921ZM136.877 18.7911L137.091 17.8144L127.946 15.8066L127.731 16.7833L127.517 17.7601L136.663 19.7679L136.877 18.7911ZM127.731 16.7833L128.105 17.7109L135.585 14.6972L135.211 13.7697L134.837 12.8421L127.358 15.8558L127.731 16.7833ZM135.211 13.7697L136.16 13.4548L134.921 9.71851L133.972 10.0333L133.023 10.3481L134.262 14.0845L135.211 13.7697ZM133.972 10.0333L134.062 9.03742L123.532 8.08137L123.441 9.07727L123.351 10.0732L133.881 11.0292L133.972 10.0333ZM123.441 9.07727L122.773 8.3334L115.63 14.7514L116.298 15.4952L116.966 16.2391L124.11 9.82115L123.441 9.07727ZM116.298 15.4952L116.117 14.5117L98.171 17.8056L98.3515 18.7892L98.5321 19.7728L116.478 16.4788L116.298 15.4952ZM98.3515 18.7892L97.4089 18.4554L95.2526 24.5453L96.1953 24.879L97.138 25.2128L99.2942 19.123L98.3515 18.7892ZM96.1953 24.879V23.879H96.1943V24.879V25.879H96.1953V24.879ZM96.1943 24.879L95.5625 24.1039L76.6211 39.5424L77.2529 40.3175L77.8847 41.0926L96.8261 25.6542L96.1943 24.879ZM77.2529 40.3175H76.2529V40.3185H77.2529H78.2529V40.3175H77.2529ZM77.2529 40.3185L77.8847 41.0936L96.8261 25.6541L96.1943 24.879L95.5625 24.1039L76.6211 39.5434L77.2529 40.3185ZM96.1943 24.879L95.6233 25.6999L127.157 47.6355L127.729 46.8146L128.3 45.9937L96.7654 24.0581L96.1943 24.879ZM127.729 46.8146L127.492 45.843L106.287 51.012L106.523 51.9835L106.76 52.9551L127.965 47.7861L127.729 46.8146ZM106.523 51.9835L105.816 52.6906L105.817 52.6916L106.524 51.9845L107.232 51.2774L107.231 51.2764L106.523 51.9835ZM106.524 51.9845L105.724 51.3845L88.5184 74.3239L89.3183 74.924L90.1183 75.524L107.324 52.5845L106.524 51.9845ZM89.3183 74.924H88.3183V74.9249H89.3183H90.3183V74.924H89.3183ZM89.3183 74.9249L90.0255 74.2178L90.0245 74.2168L89.3174 74.924L88.6103 75.6311L88.6112 75.632L89.3183 74.9249ZM89.3174 74.924L89.4335 73.9307L68.5038 71.4835L68.3877 72.4767L68.2715 73.4699L89.2012 75.9172L89.3174 74.924ZM68.3877 72.4767L67.6712 71.779L56.8177 82.9245L57.5342 83.6222L58.2506 84.3199L69.1041 73.1743L68.3877 72.4767ZM57.5342 83.6222L56.7298 84.2163L59.6428 88.1606L60.4473 87.5665L61.2517 86.9724L58.3386 83.0281L57.5342 83.6222ZM60.4473 87.5665L60.5461 86.5714L45.2463 85.0519L45.1474 86.047L45.0486 87.0421L60.3484 88.5616L60.4473 87.5665ZM45.1474 86.047L45.0485 87.0421L74.8336 90.005L74.9326 89.0099L75.0316 88.0148L45.2464 85.0519L45.1474 86.047ZM74.9326 89.0099V88.0099H74.9316V89.0099V90.0099H74.9326V89.0099ZM74.9316 89.0099L74.0022 89.3789L79.7766 103.922L80.706 103.553L81.6355 103.184L75.861 88.6409L74.9316 89.0099ZM80.706 103.553L81.0228 102.604L63.2317 96.6639L62.915 97.6124L62.5983 98.561L80.3893 104.501L80.706 103.553ZM62.915 97.6124L63.4972 98.4255L67.0431 95.8864L66.4609 95.0734L65.8787 94.2603L62.3328 96.7994L62.915 97.6124ZM66.4609 95.0734L66.8449 94.15L61.3176 91.8512L60.9336 92.7745L60.5496 93.6979L66.0769 95.9967L66.4609 95.0734ZM60.9336 92.7745L60.5833 91.8379L51.1927 95.3496L51.543 96.2863L51.8932 97.2229L61.2838 93.7112L60.9336 92.7745ZM51.543 96.2863L52.373 95.7285L45.4579 85.4384L44.6279 85.9962L43.7979 86.554L50.713 96.844L51.543 96.2863ZM44.6279 85.9962V84.9962H44.6269V85.9962V86.9962H44.6279V85.9962ZM44.6269 85.9962L45.598 85.7575L43.7152 78.0993L42.7441 78.338L41.773 78.5768L43.6559 86.235L44.6269 85.9962ZM42.7441 78.338L43.4374 77.6173L31.87 66.4894L31.1767 67.2101L30.4835 67.9307L42.0508 79.0587L42.7441 78.338ZM31.1767 67.2101L32.1603 67.3908L37.4991 38.3322L36.5156 38.1515L35.5321 37.9708L30.1932 67.0294L31.1767 67.2101ZM36.5156 38.1515L37.5147 38.1077L37.0313 27.0687L36.0322 27.1124L35.0332 27.1562L35.5166 38.1952L36.5156 38.1515ZM36.0322 27.1124L35.3138 27.8081L73.4701 67.2124L74.1885 66.5167L74.9069 65.8211L36.7506 26.4168L36.0322 27.1124ZM74.1885 66.5167L73.7412 67.4111L73.7432 67.4121L74.1904 66.5177L74.6376 65.6233L74.6357 65.6223L74.1885 66.5167ZM74.1904 66.5177L74.909 65.8223L57.3524 47.6797L56.6338 48.3751L55.9152 49.0705L73.4718 67.2131L74.1904 66.5177ZM56.6338 48.3751H57.6338V48.3741H56.6338H55.6338V48.3751H56.6338ZM56.6338 48.3741L57.6286 48.2729L53.7282 9.93212L52.7334 10.0333L51.7385 10.1345L55.6389 48.4754L56.6338 48.3741ZM52.7334 10.0333L52.8948 11.0202L75.7385 7.28487L75.5771 6.29797L75.4158 5.31108L52.572 9.04643L52.7334 10.0333ZM75.5771 6.29797H74.5771V6.29895H75.5771H76.5771V6.29797H75.5771ZM75.5771 6.29895L74.9076 7.04176L80.4291 12.0183L81.0986 11.2755L81.7681 10.5327L76.2466 5.55614L75.5771 6.29895ZM81.0986 11.2755L82.0302 11.6391L85.9296 1.64788L84.998 1.2843L84.0665 0.920727L80.1671 10.9119L81.0986 11.2755ZM84.998 1.2843L84.6454 2.22006L98.828 7.56479L99.1806 6.62903L99.5333 5.69327L85.3507 0.348543L84.998 1.2843ZM52.7314 10.0333V9.03333H52.7305V10.0333V11.0333H52.7314V10.0333ZM52.7305 10.0333L51.7356 10.1346L55.637 48.4773L56.6318 48.3761L57.6267 48.2749L53.7253 9.9321L52.7305 10.0333ZM56.6318 48.3761L57.3501 47.6803L36.7504 26.4166L36.0322 27.1124L35.314 27.8082L55.9136 49.0719L56.6318 48.3761ZM36.0322 27.1124L36.7473 27.8115L47.8254 16.4794L47.1103 15.7804L46.3953 15.0813L35.3171 26.4134L36.0322 27.1124ZM47.1103 15.7804L46.3953 15.0813L37.7762 23.8967L38.4912 24.5958L39.2062 25.2949L47.8254 16.4795L47.1103 15.7804ZM38.4912 24.5958L39.1046 23.8061L33.8077 19.6918L33.1943 20.4816L32.5809 21.2713L37.8778 25.3856L38.4912 24.5958ZM33.1943 20.4816L32.9227 19.5192L18.3514 23.6325L18.623 24.5948L18.8947 25.5572L33.466 21.444L33.1943 20.4816ZM18.623 24.5948H17.623V24.5958H18.623H19.623V24.5948H18.623ZM18.623 24.5958L18.8911 23.6324L3.9585 19.4772L3.69041 20.4406L3.42233 21.4039L18.3549 25.5592L18.623 24.5958ZM3.69041 20.4406L3.96427 21.4023L18.8969 17.1504L18.623 16.1886L18.3492 15.2268L3.41656 19.4788L3.69041 20.4406ZM18.623 16.1886H17.623V24.5577H18.623H19.623V16.1886H18.623ZM18.623 24.5577L19.6227 24.5836L20.0123 9.49371L19.0127 9.4679L18.013 9.44208L17.6234 24.5319L18.623 24.5577ZM19.0127 9.4679L18.9959 10.4678L52.7147 11.0332L52.7314 10.0333L52.7482 9.03347L19.0294 8.46804L19.0127 9.4679ZM123.437 20.0509L123.011 20.9558L142.48 30.1149L142.905 29.2101L143.331 28.3052L123.862 19.146L123.437 20.0509ZM142.905 29.2101V28.2101H142.901V29.2101V30.2101H142.905V29.2101ZM142.901 29.2101L142.233 28.4663L130.512 38.9995L131.181 39.7433L131.849 40.4871L143.57 29.9539L142.901 29.2101ZM131.181 39.7433L132.08 40.1812L133.918 36.4077L133.019 35.9698L132.12 35.532L130.282 39.3054L131.181 39.7433ZM133.019 35.9698L132.12 35.5315L126.831 46.3762L127.729 46.8146L128.628 47.2529L133.917 36.4082L133.019 35.9698ZM127.729 46.8146L128.301 45.9936L110.646 33.7134L110.075 34.5343L109.504 35.3552L127.158 47.6355L127.729 46.8146ZM110.075 34.5343L110.202 35.5262L116.395 34.7352L116.269 33.7433L116.142 32.7513L109.948 33.5424L110.075 34.5343ZM116.269 33.7433L117.154 34.2071L124.322 20.5147L123.437 20.0509L122.551 19.5871L115.383 33.2795L116.269 33.7433ZM144.682 42.8839L145.148 41.9994L134.438 36.3519L133.972 37.2365L133.505 38.121L144.215 43.7685L144.682 42.8839ZM133.972 37.2365L134.64 37.9802L140.229 32.9578L139.561 32.214L138.892 31.4702L133.303 36.4927L133.972 37.2365ZM139.561 32.214L138.659 32.6467L143.78 43.3166L144.682 42.8839L145.583 42.4512L140.462 31.7813L139.561 32.214Z" fill="#262626" mask="url(#path-3-outside-2_436_150)"/>
<mask id="path-5-outside-3_436_150" maskUnits="userSpaceOnUse" x="189.45" y="5.09729" width="90" height="66" fill="black">
<rect fill="white" x="189.45" y="5.09729" width="90" height="66"/>
<path d="M271.345 49.9948L277.372 59.3483L270.037 68.8395L259.972 62.0211V62.0201L250.833 42.9615L259.973 35.3151L271.345 49.9948ZM250.831 42.9625L237.927 53.0074V53.0084L250.831 42.9625L259.97 62.0211L244.257 54.0914L240.297 61.024L240.298 61.026L240.297 61.025L240.295 61.0221L235.08 51.7418L224.39 46.9908L227.97 52.1793H227.969L230.513 57.6881L230.515 57.6891L227.97 52.1793L233.032 56.9781H233.029L229.57 60.1549L229.569 60.1578L229.568 60.1559L229.567 60.1578L229.568 60.153L229.452 56.8834L224.341 53.0084V53.0074L220.042 48.7662L202.814 55.8073L201.565 61.3219L201.606 61.3444L201.557 61.359L201.556 61.3678L201.547 61.3629L194.092 63.7291L191.496 51.4332L191.45 51.3502L191.479 51.3473L191.478 51.3424L191.479 51.3473L201.555 50.443L196.689 55.8073L204.125 47.6149L202.813 49.0582L198.161 40.6598L212.538 35.3151L224.389 46.9899L224.387 46.9908L224.39 46.9899L212.54 35.3151L236.151 30.1266L245.974 22.528L250.831 42.9625ZM207.271 35.3151L200.21 36.7975L198.269 29.2965L200.21 25.483L207.271 35.3151ZM196.845 35.3151L192.251 36.3981V32.3502L196.845 30.4283V35.3151ZM225.101 28.4977L214.196 22.274L229.978 19.7487L225.101 28.4977ZM257.688 11.0475L245.975 22.528L242.297 14.8112L236.005 13.9645L229.978 19.7477L214.196 22.274L224.389 12.4039L231.709 13.3873L224.39 12.403L238.62 7.09729L257.688 11.0475Z"/>
</mask>
<path d="M271.345 49.9948L277.372 59.3483L270.037 68.8395L259.972 62.0211V62.0201L250.833 42.9615L259.973 35.3151L271.345 49.9948ZM250.831 42.9625L237.927 53.0074V53.0084L250.831 42.9625L259.97 62.0211L244.257 54.0914L240.297 61.024L240.298 61.026L240.297 61.025L240.295 61.0221L235.08 51.7418L224.39 46.9908L227.97 52.1793H227.969L230.513 57.6881L230.515 57.6891L227.97 52.1793L233.032 56.9781H233.029L229.57 60.1549L229.569 60.1578L229.568 60.1559L229.567 60.1578L229.568 60.153L229.452 56.8834L224.341 53.0084V53.0074L220.042 48.7662L202.814 55.8073L201.565 61.3219L201.606 61.3444L201.557 61.359L201.556 61.3678L201.547 61.3629L194.092 63.7291L191.496 51.4332L191.45 51.3502L191.479 51.3473L191.478 51.3424L191.479 51.3473L201.555 50.443L196.689 55.8073L204.125 47.6149L202.813 49.0582L198.161 40.6598L212.538 35.3151L224.389 46.9899L224.387 46.9908L224.39 46.9899L212.54 35.3151L236.151 30.1266L245.974 22.528L250.831 42.9625ZM207.271 35.3151L200.21 36.7975L198.269 29.2965L200.21 25.483L207.271 35.3151ZM196.845 35.3151L192.251 36.3981V32.3502L196.845 30.4283V35.3151ZM225.101 28.4977L214.196 22.274L229.978 19.7487L225.101 28.4977ZM257.688 11.0475L245.975 22.528L242.297 14.8112L236.005 13.9645L229.978 19.7477L214.196 22.274L224.389 12.4039L231.709 13.3873L224.39 12.403L238.62 7.09729L257.688 11.0475Z" fill="#262626"/>
<path d="M271.345 49.9948L272.185 49.4531L272.162 49.4166L272.135 49.3823L271.345 49.9948ZM277.372 59.3483L278.163 59.9598L278.595 59.4006L278.213 58.8066L277.372 59.3483ZM270.037 68.8395L269.476 69.6674L270.254 70.1942L270.828 69.451L270.037 68.8395ZM259.972 62.0211H258.972V62.5516L259.411 62.849L259.972 62.0211ZM259.972 62.0201H260.972V61.7928L260.873 61.5878L259.972 62.0201ZM250.833 42.9615L250.191 42.1946L249.595 42.6932L249.931 43.3939L250.833 42.9615ZM259.973 35.3151L260.763 34.7027L260.127 33.8818L259.331 34.5481L259.973 35.3151ZM237.927 53.0074L237.312 52.2183L236.927 52.5186V53.0074H237.927ZM237.927 53.0084H236.927V55.0542L238.541 53.7975L237.927 53.0084ZM259.97 62.0211L259.519 62.9139L262.141 64.2372L260.871 61.5887L259.97 62.0211ZM244.257 54.0914L244.707 53.1987L243.86 52.7708L243.388 53.5954L244.257 54.0914ZM240.297 61.024L239.429 60.5281L239.163 60.9927L239.402 61.4713L240.297 61.024ZM240.298 61.026L239.591 61.7331L241.192 60.5788L240.298 61.026ZM240.297 61.025L239.465 61.5797L239.52 61.6621L239.59 61.7321L240.297 61.025ZM240.295 61.0221L239.423 61.512L239.442 61.5451L239.463 61.5768L240.295 61.0221ZM235.08 51.7418L235.952 51.2519L235.789 50.9627L235.486 50.828L235.08 51.7418ZM224.39 46.9908L224.796 46.077L221.548 44.6338L223.567 47.5588L224.39 46.9908ZM227.969 52.1793V51.1793H226.405L227.061 52.5986L227.969 52.1793ZM230.513 57.6881L229.605 58.1074L229.752 58.4257L230.065 58.5825L230.513 57.6881ZM230.515 57.6891L230.067 58.5835L232.618 59.859L231.422 57.2698L230.515 57.6891ZM233.032 56.9781V57.9781H235.541L233.72 56.2524L233.032 56.9781ZM233.029 56.9781V55.9781H232.64L232.353 56.2416L233.029 56.9781ZM229.57 60.1549L228.894 59.4184L228.703 59.5933L228.622 59.8387L229.57 60.1549ZM229.569 60.1578L228.675 60.605L229.755 62.7644L230.518 60.4741L229.569 60.1578ZM229.568 60.1559L230.463 59.7087L229.568 57.9198L228.674 59.7087L229.568 60.1559ZM229.567 60.1578L228.587 59.9617L230.462 60.605L229.567 60.1578ZM229.568 60.153L230.549 60.3491L230.572 60.2344L230.568 60.1174L229.568 60.153ZM229.452 56.8834L230.452 56.8479L230.435 56.3734L230.056 56.0865L229.452 56.8834ZM224.341 53.0084H223.341V53.5052L223.737 53.8053L224.341 53.0084ZM224.341 53.0074H225.341V52.5893L225.043 52.2956L224.341 53.0074ZM220.042 48.7662L220.744 48.0544L220.275 47.5909L219.664 47.8406L220.042 48.7662ZM202.814 55.8073L202.436 54.8816L201.954 55.0786L201.839 55.5864L202.814 55.8073ZM201.565 61.3219L200.59 61.101L200.423 61.8367L201.085 62.199L201.565 61.3219ZM201.606 61.3444L201.889 62.3037L204.199 61.6241L202.087 60.4673L201.606 61.3444ZM201.557 61.359L201.274 60.3996L200.636 60.5874L200.563 61.2486L201.557 61.359ZM201.556 61.3678L201.07 62.242L202.384 62.9717L202.55 61.4782L201.556 61.3678ZM201.547 61.3629L202.033 60.4888L201.655 60.2793L201.244 60.4098L201.547 61.3629ZM194.092 63.7291L193.113 63.9357L193.341 65.0164L194.394 64.6823L194.092 63.7291ZM191.496 51.4332L192.475 51.2267L192.444 51.0803L192.371 50.9493L191.496 51.4332ZM191.45 51.3502L191.347 50.3555L189.843 50.5111L190.575 51.8341L191.45 51.3502ZM191.479 51.3473L191.581 52.342L192.675 52.2289L192.459 51.1512L191.479 51.3473ZM191.478 51.3424L192.406 50.971L190.497 51.5385L191.478 51.3424ZM191.479 51.3473L190.551 51.7187L190.827 52.4098L191.569 52.3433L191.479 51.3473ZM201.555 50.443L202.295 51.1148L204.016 49.2181L201.465 49.447L201.555 50.443ZM196.689 55.8073L195.949 55.1354L197.43 56.4793L196.689 55.8073ZM204.125 47.6149L204.865 48.2869L203.385 46.9424L204.125 47.6149ZM202.813 49.0582L201.939 49.5428L202.615 50.7636L203.554 49.7307L202.813 49.0582ZM198.161 40.6598L197.813 39.7225L196.723 40.1275L197.286 41.1444L198.161 40.6598ZM212.538 35.3151L213.24 34.6027L212.786 34.1559L212.19 34.3777L212.538 35.3151ZM224.389 46.9899L224.836 47.8843L226.087 47.2589L225.09 46.2775L224.389 46.9899ZM224.387 46.9908L223.939 46.0964L224.703 47.9395L224.387 46.9908ZM224.39 46.9899L224.706 47.9386L226.254 47.4226L225.091 46.2775L224.39 46.9899ZM212.54 35.3151L212.325 34.3384L210.525 34.7339L211.838 36.0274L212.54 35.3151ZM236.151 30.1266L236.366 31.1033L236.585 31.055L236.763 30.9175L236.151 30.1266ZM245.974 22.528L246.947 22.2967L246.588 20.7884L245.362 21.737L245.974 22.528ZM207.271 35.3151L207.477 36.2937L208.979 35.9784L208.084 34.7317L207.271 35.3151ZM200.21 36.7975L199.242 37.048L199.481 37.9723L200.415 37.7762L200.21 36.7975ZM198.269 29.2965L197.377 28.8428L197.206 29.1804L197.3 29.5471L198.269 29.2965ZM200.21 25.483L201.022 24.8997L200.064 23.5656L199.319 25.0293L200.21 25.483ZM196.845 35.3151L197.074 36.2884L197.845 36.1067V35.3151H196.845ZM192.251 36.3981H191.251V37.6612L192.48 37.3714L192.251 36.3981ZM192.251 32.3502L191.865 31.4277L191.251 31.6846V32.3502H192.251ZM196.845 30.4283H197.845V28.926L196.459 29.5058L196.845 30.4283ZM225.101 28.4977L224.605 29.3662L225.482 29.8669L225.974 28.9846L225.101 28.4977ZM214.196 22.274L213.501 21.5557L212.544 22.4823L213.701 23.1425L214.196 22.274ZM229.978 19.7487L230.851 20.2355L231.854 18.4356L229.82 18.7612L229.978 19.7487ZM257.688 11.0475L258.388 11.7617L259.728 10.4488L257.891 10.0683L257.688 11.0475ZM245.975 22.528L245.072 22.9582L245.674 24.2224L246.675 23.2421L245.975 22.528ZM242.297 14.8112L243.2 14.3809L242.967 13.8923L242.43 13.8201L242.297 14.8112ZM236.005 13.9645L236.138 12.9734L235.66 12.9091L235.313 13.2429L236.005 13.9645ZM229.978 19.7477L230.136 20.7351L230.444 20.6857L230.67 20.4692L229.978 19.7477ZM224.389 12.4039L224.522 11.4128L224.041 11.3483L223.693 11.6856L224.389 12.4039ZM231.709 13.3873L231.576 14.3784L231.842 12.3963L231.709 13.3873ZM224.39 12.403L224.04 11.466L224.256 13.394L224.39 12.403ZM238.62 7.09729L238.823 6.11808L238.541 6.05962L238.271 6.1603L238.62 7.09729ZM271.345 49.9948L270.504 50.5364L276.531 59.8899L277.372 59.3483L278.213 58.8066L272.185 49.4531L271.345 49.9948ZM277.372 59.3483L276.581 58.7368L269.246 68.228L270.037 68.8395L270.828 69.451L278.163 59.9598L277.372 59.3483ZM270.037 68.8395L270.598 68.0116L260.533 61.1932L259.972 62.0211L259.411 62.849L269.476 69.6674L270.037 68.8395ZM259.972 62.0211H260.972V62.0201H259.972H258.972V62.0211H259.972ZM259.972 62.0201L260.873 61.5878L251.735 42.5292L250.833 42.9615L249.931 43.3939L259.07 62.4525L259.972 62.0201ZM250.833 42.9615L251.475 43.7285L260.614 36.082L259.973 35.3151L259.331 34.5481L250.191 42.1946L250.833 42.9615ZM259.973 35.3151L259.182 35.9275L270.554 50.6072L271.345 49.9948L272.135 49.3823L260.763 34.7027L259.973 35.3151ZM250.831 42.9625L250.217 42.1734L237.312 52.2183L237.927 53.0074L238.541 53.7966L251.445 43.7516L250.831 42.9625ZM237.927 53.0074H236.927V53.0084H237.927H238.927V53.0074H237.927ZM237.927 53.0084L238.541 53.7975L251.445 43.7516L250.831 42.9625L250.217 42.1734L237.312 52.2193L237.927 53.0084ZM250.831 42.9625L249.929 43.3949L259.068 62.4535L259.97 62.0211L260.871 61.5887L251.733 42.5302L250.831 42.9625ZM259.97 62.0211L260.42 61.1284L244.707 53.1987L244.257 54.0914L243.806 54.9842L259.519 62.9139L259.97 62.0211ZM244.257 54.0914L243.388 53.5954L239.429 60.5281L240.297 61.024L241.165 61.52L245.125 54.5874L244.257 54.0914ZM240.297 61.024L239.402 61.4713L239.403 61.4732L240.298 61.026L241.192 60.5788L241.191 60.5768L240.297 61.024ZM240.298 61.026L241.005 60.3189L241.004 60.3179L240.297 61.025L239.59 61.7321L239.591 61.7331L240.298 61.026ZM240.297 61.025L241.129 60.4703L241.127 60.4674L240.295 61.0221L239.463 61.5768L239.465 61.5797L240.297 61.025ZM240.295 61.0221L241.167 60.5322L235.952 51.2519L235.08 51.7418L234.208 52.2317L239.423 61.512L240.295 61.0221ZM235.08 51.7418L235.486 50.828L224.796 46.077L224.39 46.9908L223.984 47.9047L234.674 52.6556L235.08 51.7418ZM224.39 46.9908L223.567 47.5588L227.147 52.7472L227.97 52.1793L228.793 51.6114L225.213 46.4229L224.39 46.9908ZM227.97 52.1793V51.1793H227.969V52.1793V53.1793H227.97V52.1793ZM227.969 52.1793L227.061 52.5986L229.605 58.1074L230.513 57.6881L231.421 57.2689L228.877 51.7601L227.969 52.1793ZM230.513 57.6881L230.065 58.5825L230.067 58.5835L230.515 57.6891L230.962 56.7947L230.96 56.7937L230.513 57.6881ZM230.515 57.6891L231.422 57.2698L228.878 51.76L227.97 52.1793L227.062 52.5986L229.607 58.1084L230.515 57.6891ZM227.97 52.1793L227.282 52.9051L232.344 57.7039L233.032 56.9781L233.72 56.2524L228.658 51.4536L227.97 52.1793ZM233.032 56.9781V55.9781H233.029V56.9781V57.9781H233.032V56.9781ZM233.029 56.9781L232.353 56.2416L228.894 59.4184L229.57 60.1549L230.247 60.8914L233.706 57.7147L233.029 56.9781ZM229.57 60.1549L228.622 59.8387L228.621 59.8416L229.569 60.1578L230.518 60.4741L230.519 60.4711L229.57 60.1549ZM229.569 60.1578L230.464 59.7106L230.463 59.7087L229.568 60.1559L228.674 60.6031L228.675 60.605L229.569 60.1578ZM229.568 60.1559L228.674 59.7087L228.673 59.7106L229.567 60.1578L230.462 60.605L230.463 60.6031L229.568 60.1559ZM229.567 60.1578L230.548 60.354L230.549 60.3491L229.568 60.153L228.588 59.9568L228.587 59.9617L229.567 60.1578ZM229.568 60.153L230.568 60.1174L230.452 56.8479L229.452 56.8834L228.453 56.9189L228.569 60.1885L229.568 60.153ZM229.452 56.8834L230.056 56.0865L224.945 52.2115L224.341 53.0084L223.737 53.8053L228.848 57.6803L229.452 56.8834ZM224.341 53.0084H225.341V53.0074H224.341H223.341V53.0084H224.341ZM224.341 53.0074L225.043 52.2956L220.744 48.0544L220.042 48.7662L219.34 49.4781L223.638 53.7193L224.341 53.0074ZM220.042 48.7662L219.664 47.8406L202.436 54.8816L202.814 55.8073L203.193 56.7329L220.42 49.6919L220.042 48.7662ZM202.814 55.8073L201.839 55.5864L200.59 61.101L201.565 61.3219L202.541 61.5428L203.79 56.0281L202.814 55.8073ZM201.565 61.3219L201.085 62.199L201.126 62.2215L201.606 61.3444L202.087 60.4673L202.046 60.4448L201.565 61.3219ZM201.606 61.3444L201.324 60.385L201.274 60.3996L201.557 61.359L201.839 62.3184L201.889 62.3037L201.606 61.3444ZM201.557 61.359L200.563 61.2486L200.562 61.2574L201.556 61.3678L202.55 61.4782L202.551 61.4694L201.557 61.359ZM201.556 61.3678L202.041 60.4936L202.033 60.4888L201.547 61.3629L201.061 62.2371L201.07 62.242L201.556 61.3678ZM201.547 61.3629L201.244 60.4098L193.789 62.776L194.092 63.7291L194.394 64.6823L201.849 62.3161L201.547 61.3629ZM194.092 63.7291L195.07 63.5226L192.475 51.2267L191.496 51.4332L190.518 51.6398L193.113 63.9357L194.092 63.7291ZM191.496 51.4332L192.371 50.9493L192.325 50.8663L191.45 51.3502L190.575 51.8341L190.621 51.9171L191.496 51.4332ZM191.45 51.3502L191.553 52.3449L191.581 52.342L191.479 51.3473L191.376 50.3526L191.347 50.3555L191.45 51.3502ZM191.479 51.3473L192.459 51.1512L192.458 51.1463L191.478 51.3424L190.497 51.5385L190.498 51.5434L191.479 51.3473ZM191.478 51.3424L190.549 51.7138L190.551 51.7187L191.479 51.3473L192.408 50.9759L192.406 50.971L191.478 51.3424ZM191.479 51.3473L191.569 52.3433L201.644 51.439L201.555 50.443L201.465 49.447L191.39 50.3513L191.479 51.3473ZM201.555 50.443L200.814 49.7712L195.949 55.1354L196.689 55.8073L197.43 56.4791L202.295 51.1148L201.555 50.443ZM196.689 55.8073L197.43 56.4793L204.865 48.2869L204.125 47.6149L203.385 46.9428L195.949 55.1352L196.689 55.8073ZM204.125 47.6149L203.385 46.9424L202.073 48.3857L202.813 49.0582L203.554 49.7307L204.865 48.2874L204.125 47.6149ZM202.813 49.0582L203.688 48.5737L199.036 40.1752L198.161 40.6598L197.286 41.1444L201.939 49.5428L202.813 49.0582ZM198.161 40.6598L198.51 41.5971L212.887 36.2524L212.538 35.3151L212.19 34.3777L197.813 39.7225L198.161 40.6598ZM212.538 35.3151L211.836 36.0274L223.687 47.7022L224.389 46.9899L225.09 46.2775L213.24 34.6027L212.538 35.3151ZM224.389 46.9899L223.941 46.0954L223.939 46.0964L224.387 46.9908L224.834 47.8853L224.836 47.8843L224.389 46.9899ZM224.387 46.9908L224.703 47.9395L224.706 47.9386L224.39 46.9899L224.073 46.0412L224.07 46.0422L224.387 46.9908ZM224.39 46.9899L225.091 46.2775L213.242 34.6027L212.54 35.3151L211.838 36.0274L223.688 47.7022L224.39 46.9899ZM212.54 35.3151L212.755 36.2918L236.366 31.1033L236.151 30.1266L235.937 29.1499L212.325 34.3384L212.54 35.3151ZM236.151 30.1266L236.763 30.9175L246.586 23.3189L245.974 22.528L245.362 21.737L235.539 29.3356L236.151 30.1266ZM245.974 22.528L245.001 22.7592L249.858 43.1938L250.831 42.9625L251.804 42.7313L246.947 22.2967L245.974 22.528ZM207.271 35.3151L207.066 34.3364L200.004 35.8188L200.21 36.7975L200.415 37.7762L207.477 36.2937L207.271 35.3151ZM200.21 36.7975L201.178 36.5469L199.237 29.0459L198.269 29.2965L197.3 29.5471L199.242 37.048L200.21 36.7975ZM198.269 29.2965L199.16 29.7502L201.101 25.9367L200.21 25.483L199.319 25.0293L197.377 28.8428L198.269 29.2965ZM200.21 25.483L199.398 26.0664L206.459 35.8984L207.271 35.3151L208.084 34.7317L201.022 24.8997L200.21 25.483ZM196.845 35.3151L196.615 34.3417L192.021 35.4248L192.251 36.3981L192.48 37.3714L197.074 36.2884L196.845 35.3151ZM192.251 36.3981H193.251V32.3502H192.251H191.251V36.3981H192.251ZM192.251 32.3502L192.637 33.2727L197.231 31.3509L196.845 30.4283L196.459 29.5058L191.865 31.4277L192.251 32.3502ZM196.845 30.4283H195.845V35.3151H196.845H197.845V30.4283H196.845ZM225.101 28.4977L225.596 27.6292L214.692 21.4056L214.196 22.274L213.701 23.1425L224.605 29.3662L225.101 28.4977ZM214.196 22.274L214.354 23.2615L230.136 20.7361L229.978 19.7487L229.82 18.7612L214.038 21.2866L214.196 22.274ZM229.978 19.7487L229.104 19.2618L224.227 28.0108L225.101 28.4977L225.974 28.9846L230.851 20.2355L229.978 19.7487ZM257.688 11.0475L256.989 10.3333L245.275 21.8138L245.975 22.528L246.675 23.2421L258.388 11.7617L257.688 11.0475ZM245.975 22.528L246.877 22.0977L243.2 14.3809L242.297 14.8112L241.394 15.2414L245.072 22.9582L245.975 22.528ZM242.297 14.8112L242.43 13.8201L236.138 12.9734L236.005 13.9645L235.872 14.9555L242.163 15.8022L242.297 14.8112ZM236.005 13.9645L235.313 13.2429L229.285 19.0261L229.978 19.7477L230.67 20.4692L236.697 14.686L236.005 13.9645ZM229.978 19.7477L229.819 18.7603L214.038 21.2866L214.196 22.274L214.354 23.2615L230.136 20.7351L229.978 19.7477ZM214.196 22.274L214.892 22.9924L225.084 13.1223L224.389 12.4039L223.693 11.6856L213.501 21.5557L214.196 22.274ZM224.389 12.4039L224.256 13.395L231.576 14.3784L231.709 13.3873L231.842 12.3962L224.522 11.4128L224.389 12.4039ZM231.709 13.3873L231.842 12.3963L224.523 11.4119L224.39 12.403L224.256 13.394L231.576 14.3784L231.709 13.3873ZM224.39 12.403L224.739 13.3399L238.969 8.03428L238.62 7.09729L238.271 6.1603L224.04 11.466L224.39 12.403ZM238.62 7.09729L238.417 8.0765L257.486 12.0267L257.688 11.0475L257.891 10.0683L238.823 6.11808L238.62 7.09729Z" fill="#262626" mask="url(#path-5-outside-3_436_150)"/>
<mask id="path-7-outside-4_436_150" maskUnits="userSpaceOnUse" x="172.2" y="62.3522" width="120" height="124" fill="black">
<rect fill="white" x="172.2" y="62.3522" width="120" height="124"/>
<path d="M216.473 64.3541L234.863 73.3356V84.6061L234.864 84.608V73.3356L256.625 71.8043L259.971 96.2858L255.64 115.657L238.619 111.092H238.618L255.639 115.657V115.658L269.498 134.842L257.853 172.063L239.799 184.265L232.493 176.676V176.673L221.415 151.843L225.57 134.433H225.568L216.468 115.657L216.47 115.656L212.716 97.6129L216.47 64.3541L216.468 64.3522L216.47 64.3531L216.471 64.3522L216.473 64.3541ZM283.213 157.774L279.496 168.298L275.692 155.111L285.056 147.699L283.213 157.774ZM286.276 159.559L279.497 168.298L283.213 157.774L286.276 159.559ZM286.276 159.559L283.214 157.774L285.058 147.699L286.276 159.559ZM269.5 134.843L255.64 115.658L290.432 106.635L269.5 134.843ZM212.713 97.6129L216.468 115.658L189.177 112.116L175.2 96.2867L212.713 97.6129ZM290.432 106.635L255.64 115.657L259.971 96.2867L290.432 106.635ZM273.032 100.724L259.972 96.2858L256.626 71.8043L273.032 100.724ZM212.713 97.6129L175.2 96.2858L186.407 73.3356L216.468 64.3522L212.713 97.6129Z"/>
</mask>
<path d="M216.473 64.3541L234.863 73.3356V84.6061L234.864 84.608V73.3356L256.625 71.8043L259.971 96.2858L255.64 115.657L238.619 111.092H238.618L255.639 115.657V115.658L269.498 134.842L257.853 172.063L239.799 184.265L232.493 176.676V176.673L221.415 151.843L225.57 134.433H225.568L216.468 115.657L216.47 115.656L212.716 97.6129L216.47 64.3541L216.468 64.3522L216.47 64.3531L216.471 64.3522L216.473 64.3541ZM283.213 157.774L279.496 168.298L275.692 155.111L285.056 147.699L283.213 157.774ZM286.276 159.559L279.497 168.298L283.213 157.774L286.276 159.559ZM286.276 159.559L283.214 157.774L285.058 147.699L286.276 159.559ZM269.5 134.843L255.64 115.658L290.432 106.635L269.5 134.843ZM212.713 97.6129L216.468 115.658L189.177 112.116L175.2 96.2867L212.713 97.6129ZM290.432 106.635L255.64 115.657L259.971 96.2867L290.432 106.635ZM273.032 100.724L259.972 96.2858L256.626 71.8043L273.032 100.724ZM212.713 97.6129L175.2 96.2858L186.407 73.3356L216.468 64.3522L212.713 97.6129Z" fill="#F5F3EE"/>
<path d="M216.473 64.3541L215.766 65.0612L215.884 65.1794L216.034 65.2527L216.473 64.3541ZM234.863 73.3356H235.863V72.7111L235.302 72.437L234.863 73.3356ZM234.863 84.6061H233.863V84.8421L233.969 85.0533L234.863 84.6061ZM234.864 84.608L233.97 85.0552L235.864 84.608H234.864ZM234.864 73.3356L234.794 72.338L233.864 72.4035V73.3356H234.864ZM256.625 71.8043L257.616 71.6689L257.489 70.7411L256.555 70.8068L256.625 71.8043ZM259.971 96.2858L260.947 96.504L260.986 96.3285L260.961 96.1504L259.971 96.2858ZM255.64 115.657L255.381 116.623L255.635 116.691L255.891 116.625L255.64 115.657ZM238.619 111.092L238.878 110.127L238.751 110.092H238.619V111.092ZM238.618 111.092V110.092L238.359 112.058L238.618 111.092ZM255.639 115.657H256.639V114.89L255.898 114.691L255.639 115.657ZM255.639 115.658H254.639V115.981L254.828 116.243L255.639 115.658ZM269.498 134.842L270.452 135.141L270.602 134.663L270.309 134.257L269.498 134.842ZM257.853 172.063L258.412 172.892L258.702 172.696L258.807 172.362L257.853 172.063ZM239.799 184.265L239.078 184.959L239.662 185.565L240.359 185.094L239.799 184.265ZM232.493 176.676H231.493V177.08L231.773 177.37L232.493 176.676ZM232.493 176.673H233.493V176.461L233.406 176.266L232.493 176.673ZM221.415 151.843L220.442 151.611L220.364 151.941L220.502 152.251L221.415 151.843ZM225.57 134.433L226.543 134.665L226.837 133.433H225.57V134.433ZM225.568 134.433L224.668 134.869L224.942 135.433H225.568V134.433ZM216.468 115.657L216.021 114.762L215.137 115.204L215.568 116.093L216.468 115.657ZM216.47 115.656L216.917 116.55L217.606 116.206L217.449 115.452L216.47 115.656ZM212.716 97.6129L211.722 97.5008L211.704 97.6599L211.737 97.8166L212.716 97.6129ZM216.47 64.3541L217.463 64.4663L217.517 63.9876L217.177 63.647L216.47 64.3541ZM216.468 64.3522L216.915 63.4577L216.561 63.2807L216.181 63.394L216.468 64.3522ZM216.47 64.3531L216.022 65.2476L216.667 65.5699L217.177 65.0603L216.47 64.3531ZM216.471 64.3522L217.178 63.6451L216.471 62.938L215.764 63.6451L216.471 64.3522ZM279.496 168.298L278.535 168.576L279.4 171.574L280.439 168.631L279.496 168.298ZM275.692 155.111L275.072 154.327L274.546 154.743L274.732 155.388L275.692 155.111ZM285.056 147.699L286.039 147.879L286.517 145.267L284.435 146.915L285.056 147.699ZM286.276 159.559L287.066 160.172L287.312 159.856L287.271 159.457L286.276 159.559ZM279.497 168.298L278.554 167.966L280.287 168.911L279.497 168.298ZM283.214 157.774L282.23 157.594L282.104 158.285L282.71 158.638L283.214 157.774ZM285.058 147.699L286.052 147.597L284.074 147.519L285.058 147.699ZM269.5 134.843L268.689 135.429L269.489 136.536L270.303 135.439L269.5 134.843ZM255.64 115.658L255.389 114.69L253.972 115.057L254.829 116.243L255.64 115.658ZM290.432 106.635L291.235 107.231L292.052 106.13L290.753 105.689L290.432 106.635ZM216.468 115.658L216.339 116.65L217.733 116.83L217.447 115.454L216.468 115.658ZM189.177 112.116L188.427 112.778L188.676 113.059L189.048 113.108L189.177 112.116ZM175.2 96.2867L175.236 95.2874L172.911 95.2052L174.451 96.9486L175.2 96.2867ZM259.971 96.2867L260.292 95.3399L259.238 94.9816L258.995 96.0685L259.971 96.2867ZM273.032 100.724L272.71 101.671L275.199 102.517L273.902 100.231L273.032 100.724ZM259.972 96.2858L258.981 96.4212L259.065 97.0337L259.65 97.2326L259.972 96.2858ZM256.626 71.8043L257.496 71.3109L255.635 71.9397L256.626 71.8043ZM175.2 96.2858L174.302 95.847L173.626 97.2307L175.165 97.2851L175.2 96.2858ZM186.407 73.3356L186.121 72.3774L185.701 72.5029L185.509 72.8968L186.407 73.3356ZM216.473 64.3541L216.034 65.2527L234.424 74.2341L234.863 73.3356L235.302 72.437L216.911 63.4556L216.473 64.3541ZM234.863 73.3356H233.863V84.6061H234.863H235.863V73.3356H234.863ZM234.863 84.6061L233.969 85.0533L233.97 85.0552L234.864 84.608L235.759 84.1608L235.758 84.1589L234.863 84.6061ZM234.864 84.608H235.864V73.3356H234.864H233.864V84.608H234.864ZM234.864 73.3356L234.934 74.3331L256.695 72.8019L256.625 71.8043L256.555 70.8068L234.794 72.338L234.864 73.3356ZM256.625 71.8043L255.634 71.9397L258.98 96.4212L259.971 96.2858L260.961 96.1504L257.616 71.6689L256.625 71.8043ZM259.971 96.2858L258.995 96.0676L254.664 115.439L255.64 115.657L256.616 115.875L260.947 96.504L259.971 96.2858ZM255.64 115.657L255.899 114.691L238.878 110.127L238.619 111.092L238.36 112.058L255.381 116.623L255.64 115.657ZM238.619 111.092V110.092H238.618V111.092V112.092H238.619V111.092ZM238.618 111.092L238.359 112.058L255.38 116.623L255.639 115.657L255.898 114.691L238.877 110.127L238.618 111.092ZM255.639 115.657H254.639V115.658H255.639H256.639V115.657H255.639ZM255.639 115.658L254.828 116.243L268.687 135.428L269.498 134.842L270.309 134.257L256.449 115.072L255.639 115.658ZM269.498 134.842L268.544 134.544L256.898 171.765L257.853 172.063L258.807 172.362L270.452 135.141L269.498 134.842ZM257.853 172.063L257.293 171.235L239.239 183.437L239.799 184.265L240.359 185.094L258.412 172.892L257.853 172.063ZM239.799 184.265L240.519 183.572L233.214 175.983L232.493 176.676L231.773 177.37L239.078 184.959L239.799 184.265ZM232.493 176.676H233.493V176.673H232.493H231.493V176.676H232.493ZM232.493 176.673L233.406 176.266L222.328 151.436L221.415 151.843L220.502 152.251L231.58 177.081L232.493 176.673ZM221.415 151.843L222.388 152.076L226.543 134.665L225.57 134.433L224.598 134.201L220.442 151.611L221.415 151.843ZM225.57 134.433V133.433H225.568V134.433V135.433H225.57V134.433ZM225.568 134.433L226.468 133.997L217.368 115.221L216.468 115.657L215.568 116.093L224.668 134.869L225.568 134.433ZM216.468 115.657L216.915 116.551L216.917 116.55L216.47 115.656L216.022 114.761L216.021 114.762L216.468 115.657ZM216.47 115.656L217.449 115.452L213.695 97.4092L212.716 97.6129L211.737 97.8166L215.491 115.86L216.47 115.656ZM212.716 97.6129L213.709 97.7251L217.463 64.4663L216.47 64.3541L215.476 64.242L211.722 97.5008L212.716 97.6129ZM216.47 64.3541L217.177 63.647L217.175 63.6451L216.468 64.3522L215.761 65.0593L215.763 65.0612L216.47 64.3541ZM216.468 64.3522L216.021 65.2466L216.022 65.2476L216.47 64.3531L216.917 63.4587L216.915 63.4577L216.468 64.3522ZM216.47 64.3531L217.177 65.0603L217.178 65.0593L216.471 64.3522L215.764 63.6451L215.763 63.646L216.47 64.3531ZM216.471 64.3522L215.764 65.0593L215.766 65.0612L216.473 64.3541L217.18 63.647L217.178 63.6451L216.471 64.3522ZM283.213 157.774L282.27 157.441L278.553 167.965L279.496 168.298L280.439 168.631L284.156 158.107L283.213 157.774ZM279.496 168.298L280.457 168.021L276.653 154.834L275.692 155.111L274.732 155.388L278.535 168.576L279.496 168.298ZM275.692 155.111L276.313 155.895L285.676 148.483L285.056 147.699L284.435 146.915L275.072 154.327L275.692 155.111ZM285.056 147.699L284.072 147.519L282.229 157.594L283.213 157.774L284.197 157.954L286.039 147.879L285.056 147.699ZM286.276 159.559L285.486 158.946L278.707 167.686L279.497 168.298L280.287 168.911L287.066 160.172L286.276 159.559ZM279.497 168.298L280.44 168.631L284.156 158.107L283.213 157.774L282.27 157.441L278.554 167.966L279.497 168.298ZM283.213 157.774L282.709 158.638L285.773 160.423L286.276 159.559L286.78 158.695L283.716 156.91L283.213 157.774ZM286.276 159.559L286.78 158.695L283.717 156.91L283.214 157.774L282.71 158.638L285.773 160.423L286.276 159.559ZM283.214 157.774L284.198 157.954L286.041 147.879L285.058 147.699L284.074 147.519L282.23 157.594L283.214 157.774ZM285.058 147.699L284.063 147.801L285.282 159.661L286.276 159.559L287.271 159.457L286.052 147.597L285.058 147.699ZM269.5 134.843L270.311 134.258L256.45 115.072L255.64 115.658L254.829 116.243L268.689 135.429L269.5 134.843ZM255.64 115.658L255.891 116.626L290.683 107.603L290.432 106.635L290.181 105.667L255.389 114.69L255.64 115.658ZM290.432 106.635L289.629 106.039L268.697 134.247L269.5 134.843L270.303 135.439L291.235 107.231L290.432 106.635ZM212.713 97.6129L211.734 97.8166L215.489 115.862L216.468 115.658L217.447 115.454L213.692 97.4092L212.713 97.6129ZM216.468 115.658L216.596 114.666L189.305 111.124L189.177 112.116L189.048 113.108L216.339 116.65L216.468 115.658ZM189.177 112.116L189.926 111.454L175.95 95.6249L175.2 96.2867L174.451 96.9486L188.427 112.778L189.177 112.116ZM175.2 96.2867L175.165 97.2861L212.678 98.6123L212.713 97.6129L212.748 96.6135L175.236 95.2874L175.2 96.2867ZM290.432 106.635L290.181 105.667L255.389 114.689L255.64 115.657L255.891 116.625L290.683 107.603L290.432 106.635ZM255.64 115.657L256.616 115.875L260.947 96.505L259.971 96.2867L258.995 96.0685L254.664 115.439L255.64 115.657ZM259.971 96.2867L259.649 97.2336L290.11 107.582L290.432 106.635L290.753 105.689L260.292 95.3399L259.971 96.2867ZM273.032 100.724L273.354 99.7774L260.293 95.3389L259.972 96.2858L259.65 97.2326L272.71 101.671L273.032 100.724ZM259.972 96.2858L260.962 96.1504L257.617 71.6689L256.626 71.8043L255.635 71.9397L258.981 96.4212L259.972 96.2858ZM256.626 71.8043L255.756 72.2978L272.162 101.218L273.032 100.724L273.902 100.231L257.496 71.3109L256.626 71.8043ZM212.713 97.6129L212.748 96.6135L175.236 95.2864L175.2 96.2858L175.165 97.2851L212.678 98.6123L212.713 97.6129ZM175.2 96.2858L176.099 96.7246L187.306 73.7744L186.407 73.3356L185.509 72.8968L174.302 95.847L175.2 96.2858ZM186.407 73.3356L186.694 74.2937L216.754 65.3103L216.468 64.3522L216.181 63.394L186.121 72.3774L186.407 73.3356ZM216.468 64.3522L215.474 64.24L211.719 97.5007L212.713 97.6129L213.707 97.7251L217.461 64.4644L216.468 64.3522Z" fill="#262626" mask="url(#path-7-outside-4_436_150)"/>
<mask id="path-9-outside-5_436_150" maskUnits="userSpaceOnUse" x="243.974" y="-0.150269" width="203" height="136" fill="black">
<rect fill="white" x="243.974" y="-0.150269" width="203" height="136"/>
<path d="M376.432 120.797L375.703 122.071L383.718 134.853L372.589 127.527L374.627 112.712L376.432 120.797ZM399.458 130.981L390.007 128.902L390.008 128.898L387.884 122.066L393.306 121.159L394.084 119.334L399.458 130.981ZM402.953 120.114L399.461 130.981L394.087 119.334L401.87 111.092L402.953 120.114ZM348.821 7.55579L406.56 8.42395L380.449 32.3488L380.45 32.3497H380.448V32.3507H380.45L380.449 32.3517L394.836 62.4503L372.587 77.7042L380.781 80.924L372.589 77.7052L394.837 62.4503L393.442 85.8986L393.44 85.8976L380.451 91.2296L386.614 105.318L377.378 108.44L376.432 120.797L372.462 102.941L372.461 102.94L374.626 112.711L369.427 111.092L368.159 98.13L371.653 102.036L366.95 96.7736V96.7726L353.424 84.4552L347.229 86.6388L347.229 86.6398L338.422 100.724L330.774 90.5997V90.5988L312.165 81.0597L302.196 64.3517L319.996 43.84H319.995V43.839L311.491 19.7482L341.543 1.84973L348.821 7.55579ZM338.42 100.724L336.771 110.663L329.524 102.938L330.772 90.5997L338.42 100.724ZM311.49 19.7482H311.489L319.994 43.84L302.194 64.3497L302.195 64.3517L302.193 64.3507L302.194 64.3517L302.193 64.3527L312.161 81.0587V81.0597L306.251 86.9806L300.185 90.5978L300.186 90.5988L278.759 100.722V100.724L278.758 100.723L278.757 100.724V100.721L265.913 80.9816L265.911 80.9825L264.233 73.9503L259.972 77.7052L256.626 71.8038L259.972 62.0216L270.036 68.838L277.371 59.3488L302.192 64.3507L277.372 59.3478V59.3488L271.345 49.9943L259.972 35.3146L272.202 31.4327L286.111 9.38977L311.49 19.7482ZM342.926 63.7355H342.927L352.817 41.5675H352.815L342.926 63.7355ZM428.271 21.3771L401.469 23.9406L401.47 23.9415L396.173 38.1437L399.255 29.8917L413.398 40.6603L405.371 51.3409L394.837 62.4503L380.45 32.3497L397.089 17.1046L406.56 8.42395L428.271 21.3771ZM272.201 31.4327L259.97 35.3136L259.971 35.3156L250.831 42.962L245.974 22.5275L257.687 11.048L259.568 31.0441L258.282 17.339L286.109 9.38977L272.201 31.4327ZM359.729 39.2618L380.446 32.3517L380.447 32.3497L359.729 39.2618ZM445.712 13.3693L428.271 21.3771L413.397 12.5011L445.712 13.3693ZM311.491 19.7482L291.847 11.7208L341.542 1.84973L311.491 19.7482Z"/>
</mask>
<path d="M376.432 120.797L375.703 122.071L383.718 134.853L372.589 127.527L374.627 112.712L376.432 120.797ZM399.458 130.981L390.007 128.902L390.008 128.898L387.884 122.066L393.306 121.159L394.084 119.334L399.458 130.981ZM402.953 120.114L399.461 130.981L394.087 119.334L401.87 111.092L402.953 120.114ZM348.821 7.55579L406.56 8.42395L380.449 32.3488L380.45 32.3497H380.448V32.3507H380.45L380.449 32.3517L394.836 62.4503L372.587 77.7042L380.781 80.924L372.589 77.7052L394.837 62.4503L393.442 85.8986L393.44 85.8976L380.451 91.2296L386.614 105.318L377.378 108.44L376.432 120.797L372.462 102.941L372.461 102.94L374.626 112.711L369.427 111.092L368.159 98.13L371.653 102.036L366.95 96.7736V96.7726L353.424 84.4552L347.229 86.6388L347.229 86.6398L338.422 100.724L330.774 90.5997V90.5988L312.165 81.0597L302.196 64.3517L319.996 43.84H319.995V43.839L311.491 19.7482L341.543 1.84973L348.821 7.55579ZM338.42 100.724L336.771 110.663L329.524 102.938L330.772 90.5997L338.42 100.724ZM311.49 19.7482H311.489L319.994 43.84L302.194 64.3497L302.195 64.3517L302.193 64.3507L302.194 64.3517L302.193 64.3527L312.161 81.0587V81.0597L306.251 86.9806L300.185 90.5978L300.186 90.5988L278.759 100.722V100.724L278.758 100.723L278.757 100.724V100.721L265.913 80.9816L265.911 80.9825L264.233 73.9503L259.972 77.7052L256.626 71.8038L259.972 62.0216L270.036 68.838L277.371 59.3488L302.192 64.3507L277.372 59.3478V59.3488L271.345 49.9943L259.972 35.3146L272.202 31.4327L286.111 9.38977L311.49 19.7482ZM342.926 63.7355H342.927L352.817 41.5675H352.815L342.926 63.7355ZM428.271 21.3771L401.469 23.9406L401.47 23.9415L396.173 38.1437L399.255 29.8917L413.398 40.6603L405.371 51.3409L394.837 62.4503L380.45 32.3497L397.089 17.1046L406.56 8.42395L428.271 21.3771ZM272.201 31.4327L259.97 35.3136L259.971 35.3156L250.831 42.962L245.974 22.5275L257.687 11.048L259.568 31.0441L258.282 17.339L286.109 9.38977L272.201 31.4327ZM359.729 39.2618L380.446 32.3517L380.447 32.3497L359.729 39.2618ZM445.712 13.3693L428.271 21.3771L413.397 12.5011L445.712 13.3693ZM311.491 19.7482L291.847 11.7208L341.542 1.84973L311.491 19.7482Z" fill="#F5F3EE"/>
<path d="M376.432 120.797L377.3 121.293L377.412 121.098L377.429 120.873L376.432 120.797ZM375.703 122.071L374.835 121.575L374.538 122.095L374.856 122.603L375.703 122.071ZM383.718 134.853L383.168 135.688L384.565 134.321L383.718 134.853ZM372.589 127.527L371.598 127.391L371.512 128.016L372.039 128.363L372.589 127.527ZM374.627 112.712L375.603 112.494L373.636 112.576L374.627 112.712ZM399.458 130.981L399.243 131.957L401.209 132.39L400.366 130.562L399.458 130.981ZM390.007 128.902L389.026 128.706L388.834 129.668L389.792 129.879L390.007 128.902ZM390.008 128.898L390.988 129.094L391.038 128.844L390.963 128.601L390.008 128.898ZM387.884 122.066L387.719 121.079L386.589 121.268L386.929 122.362L387.884 122.066ZM393.306 121.159L393.471 122.146L394.011 122.055L394.226 121.552L393.306 121.159ZM394.084 119.334L394.992 118.915L394.048 116.869L393.164 118.942L394.084 119.334ZM402.953 120.114L403.905 120.42L403.972 120.212L403.946 119.995L402.953 120.114ZM399.461 130.981L398.553 131.4L399.628 133.729L400.413 131.287L399.461 130.981ZM394.087 119.334L393.36 118.648L392.896 119.139L393.179 119.753L394.087 119.334ZM401.87 111.092L402.863 110.973L402.609 108.853L401.143 110.405L401.87 111.092ZM348.821 7.55579L348.204 8.34277L348.469 8.55061L348.806 8.55567L348.821 7.55579ZM406.56 8.42395L407.072 7.56517L406.842 7.42809L406.575 7.42406L406.56 8.42395ZM380.449 32.3488L379.774 31.6115L379.003 32.3172L379.742 33.0559L380.449 32.3488ZM380.448 32.3497V31.3497H379.448V32.3497H380.448ZM380.448 32.3507H379.448V33.3507H380.448V32.3507ZM380.45 32.3507L381.157 33.0578L382.864 31.3507H380.45V32.3507ZM380.449 32.3517L379.742 31.6446L379.242 32.1447L379.547 32.7829L380.449 32.3517ZM394.836 62.4503L395.401 63.2751L396.107 62.7912L395.738 62.0191L394.836 62.4503ZM372.587 77.7042L372.021 76.8794L370.467 77.9455L372.221 78.635L372.587 77.7042ZM380.781 80.924L380.416 81.8547L381.147 79.9932L380.781 80.924ZM372.589 77.7052L372.023 76.8805L370.469 77.9465L372.223 78.6359L372.589 77.7052ZM393.442 85.8986L392.995 86.793L394.351 87.4707L394.441 85.9579L393.442 85.8986ZM393.44 85.8976L393.888 85.0032L393.481 84.7999L393.061 84.9725L393.44 85.8976ZM380.451 91.2296L380.071 90.3045L379.125 90.6931L379.535 91.6304L380.451 91.2296ZM386.614 105.318L386.934 106.265L387.967 105.916L387.53 104.917L386.614 105.318ZM377.378 108.44L377.058 107.492L376.431 107.704L376.381 108.363L377.378 108.44ZM372.462 102.941L373.438 102.724L373.375 102.439L373.169 102.233L372.462 102.941ZM372.461 102.94L373.168 102.232L370.743 99.807L371.485 103.156L372.461 102.94ZM374.626 112.711L374.329 113.666L375.975 114.179L375.602 112.495L374.626 112.711ZM369.427 111.092L368.431 111.189L368.496 111.849L369.129 112.047L369.427 111.092ZM368.159 98.13L368.904 97.4633L366.866 95.1848L367.164 98.2273L368.159 98.13ZM371.653 102.036L370.908 102.703L372.399 101.37L371.653 102.036ZM366.95 96.7736H365.95V97.1553L366.205 97.4399L366.95 96.7736ZM366.95 96.7726H367.95V96.3307L367.623 96.0332L366.95 96.7726ZM353.424 84.4552L354.097 83.7158L353.655 83.3134L353.091 83.5121L353.424 84.4552ZM347.229 86.6388L346.896 85.6957L345.399 86.2234L346.521 87.3459L347.229 86.6388ZM347.229 86.6398L348.077 87.17L348.499 86.4953L347.937 85.9327L347.229 86.6398ZM338.422 100.724L337.624 101.326L338.499 102.486L339.27 101.254L338.422 100.724ZM330.774 90.5997H329.774V90.935L329.976 91.2025L330.774 90.5997ZM330.774 90.5988H331.774V89.9876L331.231 89.7089L330.774 90.5988ZM312.165 81.0597L311.306 81.5721L311.453 81.8186L311.709 81.9496L312.165 81.0597ZM302.196 64.3517L301.441 63.6963L300.967 64.2427L301.338 64.8641L302.196 64.3517ZM319.996 43.84L320.751 44.4954L322.188 42.84H319.996V43.84ZM319.995 43.84H318.995V44.84H319.995V43.84ZM319.995 43.839H320.995V43.6677L320.938 43.5061L319.995 43.839ZM341.543 1.84973L342.16 1.06275L341.62 0.639718L341.031 0.99057L341.543 1.84973ZM338.42 100.724L339.406 100.887L339.477 100.464L339.218 100.121L338.42 100.724ZM336.771 110.663L336.042 111.347L337.427 112.824L337.758 110.827L336.771 110.663ZM329.524 102.938L328.529 102.837L328.484 103.29L328.795 103.622L329.524 102.938ZM330.772 90.5997L331.57 89.997L330.034 87.9631L329.778 90.4991L330.772 90.5997ZM311.49 19.7482V20.7482L311.868 18.8223L311.49 19.7482ZM311.489 19.7482V18.7482H310.076L310.546 20.0811L311.489 19.7482ZM319.994 43.84L320.749 44.4954L321.131 44.0559L320.937 43.5071L319.994 43.84ZM302.194 64.3497L301.439 63.6943L301.001 64.1991L301.3 64.7969L302.194 64.3497ZM302.195 64.3517L301.748 65.2461L304.431 66.5878L303.09 63.9045L302.195 64.3517ZM302.193 64.3507L302.641 63.4563L301.486 65.0578L302.193 64.3507ZM302.194 64.3517L302.901 65.0588L303.609 64.3517L302.901 63.6446L302.194 64.3517ZM302.193 64.3527L301.486 63.6456L300.936 64.1962L301.335 64.865L302.193 64.3527ZM312.161 81.0587H313.161V80.7831L313.02 80.5463L312.161 81.0587ZM312.161 81.0597L312.869 81.7662L313.161 81.4734V81.0597H312.161ZM306.251 86.9806L306.763 87.8395L306.87 87.7755L306.959 87.6871L306.251 86.9806ZM300.185 90.5978L299.672 89.7389L298.569 90.3967L299.477 91.3049L300.185 90.5978ZM300.186 90.5988L300.613 91.5029L301.897 90.8961L300.893 89.8916L300.186 90.5988ZM278.759 100.722L278.332 99.8176L277.759 100.088V100.722H278.759ZM278.759 100.724L278.052 101.431L279.759 103.138V100.724H278.759ZM278.758 100.723L279.465 100.016L278.758 99.3086L278.051 100.016L278.758 100.723ZM278.757 100.724H277.757V103.138L279.464 101.431L278.757 100.724ZM278.757 100.721H279.757V100.424L279.595 100.175L278.757 100.721ZM265.913 80.9816L266.751 80.4362L266.264 79.6879L265.466 80.0871L265.913 80.9816ZM265.911 80.9825L264.938 81.2146L265.231 82.4407L266.358 81.877L265.911 80.9825ZM264.233 73.9503L265.206 73.7183L264.82 72.1006L263.572 73.2L264.233 73.9503ZM259.972 77.7052L259.102 78.1984L259.709 79.2694L260.633 78.4555L259.972 77.7052ZM256.626 71.8038L255.68 71.4802L255.534 71.9058L255.756 72.297L256.626 71.8038ZM259.972 62.0216L260.532 61.1936L259.449 60.4598L259.025 61.698L259.972 62.0216ZM270.036 68.838L269.475 69.666L270.253 70.1926L270.827 69.4496L270.036 68.838ZM277.371 59.3488L277.569 58.3685L276.96 58.2458L276.58 58.7372L277.371 59.3488ZM302.192 64.3507L301.995 65.331L302.39 63.3704L302.192 64.3507ZM277.372 59.3478L277.57 58.3675L276.372 58.1261V59.3478H277.372ZM277.372 59.3488L276.531 59.8904L278.372 62.747V59.3488H277.372ZM271.345 49.9943L272.185 49.4526L272.162 49.4161L272.135 49.3818L271.345 49.9943ZM259.972 35.3146L259.669 34.3614L258.304 34.7947L259.181 35.927L259.972 35.3146ZM272.202 31.4327L272.505 32.3859L272.853 32.2754L273.048 31.9664L272.202 31.4327ZM286.111 9.38977L286.489 8.46392L285.713 8.14711L285.266 8.85613L286.111 9.38977ZM342.926 63.7355L342.013 63.3281L341.385 64.7355H342.926V63.7355ZM342.927 63.7355V64.7355H343.576L343.84 64.1429L342.927 63.7355ZM352.817 41.5675L353.731 41.975L354.359 40.5675H352.817V41.5675ZM352.815 41.5675V40.5675H352.167L351.902 41.1601L352.815 41.5675ZM428.271 21.3771L428.367 22.3725L428.535 22.3564L428.689 22.2859L428.271 21.3771ZM401.469 23.9406L401.374 22.9451L399.261 23.1471L400.762 24.6477L401.469 23.9406ZM401.47 23.9415L402.407 24.291L402.631 23.6888L402.177 23.2344L401.47 23.9415ZM396.173 38.1437L395.236 37.7942L397.11 38.4936L396.173 38.1437ZM399.255 29.8917L399.861 29.0961L398.789 28.2803L398.318 29.5418L399.255 29.8917ZM413.398 40.6603L414.198 41.2611L414.795 40.4667L414.004 39.8646L413.398 40.6603ZM405.371 51.3409L406.097 52.029L406.136 51.9875L406.17 51.9417L405.371 51.3409ZM397.089 17.1046L397.764 17.8419L397.765 17.8418L397.089 17.1046ZM272.201 31.4327L272.504 32.3859L272.852 32.2754L273.047 31.9664L272.201 31.4327ZM259.97 35.3136L259.667 34.3604L258.552 34.7143L259.075 35.7608L259.97 35.3136ZM259.971 35.3156L260.612 36.0825L261.219 35.5753L260.865 34.8683L259.971 35.3156ZM250.831 42.962L249.858 43.1933L250.232 44.7669L251.473 43.729L250.831 42.962ZM245.974 22.5275L245.274 21.8132L244.87 22.2088L245.001 22.7587L245.974 22.5275ZM257.687 11.048L258.683 10.9543L258.487 8.86477L256.988 10.3338L257.687 11.048ZM259.568 31.0441L258.573 31.1377L260.564 30.9506L259.568 31.0441ZM258.282 17.339L258.008 16.3775L257.209 16.6056L257.287 17.4324L258.282 17.339ZM286.109 9.38977L286.955 9.92339L288.352 7.70906L285.835 8.42823L286.109 9.38977ZM359.729 39.2618L359.413 38.3132L360.046 40.2105L359.729 39.2618ZM380.446 32.3517L380.763 33.3003L381.156 33.1693L381.341 32.7989L380.446 32.3517ZM380.447 32.3497L381.342 32.7969L382.422 30.6368L380.131 31.4011L380.447 32.3497ZM445.712 13.3693L446.129 14.278L445.739 12.3696L445.712 13.3693ZM413.397 12.5011L413.424 11.5015L409.599 11.3987L412.885 13.3598L413.397 12.5011ZM291.847 11.7208L291.652 10.74L288.389 11.3881L291.468 12.6465L291.847 11.7208ZM341.542 1.84973L342.054 2.70889L341.347 0.868894L341.542 1.84973ZM376.432 120.797L375.563 120.301L374.835 121.575L375.703 122.071L376.571 122.568L377.3 121.293L376.432 120.797ZM375.703 122.071L374.856 122.603L382.871 135.384L383.718 134.853L384.565 134.321L376.55 121.54L375.703 122.071ZM383.718 134.853L384.268 134.017L373.139 126.692L372.589 127.527L372.039 128.363L383.168 135.688L383.718 134.853ZM372.589 127.527L373.58 127.664L375.618 112.848L374.627 112.712L373.636 112.576L371.598 127.391L372.589 127.527ZM374.627 112.712L373.651 112.93L375.456 121.015L376.432 120.797L377.408 120.579L375.603 112.494L374.627 112.712ZM399.458 130.981L399.673 130.004L390.222 127.926L390.007 128.902L389.792 129.879L399.243 131.957L399.458 130.981ZM390.007 128.902L390.987 129.099L390.988 129.094L390.008 128.898L389.027 128.701L389.026 128.706L390.007 128.902ZM390.008 128.898L390.963 128.601L388.839 121.769L387.884 122.066L386.929 122.362L389.053 129.194L390.008 128.898ZM387.884 122.066L388.049 123.052L393.471 122.146L393.306 121.159L393.141 120.173L387.719 121.079L387.884 122.066ZM393.306 121.159L394.226 121.552L395.004 119.726L394.084 119.334L393.164 118.942L392.386 120.767L393.306 121.159ZM394.084 119.334L393.176 119.753L398.55 131.4L399.458 130.981L400.366 130.562L394.992 118.915L394.084 119.334ZM402.953 120.114L402.001 119.808L398.509 130.675L399.461 130.981L400.413 131.287L403.905 120.42L402.953 120.114ZM399.461 130.981L400.369 130.562L394.995 118.915L394.087 119.334L393.179 119.753L398.553 131.4L399.461 130.981ZM394.087 119.334L394.814 120.021L402.597 111.778L401.87 111.092L401.143 110.405L393.36 118.648L394.087 119.334ZM401.87 111.092L400.877 111.211L401.96 120.234L402.953 120.114L403.946 119.995L402.863 110.973L401.87 111.092ZM348.821 7.55579L348.806 8.55567L406.545 9.42384L406.56 8.42395L406.575 7.42406L348.836 6.5559L348.821 7.55579ZM406.56 8.42395L405.884 7.68666L379.774 31.6115L380.449 32.3488L381.125 33.086L407.235 9.16124L406.56 8.42395ZM380.449 32.3488L379.742 33.0559L379.743 33.0568L380.45 32.3497L381.157 31.6426L381.156 31.6416L380.449 32.3488ZM380.45 32.3497V31.3497H380.448V32.3497V33.3497H380.45V32.3497ZM380.448 32.3497H379.448V32.3507H380.448H381.448V32.3497H380.448ZM380.448 32.3507V33.3507H380.45V32.3507V31.3507H380.448V32.3507ZM380.45 32.3507L379.743 31.6436L379.742 31.6446L380.449 32.3517L381.156 33.0588L381.157 33.0578L380.45 32.3507ZM380.449 32.3517L379.547 32.7829L393.934 62.8816L394.836 62.4503L395.738 62.0191L381.351 31.9204L380.449 32.3517ZM394.836 62.4503L394.27 61.6255L372.021 76.8794L372.587 77.7042L373.152 78.529L395.401 63.2751L394.836 62.4503ZM372.587 77.7042L372.221 78.635L380.416 81.8547L380.781 80.924L381.147 79.9932L372.953 76.7735L372.587 77.7042ZM380.781 80.924L381.147 79.9932L372.955 76.7745L372.589 77.7052L372.223 78.6359L380.416 81.8547L380.781 80.924ZM372.589 77.7052L373.154 78.5299L395.402 63.2751L394.837 62.4503L394.271 61.6256L372.023 76.8805L372.589 77.7052ZM394.837 62.4503L393.839 62.3909L392.444 85.8392L393.442 85.8986L394.441 85.9579L395.835 62.5097L394.837 62.4503ZM393.442 85.8986L393.89 85.0041L393.888 85.0032L393.44 85.8976L392.993 86.792L392.995 86.793L393.442 85.8986ZM393.44 85.8976L393.061 84.9725L380.071 90.3045L380.451 91.2296L380.831 92.1547L393.82 86.8227L393.44 85.8976ZM380.451 91.2296L379.535 91.6304L385.698 105.718L386.614 105.318L387.53 104.917L381.367 90.8288L380.451 91.2296ZM386.614 105.318L386.294 104.37L377.058 107.492L377.378 108.44L377.698 109.387L386.934 106.265L386.614 105.318ZM377.378 108.44L376.381 108.363L375.435 120.721L376.432 120.797L377.429 120.873L378.375 108.516L377.378 108.44ZM376.432 120.797L377.408 120.58L373.438 102.724L372.462 102.941L371.486 103.158L375.455 121.014L376.432 120.797ZM372.462 102.941L373.169 102.233L373.168 102.232L372.461 102.94L371.754 103.647L371.755 103.648L372.462 102.941ZM372.461 102.94L371.485 103.156L373.65 112.927L374.626 112.711L375.602 112.495L373.437 102.723L372.461 102.94ZM374.626 112.711L374.923 111.756L369.724 110.137L369.427 111.092L369.129 112.047L374.329 113.666L374.626 112.711ZM369.427 111.092L370.422 110.995L369.154 98.0327L368.159 98.13L367.164 98.2273L368.431 111.189L369.427 111.092ZM368.159 98.13L367.414 98.7967L370.908 102.703L371.653 102.036L372.399 101.37L368.904 97.4633L368.159 98.13ZM371.653 102.036L372.399 101.37L367.696 96.1072L366.95 96.7736L366.205 97.4399L370.908 102.703L371.653 102.036ZM366.95 96.7736H367.95V96.7726H366.95H365.95V96.7736H366.95ZM366.95 96.7726L367.623 96.0332L354.097 83.7158L353.424 84.4552L352.751 85.1946L366.277 97.512L366.95 96.7726ZM353.424 84.4552L353.091 83.5121L346.896 85.6957L347.229 86.6388L347.561 87.5819L353.756 85.3983L353.424 84.4552ZM347.229 86.6388L346.521 87.3459L346.522 87.3469L347.229 86.6398L347.937 85.9327L347.936 85.9317L347.229 86.6388ZM347.229 86.6398L346.382 86.1096L337.574 100.194L338.422 100.724L339.27 101.254L348.077 87.17L347.229 86.6398ZM338.422 100.724L339.22 100.121L331.572 89.997L330.774 90.5997L329.976 91.2025L337.624 101.326L338.422 100.724ZM330.774 90.5997H331.774V90.5988H330.774H329.774V90.5997H330.774ZM330.774 90.5988L331.231 89.7089L312.621 80.1698L312.165 81.0597L311.709 81.9496L330.318 91.4887L330.774 90.5988ZM312.165 81.0597L313.024 80.5473L303.055 63.8393L302.196 64.3517L301.338 64.8641L311.306 81.5721L312.165 81.0597ZM302.196 64.3517L302.952 65.0071L320.751 44.4954L319.996 43.84L319.241 43.1846L301.441 63.6963L302.196 64.3517ZM319.996 43.84V42.84H319.995V43.84V44.84H319.996V43.84ZM319.995 43.84H320.995V43.839H319.995H318.995V43.84H319.995ZM319.995 43.839L320.938 43.5061L312.434 19.4153L311.491 19.7482L310.548 20.081L319.052 44.1719L319.995 43.839ZM311.491 19.7482L312.003 20.6073L342.055 2.70889L341.543 1.84973L341.031 0.99057L310.979 18.889L311.491 19.7482ZM341.543 1.84973L340.926 2.63671L348.204 8.34277L348.821 7.55579L349.438 6.76881L342.16 1.06275L341.543 1.84973ZM338.42 100.724L337.433 100.56L335.785 110.5L336.771 110.663L337.758 110.827L339.406 100.887L338.42 100.724ZM336.771 110.663L337.501 109.979L330.254 102.253L329.524 102.938L328.795 103.622L336.042 111.347L336.771 110.663ZM329.524 102.938L330.519 103.038L331.767 90.7004L330.772 90.5997L329.778 90.4991L328.529 102.837L329.524 102.938ZM330.772 90.5997L329.975 91.2025L337.622 101.326L338.42 100.724L339.218 100.121L331.57 89.997L330.772 90.5997ZM311.49 19.7482V18.7482H311.489V19.7482V20.7482H311.49V19.7482ZM311.489 19.7482L310.546 20.0811L319.051 44.1729L319.994 43.84L320.937 43.5071L312.432 19.4153L311.489 19.7482ZM319.994 43.84L319.239 43.1845L301.439 63.6943L302.194 64.3497L302.95 65.0052L320.749 44.4954L319.994 43.84ZM302.194 64.3497L301.3 64.7969L301.301 64.7989L302.195 64.3517L303.09 63.9045L303.089 63.9025L302.194 64.3497ZM302.195 64.3517L302.643 63.4573L302.641 63.4563L302.193 64.3507L301.746 65.2451L301.748 65.2461L302.195 64.3517ZM302.193 64.3507L301.486 65.0578L301.487 65.0588L302.194 64.3517L302.901 63.6446L302.9 63.6436L302.193 64.3507ZM302.194 64.3517L301.487 63.6446L301.486 63.6456L302.193 64.3527L302.9 65.0598L302.901 65.0588L302.194 64.3517ZM302.193 64.3527L301.335 64.865L311.302 81.5711L312.161 81.0587L313.02 80.5463L303.052 63.8403L302.193 64.3527ZM312.161 81.0587H311.161V81.0597H312.161H313.161V81.0587H312.161ZM312.161 81.0597L311.453 80.3532L305.543 86.2741L306.251 86.9806L306.959 87.6871L312.869 81.7662L312.161 81.0597ZM306.251 86.9806L305.739 86.1217L299.672 89.7389L300.185 90.5978L300.697 91.4567L306.763 87.8395L306.251 86.9806ZM300.185 90.5978L299.477 91.3049L299.478 91.3059L300.186 90.5988L300.893 89.8916L300.892 89.8907L300.185 90.5978ZM300.186 90.5988L299.758 89.6946L278.332 99.8176L278.759 100.722L279.186 101.626L300.613 91.5029L300.186 90.5988ZM278.759 100.722H277.759V100.724H278.759H279.759V100.722H278.759ZM278.759 100.724L279.466 100.017L279.465 100.016L278.758 100.723L278.051 101.43L278.052 101.431L278.759 100.724ZM278.758 100.723L278.051 100.016L278.05 100.017L278.757 100.724L279.464 101.431L279.465 101.43L278.758 100.723ZM278.757 100.724H279.757V100.721H278.757H277.757V100.724H278.757ZM278.757 100.721L279.595 100.175L266.751 80.4362L265.913 80.9816L265.075 81.5269L277.919 101.266L278.757 100.721ZM265.913 80.9816L265.466 80.0871L265.464 80.0881L265.911 80.9825L266.358 81.877L266.36 81.876L265.913 80.9816ZM265.911 80.9825L266.884 80.7505L265.206 73.7183L264.233 73.9503L263.261 74.1824L264.938 81.2146L265.911 80.9825ZM264.233 73.9503L263.572 73.2L259.311 76.9549L259.972 77.7052L260.633 78.4555L264.894 74.7006L264.233 73.9503ZM259.972 77.7052L260.842 77.212L257.496 71.3106L256.626 71.8038L255.756 72.297L259.102 78.1984L259.972 77.7052ZM256.626 71.8038L257.572 72.1274L260.918 62.3452L259.972 62.0216L259.025 61.698L255.68 71.4802L256.626 71.8038ZM259.972 62.0216L259.411 62.8496L269.475 69.666L270.036 68.838L270.597 68.01L260.532 61.1936L259.972 62.0216ZM270.036 68.838L270.827 69.4496L278.162 59.9603L277.371 59.3488L276.58 58.7372L269.245 68.2264L270.036 68.838ZM277.371 59.3488L277.174 60.329L301.995 65.331L302.192 64.3507L302.39 63.3704L277.569 58.3685L277.371 59.3488ZM302.192 64.3507L302.39 63.3704L277.57 58.3675L277.372 59.3478L277.174 60.3281L301.995 65.331L302.192 64.3507ZM277.372 59.3478H276.372V59.3488H277.372H278.372V59.3478H277.372ZM277.372 59.3488L278.213 58.8071L272.185 49.4526L271.345 49.9943L270.504 50.5359L276.531 59.8904L277.372 59.3488ZM271.345 49.9943L272.135 49.3818L260.762 34.7021L259.972 35.3146L259.181 35.927L270.554 50.6067L271.345 49.9943ZM259.972 35.3146L260.274 36.2677L272.505 32.3859L272.202 31.4327L271.9 30.4796L259.669 34.3614L259.972 35.3146ZM272.202 31.4327L273.048 31.9664L286.957 9.92342L286.111 9.38977L285.266 8.85613L271.356 30.8991L272.202 31.4327ZM286.111 9.38977L285.733 10.3156L311.112 20.674L311.49 19.7482L311.868 18.8223L286.489 8.46392L286.111 9.38977ZM342.926 63.7355V64.7355H342.927V63.7355V62.7355H342.926V63.7355ZM342.927 63.7355L343.84 64.1429L353.731 41.975L352.817 41.5675L351.904 41.1601L342.014 63.328L342.927 63.7355ZM352.817 41.5675V40.5675H352.815V41.5675V42.5675H352.817V41.5675ZM352.815 41.5675L351.902 41.1601L342.013 63.3281L342.926 63.7355L343.839 64.1429L353.729 41.9749L352.815 41.5675ZM428.271 21.3771L428.176 20.3816L401.374 22.9451L401.469 23.9406L401.564 24.936L428.367 22.3725L428.271 21.3771ZM401.469 23.9406L400.762 24.6477L400.763 24.6486L401.47 23.9415L402.177 23.2344L402.176 23.2334L401.469 23.9406ZM401.47 23.9415L400.533 23.5921L395.236 37.7942L396.173 38.1437L397.11 38.4931L402.407 24.291L401.47 23.9415ZM396.173 38.1437L397.11 38.4936L400.192 30.2416L399.255 29.8917L398.318 29.5418L395.236 37.7938L396.173 38.1437ZM399.255 29.8917L398.649 30.6874L412.793 41.4559L413.398 40.6603L414.004 39.8646L399.861 29.0961L399.255 29.8917ZM413.398 40.6603L412.599 40.0595L404.572 50.7401L405.371 51.3409L406.17 51.9417L414.198 41.2611L413.398 40.6603ZM405.371 51.3409L404.645 50.6529L394.111 61.7622L394.837 62.4503L395.563 63.1384L406.097 52.029L405.371 51.3409ZM394.837 62.4503L395.739 62.0191L381.352 31.9185L380.45 32.3497L379.548 32.781L393.935 62.8815L394.837 62.4503ZM380.45 32.3497L381.126 33.087L397.764 17.8419L397.089 17.1046L396.413 16.3673L379.775 31.6124L380.45 32.3497ZM397.089 17.1046L397.765 17.8418L407.235 9.16114L406.56 8.42395L405.884 7.68676L396.413 16.3674L397.089 17.1046ZM406.56 8.42395L406.047 9.28273L427.759 22.2359L428.271 21.3771L428.784 20.5183L407.072 7.56517L406.56 8.42395ZM272.201 31.4327L271.899 30.4796L259.667 34.3604L259.97 35.3136L260.272 36.2668L272.504 32.3859L272.201 31.4327ZM259.97 35.3136L259.075 35.7608L259.076 35.7628L259.971 35.3156L260.865 34.8683L260.864 34.8664L259.97 35.3136ZM259.971 35.3156L259.329 34.5486L250.189 42.1951L250.831 42.962L251.473 43.729L260.612 36.0825L259.971 35.3156ZM250.831 42.962L251.804 42.7308L246.947 22.2962L245.974 22.5275L245.001 22.7587L249.858 43.1933L250.831 42.962ZM245.974 22.5275L246.674 23.2417L258.387 11.7622L257.687 11.048L256.988 10.3338L245.274 21.8132L245.974 22.5275ZM257.687 11.048L256.692 11.1416L258.573 31.1377L259.568 31.0441L260.564 30.9504L258.683 10.9543L257.687 11.048ZM259.568 31.0441L260.564 30.9506L259.278 17.2456L258.282 17.339L257.287 17.4324L258.573 31.1375L259.568 31.0441ZM258.282 17.339L258.557 18.3005L286.384 10.3513L286.109 9.38977L285.835 8.42823L258.008 16.3775L258.282 17.339ZM286.109 9.38977L285.264 8.85615L271.355 30.8991L272.201 31.4327L273.047 31.9664L286.955 9.92339L286.109 9.38977ZM359.729 39.2618L360.046 40.2105L380.763 33.3003L380.446 32.3517L380.13 31.4031L359.413 38.3132L359.729 39.2618ZM380.446 32.3517L381.341 32.7989L381.342 32.7969L380.447 32.3497L379.553 31.9025L379.552 31.9045L380.446 32.3517ZM380.447 32.3497L380.131 31.4011L359.413 38.3132L359.729 39.2618L360.046 40.2104L380.764 33.2983L380.447 32.3497ZM445.712 13.3693L445.295 12.4605L427.854 20.4683L428.271 21.3771L428.689 22.2859L446.129 14.278L445.712 13.3693ZM428.271 21.3771L428.784 20.5184L413.91 11.6424L413.397 12.5011L412.885 13.3598L427.759 22.2358L428.271 21.3771ZM413.397 12.5011L413.371 13.5007L445.685 14.3689L445.712 13.3693L445.739 12.3696L413.424 11.5015L413.397 12.5011ZM311.491 19.7482L311.869 18.8225L292.225 10.7951L291.847 11.7208L291.468 12.6465L311.113 20.6739L311.491 19.7482ZM291.847 11.7208L292.041 12.7017L341.737 2.83057L341.542 1.84973L341.347 0.868894L291.652 10.74L291.847 11.7208ZM341.542 1.84973L341.03 0.990578L310.979 18.889L311.491 19.7482L312.003 20.6073L342.054 2.70889L341.542 1.84973Z" fill="#262626" mask="url(#path-9-outside-5_436_150)"/>
<mask id="path-11-outside-6_436_150" maskUnits="userSpaceOnUse" x="387.595" y="121.333" width="73" height="71" fill="black">
<rect fill="white" x="387.595" y="121.333" width="73" height="71"/>
<path d="M442.974 188.303L429.592 190.751L427.173 184.265L451.304 174.092L442.974 188.303ZM451.302 174.092L427.171 184.265L423.591 162.926V162.927L427.171 184.265L412.54 176.462L402.954 181.505L404.739 170.24L412.54 176.461V176.46L404.739 170.24L423.589 162.925L423.591 162.924L451.302 174.092ZM402.953 181.505L390.595 180.784L404.737 170.24L402.953 181.505ZM417.133 165.42L404.736 170.238L404.737 170.239L390.595 180.783L392.174 161.93L392.173 161.929L408.257 155.306L417.133 165.42ZM449.117 158.164H449.116L451.302 174.091L423.591 162.923L417.135 165.42L408.259 155.306L421.036 148.869L438.129 154.835L442.816 143.972L449.117 158.164ZM435.608 160.68L424.573 162.74L444.49 159.026L435.608 160.68ZM432.028 152.703L421.036 148.869L429.59 144.909L432.028 152.703ZM441.998 126.484L452.383 132.345L457.153 140.646L447.222 135.656L441.998 139.006V139.007L437.628 133.175L441.998 123.333V126.484ZM437.628 133.175L427.581 124.524L441.997 123.333L437.628 133.175Z"/>
</mask>
<path d="M442.974 188.303L443.154 189.287L443.605 189.204L443.836 188.809L442.974 188.303ZM429.592 190.751L428.655 191.101L428.948 191.886L429.772 191.735L429.592 190.751ZM427.173 184.265L426.784 183.344L425.901 183.716L426.236 184.614L427.173 184.265ZM451.304 174.092L452.166 174.598L453.688 172.002L450.915 173.171L451.304 174.092ZM451.302 174.092L451.69 175.014L453.925 174.071L451.676 173.165L451.302 174.092ZM427.171 184.265L426.7 185.147L427.121 185.371L427.559 185.186L427.171 184.265ZM423.591 162.926L424.577 162.761L422.591 162.926H423.591ZM423.591 162.927H422.591V163.01L422.605 163.093L423.591 162.927ZM412.54 176.462L413.011 175.58L412.543 175.331L412.074 175.577L412.54 176.462ZM402.954 181.505L401.966 181.349L401.654 183.319L403.42 182.39L402.954 181.505ZM404.739 170.24L404.377 169.307L403.842 169.515L403.752 170.083L404.739 170.24ZM412.54 176.461L411.916 177.243L413.54 178.538V176.461H412.54ZM412.54 176.46H413.54V175.979L413.163 175.678L412.54 176.46ZM423.589 162.925L423.951 163.857L423.994 163.841L424.036 163.82L423.589 162.925ZM423.591 162.924L423.965 161.997L423.547 161.828L423.144 162.03L423.591 162.924ZM402.953 181.505L402.895 182.504L403.799 182.556L403.941 181.662L402.953 181.505ZM390.595 180.784L389.997 179.982L387.797 181.622L390.536 181.782L390.595 180.784ZM404.737 170.24L405.725 170.396L406.109 167.969L404.14 169.438L404.737 170.24ZM417.133 165.42L417.495 166.352L418.827 165.835L417.884 164.761L417.133 165.42ZM404.736 170.238L404.374 169.306L402.945 169.861L404.029 170.945L404.736 170.238ZM404.737 170.239L405.335 171.04L406.262 170.349L405.444 169.532L404.737 170.239ZM390.595 180.783L389.598 180.699L389.413 182.911L391.192 181.584L390.595 180.783ZM392.174 161.93L393.17 162.014L393.209 161.551L392.881 161.223L392.174 161.93ZM392.173 161.929L391.792 161.004L390.405 161.576L391.466 162.636L392.173 161.929ZM408.257 155.306L409.008 154.646L408.537 154.109L407.876 154.381L408.257 155.306ZM449.117 158.164V159.164H450.655L450.031 157.759L449.117 158.164ZM449.116 158.164V157.164H447.97L448.125 158.3L449.116 158.164ZM451.302 174.091L450.928 175.019L452.527 175.663L452.292 173.955L451.302 174.091ZM423.591 162.923L423.965 161.996L423.598 161.848L423.23 161.991L423.591 162.923ZM417.135 165.42L416.383 166.08L416.844 166.605L417.495 166.353L417.135 165.42ZM408.259 155.306L407.809 154.413L406.655 154.994L407.507 155.966L408.259 155.306ZM421.036 148.869L420.616 147.961L420.601 147.968L420.586 147.975L421.036 148.869ZM438.129 154.835L437.799 155.779L438.678 156.086L439.047 155.232L438.129 154.835ZM442.816 143.972L443.73 143.566L442.803 141.478L441.898 143.576L442.816 143.972ZM435.608 160.68L435.425 159.697L435.425 159.697L435.608 160.68ZM424.573 162.74L424.39 161.757L424.757 163.723L424.573 162.74ZM444.49 159.026L444.674 160.009L444.307 158.043L444.49 159.026ZM432.028 152.703L431.699 153.647L433.576 154.302L432.983 152.404L432.028 152.703ZM429.59 144.909L430.544 144.61L430.204 143.522L429.17 144.001L429.59 144.909ZM441.998 126.484H440.998V127.068L441.507 127.355L441.998 126.484ZM452.383 132.345L453.25 131.847L453.113 131.609L452.874 131.474L452.383 132.345ZM457.153 140.646L456.704 141.539L459.679 143.034L458.02 140.148L457.153 140.646ZM447.222 135.656L447.671 134.762L447.161 134.506L446.682 134.814L447.222 135.656ZM441.998 139.006L441.458 138.165L440.998 138.46V139.006H441.998ZM441.998 139.007L441.198 139.607L442.998 142.009V139.007H441.998ZM441.998 123.333H442.998L441.084 122.928L441.998 123.333ZM427.581 124.524L427.499 123.527L425.119 123.724L426.929 125.282L427.581 124.524ZM441.997 123.333L442.911 123.739L443.595 122.198L441.915 122.337L441.997 123.333ZM442.974 188.303L442.794 187.319L429.412 189.768L429.592 190.751L429.772 191.735L443.154 189.287L442.974 188.303ZM429.592 190.751L430.529 190.402L428.11 183.916L427.173 184.265L426.236 184.614L428.655 191.101L429.592 190.751ZM427.173 184.265L427.561 185.186L451.692 175.014L451.304 174.092L450.915 173.171L426.784 183.344L427.173 184.265ZM451.304 174.092L450.441 173.586L442.111 187.797L442.974 188.303L443.836 188.809L452.166 174.598L451.304 174.092ZM451.302 174.092L450.913 173.171L426.782 183.344L427.171 184.265L427.559 185.186L451.69 175.014L451.302 174.092ZM427.171 184.265L428.157 184.1L424.577 162.761L423.591 162.926L422.605 163.092L426.185 184.43L427.171 184.265ZM423.591 162.926H422.591V162.927H423.591H424.591V162.926H423.591ZM423.591 162.927L422.605 163.093L426.185 184.43L427.171 184.265L428.157 184.1L424.577 162.762L423.591 162.927ZM427.171 184.265L427.641 183.383L413.011 175.58L412.54 176.462L412.069 177.345L426.7 185.147L427.171 184.265ZM412.54 176.462L412.074 175.577L402.489 180.62L402.954 181.505L403.42 182.39L413.006 177.347L412.54 176.462ZM402.954 181.505L403.942 181.662L405.727 170.396L404.739 170.24L403.752 170.083L401.966 181.349L402.954 181.505ZM404.739 170.24L404.116 171.021L411.916 177.243L412.54 176.461L413.164 175.68L405.363 169.458L404.739 170.24ZM412.54 176.461H413.54V176.46H412.54H411.54V176.461H412.54ZM412.54 176.46L413.163 175.678L405.363 169.458L404.739 170.24L404.116 171.021L411.917 177.242L412.54 176.46ZM404.739 170.24L405.101 171.172L423.951 163.857L423.589 162.925L423.227 161.993L404.377 169.307L404.739 170.24ZM423.589 162.925L424.036 163.82L424.038 163.819L423.591 162.924L423.144 162.03L423.142 162.031L423.589 162.925ZM423.591 162.924L423.217 163.852L450.928 175.02L451.302 174.092L451.676 173.165L423.965 161.997L423.591 162.924ZM402.953 181.505L403.011 180.507L390.653 179.785L390.595 180.784L390.536 181.782L402.895 182.504L402.953 181.505ZM390.595 180.784L391.192 181.585L405.335 171.041L404.737 170.24L404.14 169.438L389.997 179.982L390.595 180.784ZM404.737 170.24L403.75 170.083L401.965 181.349L402.953 181.505L403.941 181.662L405.725 170.396L404.737 170.24ZM417.133 165.42L416.771 164.488L404.374 169.306L404.736 170.238L405.099 171.17L417.495 166.352L417.133 165.42ZM404.736 170.238L404.029 170.945L404.03 170.946L404.737 170.239L405.444 169.532L405.443 169.531L404.736 170.238ZM404.737 170.239L404.14 169.437L389.997 179.981L390.595 180.783L391.192 181.584L405.335 171.04L404.737 170.239ZM390.595 180.783L391.591 180.866L393.17 162.014L392.174 161.93L391.177 161.847L389.598 180.699L390.595 180.783ZM392.174 161.93L392.881 161.223L392.88 161.222L392.173 161.929L391.466 162.636L391.467 162.637L392.174 161.93ZM392.173 161.929L392.554 162.854L408.638 156.231L408.257 155.306L407.876 154.381L391.792 161.004L392.173 161.929ZM408.257 155.306L407.505 155.966L416.381 166.08L417.133 165.42L417.884 164.761L409.008 154.646L408.257 155.306ZM449.117 158.164V157.164H449.116V158.164V159.164H449.117V158.164ZM449.116 158.164L448.125 158.3L450.311 174.227L451.302 174.091L452.292 173.955L450.107 158.028L449.116 158.164ZM451.302 174.091L451.676 173.164L423.965 161.996L423.591 162.923L423.217 163.851L450.928 175.019L451.302 174.091ZM423.591 162.923L423.23 161.991L416.774 164.488L417.135 165.42L417.495 166.353L423.952 163.856L423.591 162.923ZM417.135 165.42L417.886 164.761L409.01 154.646L408.259 155.306L407.507 155.966L416.383 166.08L417.135 165.42ZM408.259 155.306L408.709 156.199L421.486 149.762L421.036 148.869L420.586 147.975L407.809 154.413L408.259 155.306ZM421.036 148.869L420.707 149.813L437.799 155.779L438.129 154.835L438.458 153.891L421.366 147.924L421.036 148.869ZM438.129 154.835L439.047 155.232L443.735 144.368L442.816 143.972L441.898 143.576L437.211 154.439L438.129 154.835ZM442.816 143.972L441.902 144.378L448.203 158.57L449.117 158.164L450.031 157.759L443.73 143.566L442.816 143.972ZM435.608 160.68L435.425 159.697L424.39 161.757L424.573 162.74L424.757 163.723L435.792 161.663L435.608 160.68ZM424.573 162.74L424.757 163.723L444.674 160.009L444.49 159.026L444.307 158.043L424.39 161.757L424.573 162.74ZM444.49 159.026L444.307 158.043L435.425 159.697L435.608 160.68L435.791 161.663L444.673 160.009L444.49 159.026ZM432.028 152.703L432.358 151.758L421.365 147.924L421.036 148.869L420.707 149.813L431.699 153.647L432.028 152.703ZM421.036 148.869L421.456 149.776L430.01 145.816L429.59 144.909L429.17 144.001L420.616 147.961L421.036 148.869ZM429.59 144.909L428.635 145.207L431.074 153.001L432.028 152.703L432.983 152.404L430.544 144.61L429.59 144.909ZM441.998 126.484L441.507 127.355L451.891 133.216L452.383 132.345L452.874 131.474L442.49 125.613L441.998 126.484ZM452.383 132.345L451.516 132.843L456.286 141.144L457.153 140.646L458.02 140.148L453.25 131.847L452.383 132.345ZM457.153 140.646L457.602 139.752L447.671 134.762L447.222 135.656L446.773 136.549L456.704 141.539L457.153 140.646ZM447.222 135.656L446.682 134.814L441.458 138.165L441.998 139.006L442.538 139.848L447.762 136.497L447.222 135.656ZM441.998 139.006H440.998V139.007H441.998H442.998V139.006H441.998ZM441.998 139.007L442.798 138.408L438.428 132.576L437.628 133.175L436.828 133.775L441.198 139.607L441.998 139.007ZM437.628 133.175L438.542 133.581L442.912 123.739L441.998 123.333L441.084 122.928L436.714 132.769L437.628 133.175ZM441.998 123.333H440.998V126.484H441.998H442.998V123.333H441.998ZM437.628 133.175L438.28 132.417L428.234 123.766L427.581 124.524L426.929 125.282L436.975 133.933L437.628 133.175ZM427.581 124.524L427.663 125.52L442.079 124.33L441.997 123.333L441.915 122.337L427.499 123.527L427.581 124.524ZM441.997 123.333L441.083 122.928L436.714 132.769L437.628 133.175L438.542 133.581L442.911 123.739L441.997 123.333Z" fill="#262626" mask="url(#path-11-outside-6_436_150)"/>
<path d="M183.065 9.52454L183.205 9.79407L186.899 16.8966L187.008 17.1046L186.917 17.3204L181.145 31.0675L181.07 31.2433L180.898 31.3253L169.973 36.5187L167.51 41.631L167.179 42.3165L166.681 41.7404L159.753 33.7208L159.685 33.6427L159.654 33.5431L155.801 21.1749L146.33 17.5948L145.119 17.1368L146.323 16.6622L164.335 9.55969L164.424 9.52454H183.065Z" fill="#262626" stroke="#262626"/>
</svg>
