<svg width="454" height="219" viewBox="0 0 454 219" fill="none" xmlns="http://www.w3.org/2000/svg">
<path d="M113.515 104.092L131.755 115.358H113.018L113.515 104.092Z" fill="#787A7A"/>
<path d="M125.278 218.982L112.617 214.632L121.415 210.574L125.278 218.982Z" fill="#787A7A"/>
<path d="M125.277 218.981H131.968L123.346 214.778L125.277 218.981Z" fill="#787A7A"/>
<path d="M121.417 210.574L106.182 201.425L112.619 214.632L121.417 210.574Z" fill="#787A7A"/>
<path d="M117.964 208.497L120.851 192.881L106.182 201.425L117.964 208.497Z" fill="#787A7A"/>
<path d="M120.847 192.881L102.969 179.177L107.992 200.372L120.847 192.881Z" fill="#787A7A"/>
<path d="M117.765 190.52L138.141 169.004L104.461 170.779L102.969 179.177L117.765 190.52Z" fill="#787A7A"/>
<path d="M138.144 169.004L129.532 150.013L100.904 157.319L104.464 170.779L138.144 169.004Z" fill="#787A7A"/>
<path d="M129.531 150.013L136.427 124.497L90.4668 146.404L100.903 157.319L129.531 150.013Z" fill="#787A7A"/>
<path d="M136.425 124.497L152.363 143.439L149.3 150.559L129.529 150.013L136.425 124.497Z" fill="#787A7A"/>
<path d="M129.529 150.013L138.142 169.004L146.832 159.513L149.3 150.559L129.529 150.013Z" fill="#787A7A"/>
<path d="M152.363 143.439L161.161 133.353L136.426 124.497L152.363 143.439Z" fill="#787A7A"/>
<path d="M90.4668 146.404V122.585L113.018 115.358L136.427 124.497L90.4668 146.404Z" fill="#787A7A"/>
<path d="M90.4661 122.585L77.0156 108.988L113.514 104.092L113.017 115.358L90.4661 122.585Z" fill="#787A7A"/>
<path d="M131.755 115.358L136.427 124.497L113.018 115.358H131.755Z" fill="#787A7A"/>
<path d="M77.0156 108.989L79.6296 136.075L90.4661 122.585L77.0156 108.989Z" fill="#787A7A"/>
<path d="M79.6309 136.075L90.4673 146.404V122.585L79.6309 136.075Z" fill="#787A7A"/>
<path d="M77.0175 108.989L59.2266 96.3286L91.375 107.068L77.0175 108.989Z" fill="#262626"/>
<path d="M77.0175 102.268L71.2432 87.7253L59.2266 96.3282L77.0175 102.268Z" fill="#262626"/>
<path d="M71.2425 87.7256L40.9375 84.7117L62.7762 93.7924L71.2425 87.7256Z" fill="#262626"/>
<path d="M57.2458 91.4905L47.8529 95.0019L40.9375 84.7117L57.2458 91.4905Z" fill="#262626"/>
<path d="M56.757 86.2819L33.6211 54.9528L40.9364 84.7115L56.757 86.2819Z" fill="#262626"/>
<path d="M53.8407 82.3414L70.5001 65.2332L33.6211 54.9528L53.8407 82.3414Z" fill="#262626"/>
<path d="M70.4986 65.2334L32.3418 25.8281L33.6195 54.9529L70.4986 65.2334Z" fill="#262626"/>
<path d="M39.0543 77.0548L27.4863 65.9258L33.6214 54.9528L39.0543 77.0548Z" fill="#262626"/>
<path d="M27.4863 65.9258L32.8314 36.8401L33.6214 54.9528L27.4863 65.9258Z" fill="#262626"/>
<path d="M32.3418 25.8281L49.0403 8.74927L52.9418 47.0914L32.3418 25.8281Z" fill="#262626"/>
<path d="M49.043 8.74895L15.3242 8.18323L34.8025 23.3113L49.043 8.74895Z" fill="#262626"/>
<path d="M29.5135 19.1952L14.9316 23.3113L15.3218 8.18323L29.5135 19.1952Z" fill="#262626"/>
<path d="M14.933 23.3116L0 19.1565L14.933 14.9038V23.3116Z" fill="#262626"/>
<path d="M70.5 65.2334L85.6281 73.6412L102.834 50.7003L70.5 65.2334Z" fill="#262626"/>
<path d="M64.6973 71.1926L85.6289 73.6408L70.5008 65.233L64.6973 71.1926Z" fill="#262626"/>
<path d="M102.834 50.6999L73.5627 39.0344L70.5 65.2331L102.834 50.6999Z" fill="#262626"/>
<path d="M73.5628 39.0344L52.9434 47.091L70.5002 65.2331L73.5628 39.0344Z" fill="#262626"/>
<path d="M73.564 39.0347L49.043 8.74927L52.9445 47.0914L73.564 39.0347Z" fill="#262626"/>
<path d="M49.043 8.74925L71.8863 5.01355L73.564 39.0347L49.043 8.74925Z" fill="#262626"/>
<path d="M73.5624 39.0347L92.5042 23.5945L71.8848 5.01355L73.5624 39.0347Z" fill="#262626"/>
<path d="M92.5049 23.5946L99.4691 3.93103L78.8301 11.2756L92.5049 23.5946Z" fill="#262626"/>
<path d="M94.6504 17.5083L112.607 14.2115L99.4688 3.93103L94.6504 17.5083Z" fill="#262626"/>
<path d="M112.607 14.211L125.375 2.7406L104.414 7.80281L112.607 14.211Z" fill="#262626"/>
<path d="M119.746 7.79306L139.829 9.61701L125.374 2.7406L119.746 7.79306Z" fill="#262626"/>
<path d="M130.281 8.74927L133.188 17.5082L139.83 9.61735L130.281 8.74927Z" fill="#262626"/>
<path d="M133.188 17.5079L124.039 15.4987L131.52 12.4847L133.188 17.5079Z" fill="#262626"/>
<path d="M107.389 7.09095L106.385 0.663208L112.608 5.83271L107.389 7.09095Z" fill="#262626"/>
<path d="M106.385 0.663208L114.9 1.4045L110.647 4.20383L106.385 0.663208Z" fill="#262626"/>
<path d="M95.4897 5.34507L81.3078 0L77.4062 9.99762L78.8303 11.2754L95.4897 5.34507Z" fill="#262626"/>
<path d="M92.5043 23.5946L102.834 50.7003L73.5625 39.0348L92.5043 23.5946Z" fill="#262626"/>
<path d="M102.833 50.7003L124.038 45.5308L92.5039 23.5946L102.833 50.7003Z" fill="#262626"/>
<path d="M124.039 45.5305L131.598 30.0317L106.385 33.2505L124.039 45.5305Z" fill="#262626"/>
<path d="M112.578 32.4609L119.747 18.7666L131.598 30.0322L112.578 32.4609Z" fill="#262626"/>
<path d="M119.746 18.7666L139.215 27.9254L131.597 30.0322L119.746 18.7666Z" fill="#262626"/>
<path d="M139.214 27.9249L127.49 38.459L131.597 30.0317L139.214 27.9249Z" fill="#262626"/>
<path d="M135.87 30.9292L140.991 41.5998L130.281 35.9524L135.87 30.9292Z" fill="#262626"/>
<path d="M191.291 56.406L201.162 45.5305L197.865 60.0832L191.291 56.406Z" fill="#262626"/>
<path d="M187.785 50.0577L190.399 62.445L197.915 60.0599L191.316 56.3977L187.785 50.0577Z" fill="#262626"/>
<path d="M199.123 54.5236L220.698 45.7061L208.848 34.0309L201.162 45.5306L199.123 54.5236Z" fill="#262626"/>
<path d="M201.162 45.5306L194.471 39.376L208.848 34.0309L201.162 45.5306Z" fill="#262626"/>
<path d="M197.865 49.1588L187.76 50.0659L191.291 56.4059L197.865 49.1588Z" fill="#262626"/>
<path d="M194.471 39.3757L199.123 47.7737L201.162 45.5304L194.471 39.3757Z" fill="#262626"/>
<path d="M196.52 35.5131L203.581 34.0305L196.52 24.1987V35.5131Z" fill="#262626"/>
<path d="M196.519 35.5131L194.578 28.0125L196.519 24.1987V35.5131Z" fill="#262626"/>
<path d="M193.155 34.0307V29.144L188.561 31.0655L193.155 34.0307Z" fill="#262626"/>
<path d="M193.155 34.0308L188.561 35.1135V31.0657L193.155 34.0308Z" fill="#262626"/>
<path d="M220.699 45.7059L234.237 51.724L232.462 28.8417L220.699 45.7059Z" fill="#262626"/>
<path d="M220.699 45.7059L208.848 34.0307L232.462 28.8417L220.699 45.7059Z" fill="#262626"/>
<path d="M220.7 45.7059L224.279 50.8949L220.651 51.724L216.271 47.4031L220.7 45.7059Z" fill="#262626"/>
<path d="M220.65 51.7242L226.825 56.406L224.279 50.8951L220.65 51.7242Z" fill="#262626"/>
<path d="M226.825 56.406L229.342 55.694L224.279 50.8951L226.825 56.406Z" fill="#262626"/>
<path d="M229.34 55.6938L225.877 58.8736L226.823 56.4059L229.34 55.6938Z" fill="#262626"/>
<path d="M225.879 58.8737L225.762 55.5964L226.825 56.406L225.879 58.8737Z" fill="#262626"/>
<path d="M234.236 51.7239L236.606 59.7415L240.567 52.8065L234.236 51.7239Z" fill="#262626"/>
<path d="M236.607 59.742L231.389 50.4564L234.237 51.7244L236.607 59.742Z" fill="#262626"/>
<path d="M232.461 28.842L242.283 21.2438L247.14 41.6779L232.461 28.842Z" fill="#262626"/>
<path d="M247.14 41.6776L234.236 51.724L232.461 28.8417L247.14 41.6776Z" fill="#262626"/>
<path d="M240.567 52.8068L247.141 41.6777L234.236 51.7241L240.567 52.8068Z" fill="#262626"/>
<path d="M240.566 52.8068L256.28 60.7366L247.14 41.6777L240.566 52.8068Z" fill="#262626"/>
<path d="M242.284 21.2436L253.998 9.76339L234.93 5.81311L242.284 21.2436Z" fill="#262626"/>
<path d="M234.93 5.81311L220.699 11.1192L238.607 13.5283L234.93 5.81311Z" fill="#262626"/>
<path d="M220.699 11.1191L210.506 20.99L226.287 18.4637L232.315 12.6797L220.699 11.1191Z" fill="#262626"/>
<path d="M210.506 20.9901L221.411 27.213L226.287 18.4639L210.506 20.9901Z" fill="#262626"/>
<path d="M256.282 60.7367L267.655 48.7103L256.282 34.0309L247.143 41.6778L256.282 60.7367Z" fill="#262626"/>
<path d="M266.347 67.5549L273.682 58.0644L267.654 48.7106L256.281 60.737L266.347 67.5549Z" fill="#262626"/>
<path d="M228.803 175.392L254.163 170.779L238.088 148.189L228.803 175.392Z" fill="#787A7A"/>
<path d="M228.803 175.392L236.108 182.981L254.163 170.779L228.803 175.392Z" fill="#787A7A"/>
<path d="M228.805 175.392L217.725 150.559L238.09 148.189L228.805 175.392Z" fill="#787A7A"/>
<path d="M217.725 150.559L221.88 133.149H234.93L238.09 148.189L217.725 150.559Z" fill="#787A7A"/>
<path d="M254.162 170.779L265.808 133.558L238.088 148.189L254.162 170.779Z" fill="#787A7A"/>
<path d="M265.81 133.559L251.95 114.373L234.93 133.149L238.09 148.189L265.81 133.559Z" fill="#787A7A"/>
<path d="M221.878 133.149L212.777 114.373L234.928 109.808V133.149H221.878Z" fill="#787A7A"/>
<path d="M212.777 114.373L185.486 110.832L209.022 96.3286L212.777 114.373Z" fill="#787A7A"/>
<path d="M185.487 110.832L171.51 95.002L209.023 96.3285L185.487 110.832Z" fill="#787A7A"/>
<path d="M171.51 95.002L182.717 72.0514L209.023 96.3285L171.51 95.002Z" fill="#787A7A"/>
<path d="M209.023 96.3284L231.174 83.3267L234.929 109.808L212.779 114.373L209.023 96.3284Z" fill="#787A7A"/>
<path d="M234.93 109.808L251.95 114.373L234.93 133.149V109.808Z" fill="#787A7A"/>
<path d="M265.809 133.559L286.741 105.351L251.949 114.373L265.809 133.559Z" fill="#787A7A"/>
<path d="M286.741 105.351L256.28 95.002L251.949 114.373L286.741 105.351Z" fill="#787A7A"/>
<path d="M231.174 83.3267L256.28 95.0019L251.949 114.373L234.929 109.808L231.174 83.3267Z" fill="#787A7A"/>
<path d="M182.717 72.0511L212.778 63.0679L209.023 96.3282L182.717 72.0511Z" fill="#787A7A"/>
<path d="M212.779 63.0679L231.174 83.3265L209.023 96.3282L212.779 63.0679Z" fill="#787A7A"/>
<path d="M269.341 99.4397L252.936 70.5198L256.281 95.0017L269.341 99.4397Z" fill="#787A7A"/>
<path d="M252.934 70.5198L231.174 83.3265L256.28 95.0017L252.934 70.5198Z" fill="#787A7A"/>
<path d="M252.934 70.5198L231.174 72.0511V83.3265L252.934 70.5198Z" fill="#787A7A"/>
<path d="M231.173 72.0511L212.777 63.0679L231.173 83.3265V72.0511Z" fill="#787A7A"/>
<path d="M281.366 146.414L272.002 153.827L279.522 156.49L281.366 146.414Z" fill="#787A7A"/>
<path d="M272.002 153.827L275.806 167.014L279.522 156.49L272.002 153.827Z" fill="#787A7A"/>
<path d="M275.807 167.014L282.585 158.275L279.523 156.49L275.807 167.014Z" fill="#787A7A"/>
<path d="M282.586 158.275L281.367 146.414L279.523 156.49L282.586 158.275Z" fill="#787A7A"/>
<path d="M256.281 60.7368L252.936 70.5199L266.347 67.5547L256.281 60.7368Z" fill="#787A7A"/>
<path d="M256.281 76.421L266.347 67.5548L252.936 70.52L256.281 76.421Z" fill="#787A7A"/>
<path d="M302.561 85.6964L281.893 73.2018L296.494 89.315L302.561 85.6964Z" fill="#787A7A"/>
<path d="M281.893 73.2018L308.472 79.7758L302.561 85.6964L281.893 73.2018Z" fill="#787A7A"/>
<path d="M296.495 89.315L275.066 99.4394L281.894 73.2018L296.495 89.315Z" fill="#787A7A"/>
<path d="M275.068 99.4394L262.223 79.6978L281.896 73.2018L275.068 99.4394Z" fill="#787A7A"/>
<path d="M262.221 79.6983L260.543 72.6658L266.346 67.5548L281.894 73.2022L262.221 79.6983Z" fill="#787A7A"/>
<path d="M253.997 9.76355L256.28 34.0309L247.141 41.6779L242.283 21.2437L253.997 9.76355Z" fill="#787A7A"/>
<path d="M273.681 58.0643L298.504 63.068L281.893 73.2022L266.346 67.5547L273.681 58.0643Z" fill="#787A7A"/>
<path d="M298.503 63.0677L308.472 79.776L281.893 73.2019L298.503 63.0677Z" fill="#787A7A"/>
<path d="M254.592 16.0545L282.419 8.10522L268.51 30.1488L256.279 34.0308L254.592 16.0545Z" fill="#787A7A"/>
<path d="M268.512 30.1487L280.217 39.3758L267.654 48.7101L256.281 34.0307L268.512 30.1487Z" fill="#787A7A"/>
<path d="M280.217 39.3759L273.682 58.0641L267.654 48.7102L280.217 39.3759Z" fill="#787A7A"/>
<path d="M308.473 79.7761L327.083 89.3153L339.236 62.4534L308.473 79.7761Z" fill="#787A7A"/>
<path d="M327.082 89.3153L325.834 101.654L334.729 99.4397L327.082 89.3153Z" fill="#787A7A"/>
<path d="M325.834 101.654L333.081 109.379L334.729 99.4397L325.834 101.654Z" fill="#787A7A"/>
<path d="M334.731 99.4399L343.539 85.3555L327.084 89.3155L334.731 99.4399Z" fill="#787A7A"/>
<path d="M343.539 85.3552L339.237 62.4534L327.084 89.3153L343.539 85.3552Z" fill="#787A7A"/>
<path d="M339.236 62.4534L316.305 42.5557L308.473 79.7761L339.236 62.4534Z" fill="#787A7A"/>
<path d="M298.506 63.0679L316.306 42.5557L308.474 79.7761L298.506 63.0679Z" fill="#787A7A"/>
<path d="M280.217 39.3759L298.505 63.0678L273.682 58.0641L280.217 39.3759Z" fill="#787A7A"/>
<path d="M280.215 39.3759L316.304 42.5556L298.503 63.0678L280.215 39.3759Z" fill="#787A7A"/>
<path d="M282.421 8.10522L307.8 18.4637L268.512 30.1488L282.421 8.10522Z" fill="#787A7A"/>
<path d="M307.8 18.4637L337.852 0.565552L288.156 10.4364L307.8 18.4637Z" fill="#787A7A"/>
<path d="M337.852 0.565552L376.76 31.0656L307.801 18.4637L337.852 0.565552Z" fill="#787A7A"/>
<path d="M307.8 18.464L280.216 39.3761L268.512 30.149L307.8 18.464Z" fill="#787A7A"/>
<path d="M316.304 42.5558L307.799 18.464L280.215 39.3761L316.304 42.5558Z" fill="#787A7A"/>
<path d="M316.305 42.5555L349.126 40.2828L339.236 62.4532L316.305 42.5555Z" fill="#787A7A"/>
<path d="M349.128 40.2832L307.801 18.464L316.306 42.5558L349.128 40.2832Z" fill="#787A7A"/>
<path d="M349.128 40.2832L376.76 31.0659L307.801 18.464L349.128 40.2832Z" fill="#787A7A"/>
<path d="M343.538 85.3552L368.898 76.4208L356.218 63.6823L339.236 62.4534L343.538 85.3552Z" fill="#787A7A"/>
<path d="M368.898 76.4209L389.752 84.6141L391.147 61.166L368.898 76.4209Z" fill="#787A7A"/>
<path d="M356.217 63.6825L391.145 61.166L368.897 76.4209L356.217 63.6825Z" fill="#787A7A"/>
<path d="M356.218 63.6821L349.127 40.2828L339.236 62.4532L356.218 63.6821Z" fill="#787A7A"/>
<path d="M356.218 63.6824L376.759 31.0658L349.127 40.2831L356.218 63.6824Z" fill="#787A7A"/>
<path d="M391.145 61.1659L376.758 31.0658L356.217 63.6824L391.145 61.1659Z" fill="#787A7A"/>
<path d="M345.127 6.27161L402.869 7.13969L376.758 31.0657L345.127 6.27161Z" fill="#787A7A"/>
<path d="M402.869 7.13965L424.581 20.0927L397.778 22.6579L393.398 15.8205L402.869 7.13965Z" fill="#787A7A"/>
<path d="M424.582 20.093L442.021 12.0851L409.707 11.217L424.582 20.093Z" fill="#787A7A"/>
<path d="M397.779 22.658L392.483 36.8594L376.76 31.0657L393.4 15.8206L397.779 22.658Z" fill="#787A7A"/>
<path d="M392.483 36.8595L401.681 50.0564L391.147 61.1659L376.76 31.0658L392.483 36.8595Z" fill="#787A7A"/>
<path d="M401.68 50.0562L409.708 39.3759L392.482 36.8594L401.68 50.0562Z" fill="#787A7A"/>
<path d="M395.565 28.6075L409.708 39.3757L392.482 36.8592L395.565 28.6075Z" fill="#787A7A"/>
<path d="M389.751 84.6139L363.26 95.4894L368.897 76.4208L389.751 84.6139Z" fill="#787A7A"/>
<path d="M363.261 95.4894L349.732 83.1704L368.899 76.4208L363.261 95.4894Z" fill="#787A7A"/>
<path d="M376.759 89.9395L382.923 104.034L373.687 107.155L363.26 95.4893L376.759 89.9395Z" fill="#787A7A"/>
<path d="M373.685 107.155L372.739 119.513L368.77 101.654L373.685 107.155Z" fill="#787A7A"/>
<path d="M372.741 119.513L368.898 126.243L370.937 111.427L372.741 119.513Z" fill="#787A7A"/>
<path d="M368.898 126.243L380.027 133.568L372.01 120.781L368.898 126.243Z" fill="#787A7A"/>
<path d="M364.469 96.8452L365.737 109.808L370.936 111.427L368.77 101.654L364.469 96.8452Z" fill="#787A7A"/>
<path d="M386.316 127.618L395.768 129.696L390.393 118.05L386.316 127.618Z" fill="#787A7A"/>
<path d="M395.771 129.696L399.263 118.83L390.396 118.05L395.771 129.696Z" fill="#787A7A"/>
<path d="M399.263 118.83L398.18 109.808L390.396 118.05L399.263 118.83Z" fill="#787A7A"/>
<path d="M386.32 127.619L384.193 120.781L389.626 119.874L386.32 127.619Z" fill="#787A7A"/>
<path d="M386.904 179.499L388.484 160.645L401.047 168.955L386.904 179.499Z" fill="#F5F3EE"/>
<path d="M386.904 179.499L399.262 180.221L401.047 168.955L386.904 179.499Z" fill="#F5F3EE"/>
<path d="M399.262 180.221L408.85 175.178L401.047 168.955L399.262 180.221Z" fill="#F5F3EE"/>
<path d="M408.85 175.178L423.48 182.981L419.901 161.64L408.85 175.178Z" fill="#F5F3EE"/>
<path d="M401.047 168.955L419.901 161.64L408.85 175.178L401.047 168.955Z" fill="#F5F3EE"/>
<path d="M423.48 182.981L447.611 172.808L419.9 161.64L423.48 182.981Z" fill="#F5F3EE"/>
<path d="M447.611 172.807L445.426 156.879L419.9 161.639L447.611 172.807Z" fill="#F5F3EE"/>
<path d="M445.427 156.88L439.126 142.688L431.918 159.396L445.427 156.88Z" fill="#F5F3EE"/>
<path d="M434.444 153.553L417.346 147.584L419.901 161.639L431.918 159.396L434.444 153.553Z" fill="#F5F3EE"/>
<path d="M417.346 147.585L425.9 143.625L428.338 151.418L417.346 147.585Z" fill="#F5F3EE"/>
<path d="M417.346 147.584L404.568 154.021L413.444 164.136L419.901 161.639L417.346 147.584Z" fill="#F5F3EE"/>
<path d="M404.568 154.022L388.484 160.645L401.047 168.955L413.444 164.136L404.568 154.022Z" fill="#F5F3EE"/>
<path d="M423.482 182.981L425.901 189.467L439.284 187.019L423.482 182.981Z" fill="#F5F3EE"/>
<path d="M439.284 187.019L447.613 172.808L423.482 182.981L439.284 187.019Z" fill="#F5F3EE"/>
<path d="M423.891 123.239L433.937 131.891L438.307 122.049L423.891 123.239Z" fill="#F5F3EE"/>
<path d="M433.938 131.891L438.307 137.723V122.049L433.938 131.891Z" fill="#F5F3EE"/>
<path d="M438.307 137.723L448.694 131.061L438.307 125.199V137.723Z" fill="#F5F3EE"/>
<path d="M448.693 131.061L453.463 139.361L443.504 134.358L448.693 131.061Z" fill="#F5F3EE"/>
<path d="M152.515 19.5086L142.816 15.8427L160.828 8.74011H179.071L182.766 15.8427L176.993 29.5897L165.909 34.8593L163.368 40.129L156.441 32.1099L152.515 19.5086Z" fill="#262626"/>
</svg>
