<svg width="423" height="51" viewBox="0 0 423 51" fill="none" xmlns="http://www.w3.org/2000/svg">
<path d="M0 47.8767C0 47.8767 2.04651 50.12 6.23137 50.12C18.4186 50.12 22.0525 37.8016 24.978 25.47L0 25.5225V47.8767Z" fill="#CFD3D3"/>
<path d="M49.9433 3.06329C49.9433 3.06329 47.8968 0.820002 43.7119 0.820002C31.5246 0.820002 27.8908 13.1384 24.9653 25.47L49.9433 25.4175V3.06329Z" fill="#F5F3EE"/>
<path d="M11.7418 15.5129C15.7991 15.5129 19.0882 12.2238 19.0882 8.16645C19.0882 4.10911 15.7991 0.820002 11.7418 0.820002C7.68444 0.820002 4.39532 4.10911 4.39532 8.16645C4.39532 12.2238 7.68444 15.5129 11.7418 15.5129Z" fill="#E2C641"/>
<path d="M73.9432 0.91H93.3132C103.273 0.91 110.083 8.14 110.083 17.19C110.083 26.24 103.273 33.54 93.3132 33.54H84.7532V50.03H73.9432V0.91ZM92.6832 23.44C96.3332 23.44 99.1432 20.84 99.1432 17.19C99.1432 13.54 96.3332 10.94 92.6832 10.94H84.7532V23.43H92.6832V23.44Z" fill="#F5F3EE"/>
<path d="M121.663 0.91H142.783L155.693 50.03H144.393L142.003 40.63H122.353L119.963 50.03H108.663L121.663 0.91ZM139.413 30.38L132.183 2.03L124.953 30.38H139.413Z" fill="#F5F3EE"/>
<path d="M160.963 0.91H182.993C192.533 0.91 197.803 6.59 197.803 13.19C197.803 18.73 193.943 24 184.893 24.07C193.173 24.77 197.383 29.12 197.383 36.98V50.03H186.503V39.78C186.503 36.41 184.323 33.82 179.973 33.82H171.763V50.03H160.953V0.91H160.963ZM180.403 23.72C183.983 23.72 186.793 20.91 186.793 17.33C186.793 13.75 183.983 11.01 180.403 11.01H171.773V23.71H180.403V23.72Z" fill="#F5F3EE"/>
<path d="M214.643 0.91H235.763L248.673 50.03H237.373L234.983 40.63H215.333L212.943 50.03H201.643L214.623 0.91H214.643ZM232.393 30.38L225.163 2.03L217.933 30.38H232.393Z" fill="#F5F3EE"/>
<path d="M253.943 0.91H275.343C284.253 0.91 289.233 5.12 289.233 11.65C289.233 15.58 286.563 20.77 278.843 21.05C286.213 22.31 290.563 27.58 290.563 34.73C290.563 43.43 285.023 50.03 274.143 50.03H253.933V0.91H253.943ZM272.963 20.49C275.983 20.49 277.943 18.17 277.943 15.72C277.943 13.27 276.193 10.95 272.963 10.95H264.753V20.49H272.963ZM274.223 40C277.173 40 279.343 37.68 279.343 34.74C279.343 31.8 277.163 29.62 274.223 29.62H264.753V40.01H274.223V40Z" fill="#F5F3EE"/>
<path d="M294.433 25.47C294.433 11.15 305.243 0 320.463 0C335.683 0 346.493 11.3 346.493 25.47C346.493 39.64 335.753 50.94 320.393 50.94C305.033 50.94 294.433 39.92 294.433 25.47ZM320.463 40.42C328.463 40.42 335.273 34.67 335.273 25.47C335.273 16.27 328.463 10.52 320.463 10.52C312.463 10.52 305.653 16.41 305.653 25.47C305.653 34.53 312.463 40.42 320.463 40.42Z" fill="#F5F3EE"/>
<path d="M353.173 0.91H364.053V39.93H384.963V50.04H353.173V0.91Z" fill="#F5F3EE"/>
<path d="M390.583 0.91H422.093V11.02H401.393V20.14H419.713V29.96H401.393V39.92H422.863V50.03H390.583V0.91Z" fill="#F5F3EE"/>
</svg>
