<svg width="20" height="19" viewBox="0 0 20 19" fill="none" xmlns="http://www.w3.org/2000/svg">
<path d="M9.86155 7.47624L9.35137 7.9319C9.41699 7.99738 9.49608 8.04953 9.58381 8.08518C9.67153 8.12082 9.76604 8.13921 9.86155 8.13921C9.95707 8.13921 10.0516 8.12082 10.1393 8.08518C10.227 8.04953 10.3061 7.99738 10.3717 7.9319L9.86155 7.47624ZM9.16322 11.775C8.57066 11.3273 7.99683 10.9405 7.53626 10.4433C7.10003 9.97265 6.8192 9.45164 6.8192 8.78228H5.41504C5.41504 9.85785 5.88684 10.6756 6.47846 11.3149C7.04668 11.9277 7.77497 12.4231 8.28515 12.8081L9.16322 11.775ZM6.8192 8.78228C6.8192 8.15178 7.19084 7.64844 7.65327 7.44534C8.06891 7.26343 8.68767 7.26961 9.35137 7.93102L10.3717 7.02147C9.35044 6.00331 8.09699 5.79049 7.06165 6.24438C6.07312 6.67708 5.41504 7.66698 5.41504 8.78228H6.8192ZM8.28515 12.8081C8.47237 12.9494 8.70078 13.1225 8.94042 13.2567C9.17726 13.3892 9.49273 13.5243 9.86155 13.5243V12.1997C9.855 12.1997 9.79696 12.1962 9.65655 12.1176C9.48435 12.0137 9.31955 11.8992 9.16322 11.775L8.28515 12.8081ZM11.438 12.8081C11.9481 12.4231 12.6764 11.9277 13.2447 11.3149C13.8363 10.6764 14.3081 9.85785 14.3081 8.78228H12.9039C12.9039 9.45164 12.6231 9.97265 12.1868 10.4433C11.7263 10.9405 11.1524 11.3264 10.5599 11.775L11.438 12.8081ZM14.3081 8.78228C14.3081 7.66787 13.65 6.67708 12.6615 6.24438C11.6261 5.79049 10.3727 6.00331 9.35137 7.02147L10.3717 7.93102C11.0354 7.26961 11.6542 7.26343 12.0698 7.44534C12.5323 7.64844 12.9039 8.1509 12.9039 8.78228H14.3081ZM10.5599 11.775C10.3596 11.9268 10.206 12.0399 10.0666 12.1176C9.92708 12.1953 9.86811 12.1997 9.86155 12.1997V13.5243C10.2294 13.5243 10.5458 13.3892 10.7836 13.2567C11.0223 13.1225 11.2507 12.9503 11.4389 12.8081L10.5599 11.775Z" fill="white"/>
<path d="M9.86108 0.5V2.26611M9.86108 16.395V18.1611M0.5 9.33057H2.37222M17.35 9.33057H19.2222M4.24443 14.6289L4.56552 14.326M15.1566 4.33511L15.4777 4.03223M15.4777 14.6289L15.1566 14.326M4.56552 4.33511L4.24443 4.03223" stroke="white" stroke-linecap="round"/>
</svg>
