<svg width="450" height="242" viewBox="0 0 450 242" fill="none" xmlns="http://www.w3.org/2000/svg">
<path d="M434.5 224.5C434.5 109.072 340.704 15.5 225 15.5C109.296 15.5 15.5 109.072 15.5 224.5" stroke="#F5F3EE" stroke-width="31" stroke-linecap="square"/>
<path d="M0 226.5V242H31V226.5H15.5H0ZM225.213 15.5V31C315.857 31 392.118 93.548 413.47 178.255L428.5 174.466L443.53 170.677C418.819 72.6465 330.516 0 225.213 0V15.5ZM15.5 226.5H31C31 118.439 118.041 31 225.213 31V15.5V0C100.742 0 0 101.497 0 226.5H15.5Z" fill="#D0AA71"/>
</svg>
