<svg width="282" height="282" viewBox="0 0 282 282" fill="none" xmlns="http://www.w3.org/2000/svg">
<path d="M141 0C174.573 0.000110388 207.044 11.9793 232.572 33.783C258.101 55.5867 275.012 85.7838 280.264 118.943C285.516 152.102 278.763 186.047 261.222 214.672C243.68 243.298 216.5 264.724 184.571 275.099C152.641 285.473 118.058 284.114 87.0412 271.266C56.0243 258.419 30.6095 234.925 15.368 205.012C0.126529 175.099 -3.94131 140.728 3.89614 108.084C11.7336 75.4387 30.962 46.6616 58.1228 26.9283L70.5542 44.0389C47.4676 60.8122 31.1234 85.2727 24.4615 113.021C17.7997 140.769 21.2573 169.984 34.2125 195.41C47.1678 220.836 68.7704 240.806 95.1347 251.726C121.499 262.647 150.895 263.802 178.035 254.984C205.175 246.166 228.278 227.953 243.188 203.622C258.099 179.29 263.838 150.437 259.374 122.252C254.91 94.0664 240.536 68.3988 218.836 49.8657C197.137 31.3325 169.537 21.1501 141 21.15V0Z" fill="#D0AA71"/>
<path d="M58.123 26.9283C82.2126 9.42633 111.224 -9.79047e-05 141.001 7.62638e-10V21.15C115.691 21.1498 91.0307 29.1623 70.5545 44.0389L58.123 26.9283Z" fill="#F5F3EE"/>
</svg>
