<svg width="301" height="301" viewBox="0 0 301 301" fill="none" xmlns="http://www.w3.org/2000/svg">
<path d="M150.415 0.5C186.111 0.500131 220.634 13.2368 247.776 36.4189C274.919 59.6012 292.9 91.7081 298.484 126.964C304.068 162.219 296.888 198.31 278.238 228.745C259.587 259.181 230.689 281.961 196.741 292.992C162.792 304.022 126.023 302.577 93.0449 288.917C60.067 275.258 33.045 250.279 16.8398 218.475C0.634721 186.67 -3.69037 150.126 4.64258 115.418C12.9756 80.7086 33.4198 50.1118 62.2979 29.1309L62.7021 28.8369L62.9961 29.2412L76.1699 47.373L76.4629 47.7773L76.0586 48.0713C51.6905 65.7757 34.4389 91.5942 27.4072 120.883C20.3756 150.171 24.0259 181.008 37.7002 207.846C51.3747 234.683 74.1763 255.761 102.004 267.287C129.832 278.814 160.859 280.034 189.506 270.727C218.152 261.419 242.538 242.194 258.275 216.513C274.014 190.83 280.071 160.375 275.359 130.626C270.648 100.876 255.476 73.7834 232.571 54.2217C209.668 34.6599 180.536 23.9122 150.415 23.9121H149.915V0.5H150.415Z" fill="#D0AA71" stroke="#262626"/>
<path d="M150.916 0.5V23.9121H150.416C123.701 23.9119 97.6723 32.3691 76.0596 48.0713L75.6543 48.3652L75.3604 47.9609L62.1875 29.8291L61.8936 29.4248L62.2979 29.1309C87.9106 10.5223 118.756 0.499899 150.416 0.5H150.916Z" fill="#F5F3EE" stroke="#262626"/>
</svg>
