<svg width="273" height="21" viewBox="0 0 273 21" fill="none" xmlns="http://www.w3.org/2000/svg">
<path d="M26.9499 15.1703C24.1989 15.1703 22.3125 13.1398 22.3125 10.415C22.3125 7.71637 24.2513 5.65967 26.9499 5.65967C28.928 5.65967 30.3559 6.76007 30.9716 8.20107L30.0677 8.69887C29.6616 7.59847 28.5088 6.65527 26.9499 6.65527C24.867 6.65527 23.3998 8.25347 23.3998 10.415C23.3998 12.6027 24.867 14.1747 26.9499 14.1747C28.4171 14.1747 29.7664 13.2839 30.1856 11.7643L31.1288 12.249C30.5524 13.952 28.9542 15.1703 26.9499 15.1703ZM34.8681 15.1703C33.4533 15.1703 32.5101 14.2533 32.5101 13.0612C32.5101 11.8036 33.4402 11.07 34.7109 10.939L37.1475 10.677C37.1213 9.79927 36.5056 9.09187 35.3659 9.09187C34.3441 9.09187 33.8463 9.72067 33.7022 10.3495L32.7721 10.0613C33.0472 8.93467 33.9773 8.14867 35.3659 8.14867C37.2523 8.14867 38.1824 9.39317 38.1824 10.7425V15H37.1344V12.904C37.1344 14.3188 36.165 15.1703 34.8681 15.1703ZM33.5581 13.0612C33.5581 13.821 34.2131 14.2664 35.0122 14.2664C36.5842 14.2664 37.1475 13.0481 37.1475 12.0263V11.594L34.9467 11.8298C34.0035 11.9346 33.5581 12.38 33.5581 13.0612ZM43.4566 9.09187C42.0418 9.09187 41.151 10.2447 41.151 11.6464C41.151 13.3101 42.199 14.2271 43.4828 14.2271C44.7928 14.2271 45.7884 13.1791 45.7884 11.6464C45.7884 10.0744 44.7928 9.09187 43.4566 9.09187ZM40.1423 17.751V8.31897H41.1903V10.677C41.3999 9.35387 42.199 8.14867 43.8496 8.14867C45.5657 8.14867 46.8626 9.62897 46.8626 11.6464C46.8626 13.6769 45.605 15.1703 43.8496 15.1703C42.4872 15.1703 41.3999 14.2271 41.1903 12.7468V17.751H40.1423ZM50.4627 15.1703C49.0479 15.1703 48.1047 14.2533 48.1047 13.0612C48.1047 11.8036 49.0348 11.07 50.3055 10.939L52.7421 10.677C52.7159 9.79927 52.1002 9.09187 50.9605 9.09187C49.9387 9.09187 49.4409 9.72067 49.2968 10.3495L48.3667 10.0613C48.6418 8.93467 49.5719 8.14867 50.9605 8.14867C52.8469 8.14867 53.777 9.39317 53.777 10.7425V15H52.729V12.904C52.729 14.3188 51.7596 15.1703 50.4627 15.1703ZM49.1527 13.0612C49.1527 13.821 49.8077 14.2664 50.6068 14.2664C52.1788 14.2664 52.7421 13.0481 52.7421 12.0263V11.594L50.5413 11.8298C49.5981 11.9346 49.1527 12.38 49.1527 13.0612ZM58.6583 15.1703C56.654 15.1703 55.213 13.6769 55.213 11.6595C55.213 9.64207 56.6933 8.14867 58.6583 8.14867C59.9159 8.14867 61.1473 8.76437 61.6844 10.1137L60.7936 10.5722C60.5447 9.83857 59.7587 9.11807 58.6583 9.11807C57.2697 9.11807 56.2872 10.1792 56.2872 11.6595C56.2872 13.1922 57.3221 14.2009 58.6583 14.2009C59.6277 14.2009 60.5578 13.69 60.9508 12.6027L61.8023 13.0219C61.2521 14.5546 60.0076 15.1703 58.6583 15.1703ZM63.3744 15V8.31897H64.4224V15H63.3744ZM63.3482 7.17927V5.82997H64.4486V7.17927H63.3482ZM68.6305 15C67.7135 15 67.0192 14.4367 67.0192 13.3363V9.23597H65.8664V8.31897H67.0454V6.79937H68.0672V8.31897H70.1501V9.23597H68.0672V13.3363C68.0672 13.8734 68.3816 14.083 68.7877 14.083H70.0584V15H68.6305ZM73.4181 15L71.0077 8.31897H72.1605L74.4137 14.7904L76.7848 8.31897H77.9638L74.3613 17.751H73.2478L74.3351 15H73.4181ZM86.7573 15.1703C85.1067 15.1703 84.3076 13.9651 84.098 12.642V15H83.05V5.82997H84.098V10.5722C84.3076 9.09187 85.3949 8.14867 86.7573 8.14867C88.5127 8.14867 89.7703 9.64207 89.7703 11.6726C89.7703 13.69 88.4734 15.1703 86.7573 15.1703ZM84.0587 11.6726C84.0587 13.0743 84.9495 14.2271 86.3643 14.2271C87.7005 14.2271 88.6961 13.2446 88.6961 11.6726C88.6961 10.1399 87.7005 9.09187 86.3905 9.09187C85.1067 9.09187 84.0587 10.0089 84.0587 11.6726ZM96.9466 8.31897V15H95.8986V12.9433C95.8331 13.9127 95.0864 15.1703 93.593 15.1703C92.0079 15.1703 91.2088 13.9913 91.2088 12.6551V8.31897H92.2568V12.4455C92.2568 13.6376 93.0035 14.2009 93.9598 14.2009C95.0864 14.2009 95.8986 13.3756 95.8986 12.249V8.31897H96.9466ZM98.9132 15V8.31897H99.9612V15H98.9132ZM98.887 7.17927V5.82997H99.9874V7.17927H98.887ZM101.929 15V5.82997H102.977V15H101.929ZM107.506 15.1703C105.79 15.1703 104.414 13.69 104.414 11.6726C104.414 9.64207 105.751 8.14867 107.506 8.14867C108.921 8.14867 109.877 9.09187 110.087 10.5722V5.82997H111.135V15H110.087V12.642C109.877 13.9651 109.196 15.1703 107.506 15.1703ZM105.489 11.6726C105.489 13.2446 106.484 14.2271 107.82 14.2271C109.235 14.2271 110.126 13.0743 110.126 11.6726C110.126 10.0089 109.078 9.09187 107.794 9.09187C106.484 9.09187 105.489 10.1399 105.489 11.6726ZM113.1 15V8.31897H114.148V15H113.1ZM113.074 7.17927V5.82997H114.175V7.17927H113.074ZM116.247 15V8.31897H117.295V10.3757C117.295 9.40627 118.068 8.14867 119.562 8.14867C121.147 8.14867 121.985 9.32767 121.985 10.6639V15H120.937V10.8735C120.937 9.82547 120.151 9.11807 119.195 9.11807C118.068 9.11807 117.295 9.94337 117.295 11.07V15H116.247ZM126.385 17.9213C124.499 17.9213 123.163 17.2401 123.163 16.0349C123.163 15.3013 123.7 14.6332 124.918 14.6332H125.115C124.263 14.5153 123.923 14.0961 123.923 13.6114C123.923 13.1398 124.329 12.6813 125.154 12.6551C124.289 12.3014 123.739 11.5285 123.739 10.5067C123.739 9.06567 124.879 8.14867 126.346 8.14867C126.87 8.14867 127.368 8.31897 127.577 8.42377L129.726 8.18797V9.23597H127.368C128.494 9.34077 128.887 10.1137 128.887 10.7556C128.887 12.0525 127.748 12.8778 126.346 12.8778C125.94 12.8778 125.56 12.8123 125.219 12.6813C125.049 12.7992 124.931 13.0088 124.931 13.2184C124.931 13.5983 125.298 13.7686 125.665 13.7686H127.512C128.914 13.7686 129.831 14.5153 129.831 15.7205C129.831 17.5676 127.774 17.9213 126.385 17.9213ZM124.198 15.7336C124.198 16.703 125.298 16.9781 126.385 16.9781C127.617 16.9781 128.77 16.703 128.77 15.7205C128.77 15.131 128.285 14.6987 127.342 14.6987H125.39C124.656 14.6987 124.198 15.1441 124.198 15.7336ZM124.748 10.5067C124.748 11.3713 125.377 12.0001 126.346 12.0001C127.315 12.0001 127.944 11.3713 127.944 10.5067C127.944 9.66827 127.315 9.02637 126.346 9.02637C125.377 9.02637 124.748 9.66827 124.748 10.5067Z" fill="#262626"/>
<path d="M3 3.62915H11.5264C12.9071 3.62915 14.0264 4.74844 14.0264 6.12915V14.6555C14.0264 16.0362 12.9071 17.1555 11.5264 17.1555H3C1.61929 17.1555 0.5 16.0362 0.5 14.6555V6.12915C0.5 4.74844 1.61929 3.62915 3 3.62915Z" stroke="#262626"/>
<path d="M165.559 15V5.82996H168.218C171.126 5.82996 172.947 7.80806 172.947 10.415C172.947 13.2053 171.126 15 168.218 15H165.559ZM166.633 14.0306H168.153C170.498 14.0306 171.847 12.6682 171.847 10.415C171.847 8.25346 170.498 6.79936 168.153 6.79936H166.633V14.0306ZM174.65 15V8.31896H175.685V10.9914C175.685 9.44556 176.576 8.25346 178.187 8.25346V9.38006H178.043C176.406 9.38006 175.698 10.4805 175.698 11.7512V15H174.65ZM179.627 15V8.31896H180.675V15H179.627ZM179.6 7.17926V5.82996H180.701V7.17926H179.6ZM184.45 15L182.053 8.31896H183.167L185.42 14.7904L187.608 8.31896H188.734L186.35 15H184.45ZM190.104 15V8.31896H191.152V15H190.104ZM190.078 7.17926V5.82996H191.178V7.17926H190.078ZM193.251 15V8.31896H194.299V10.3757C194.299 9.40626 195.072 8.14866 196.565 8.14866C198.151 8.14866 198.989 9.32766 198.989 10.6639V15H197.941V10.8735C197.941 9.82546 197.155 9.11806 196.199 9.11806C195.072 9.11806 194.299 9.94336 194.299 11.07V15H193.251ZM203.389 17.9213C201.503 17.9213 200.166 17.2401 200.166 16.0349C200.166 15.3013 200.704 14.6332 201.922 14.6332H202.118C201.267 14.5153 200.926 14.0961 200.926 13.6114C200.926 13.1398 201.332 12.6813 202.158 12.6551C201.293 12.3014 200.743 11.5285 200.743 10.5067C200.743 9.06566 201.883 8.14866 203.35 8.14866C203.874 8.14866 204.372 8.31896 204.581 8.42376L206.73 8.18796V9.23596H204.372C205.498 9.34076 205.891 10.1137 205.891 10.7556C205.891 12.0525 204.751 12.8778 203.35 12.8778C202.944 12.8778 202.564 12.8123 202.223 12.6813C202.053 12.7992 201.935 13.0088 201.935 13.2184C201.935 13.5983 202.302 13.7686 202.669 13.7686H204.516C205.917 13.7686 206.834 14.5153 206.834 15.7205C206.834 17.5676 204.778 17.9213 203.389 17.9213ZM201.201 15.7336C201.201 16.703 202.302 16.9781 203.389 16.9781C204.62 16.9781 205.773 16.703 205.773 15.7205C205.773 15.131 205.289 14.6987 204.345 14.6987H202.393C201.66 14.6987 201.201 15.1441 201.201 15.7336ZM201.752 10.5067C201.752 11.3713 202.38 12.0001 203.35 12.0001C204.319 12.0001 204.948 11.3713 204.948 10.5067C204.948 9.66826 204.319 9.02636 203.35 9.02636C202.38 9.02636 201.752 9.66826 201.752 10.5067ZM212.249 15V8.31896H213.297V15H212.249ZM212.222 7.17926V5.82996H213.323V7.17926H212.222ZM215.396 15V8.31896H216.444V10.3757C216.444 9.40626 217.217 8.14866 218.71 8.14866C220.295 8.14866 221.134 9.32766 221.134 10.6639V15H220.086V10.8735C220.086 9.82546 219.3 9.11806 218.343 9.11806C217.217 9.11806 216.444 9.94336 216.444 11.07V15H215.396ZM223.726 15V9.23596H222.377V8.31896H224.368C223.818 8.31896 223.097 7.96526 223.097 7.15306C223.097 6.44566 223.634 5.82996 224.735 5.82996H226.254V6.74696H224.918C224.368 6.74696 223.988 7.04826 223.988 7.51986C223.988 8.03076 224.407 8.31896 224.984 8.31896H226.752V9.23596H224.774V15H223.726ZM228.122 15V5.82996H229.17V15H228.122ZM236.738 8.31896V15H235.69V12.9433C235.624 13.9127 234.878 15.1703 233.384 15.1703C231.799 15.1703 231 13.9913 231 12.6551V8.31896H232.048V12.4455C232.048 13.6376 232.795 14.2009 233.751 14.2009C234.878 14.2009 235.69 13.3756 235.69 12.249V8.31896H236.738ZM241.508 15.1703C239.491 15.1703 238.181 13.6638 238.181 11.594C238.181 9.45866 239.713 8.14866 241.495 8.14866C243.512 8.14866 244.639 9.68136 244.639 11.5285C244.639 11.6988 244.626 11.8691 244.613 11.987H239.229C239.36 13.3232 240.198 14.2271 241.508 14.2271C242.425 14.2271 243.159 13.8603 243.617 13.1005L244.403 13.5983C243.892 14.5415 242.831 15.1703 241.508 15.1703ZM239.242 11.07H243.617C243.617 9.95646 242.7 9.06566 241.495 9.06566C240.198 9.06566 239.425 9.95646 239.242 11.07ZM246.214 15V8.31896H247.262V10.3757C247.262 9.40626 248.035 8.14866 249.528 8.14866C251.113 8.14866 251.952 9.32766 251.952 10.6639V15H250.904V10.8735C250.904 9.82546 250.118 9.11806 249.162 9.11806C248.035 9.11806 247.262 9.94336 247.262 11.07V15H246.214ZM256.837 15.1703C254.832 15.1703 253.391 13.6769 253.391 11.6595C253.391 9.64206 254.872 8.14866 256.837 8.14866C258.094 8.14866 259.326 8.76436 259.863 10.1137L258.972 10.5722C258.723 9.83856 257.937 9.11806 256.837 9.11806C255.448 9.11806 254.466 10.1792 254.466 11.6595C254.466 13.1922 255.5 14.2009 256.837 14.2009C257.806 14.2009 258.736 13.69 259.129 12.6027L259.981 13.0219C259.43 14.5546 258.186 15.1703 256.837 15.1703ZM264.356 15.1703C262.339 15.1703 261.029 13.6638 261.029 11.594C261.029 9.45866 262.561 8.14866 264.343 8.14866C266.36 8.14866 267.487 9.68136 267.487 11.5285C267.487 11.6988 267.474 11.8691 267.461 11.987H262.077C262.208 13.3232 263.046 14.2271 264.356 14.2271C265.273 14.2271 266.007 13.8603 266.465 13.1005L267.251 13.5983C266.74 14.5415 265.679 15.1703 264.356 15.1703ZM262.09 11.07H266.465C266.465 9.95646 265.548 9.06566 264.343 9.06566C263.046 9.06566 262.273 9.95646 262.09 11.07Z" fill="#262626"/>
<path d="M145.656 3.62915H154.183C155.563 3.62915 156.683 4.74844 156.683 6.12915V14.6555C156.683 16.0362 155.563 17.1555 154.183 17.1555H145.656C144.276 17.1555 143.156 16.0362 143.156 14.6555V6.12915C143.156 4.74844 144.276 3.62915 145.656 3.62915Z" fill="#F5F3EE" stroke="#262626"/>
</svg>
