<svg width="273" height="21" viewBox="0 0 273 21" fill="none" xmlns="http://www.w3.org/2000/svg">
<path d="M26.9496 15.1703C24.1986 15.1703 22.3122 13.1398 22.3122 10.415C22.3122 7.7164 24.251 5.6597 26.9496 5.6597C28.9277 5.6597 30.3556 6.7601 30.9713 8.2011L30.0674 8.6989C29.6613 7.5985 28.5085 6.6553 26.9496 6.6553C24.8667 6.6553 23.3995 8.2535 23.3995 10.415C23.3995 12.6027 24.8667 14.1747 26.9496 14.1747C28.4168 14.1747 29.7661 13.2839 30.1853 11.7643L31.1285 12.249C30.5521 13.952 28.9539 15.1703 26.9496 15.1703ZM34.8678 15.1703C33.453 15.1703 32.5098 14.2533 32.5098 13.0612C32.5098 11.8036 33.4399 11.07 34.7106 10.939L37.1472 10.677C37.121 9.7993 36.5053 9.0919 35.3656 9.0919C34.3438 9.0919 33.846 9.7207 33.7019 10.3495L32.7718 10.0613C33.0469 8.9347 33.977 8.1487 35.3656 8.1487C37.252 8.1487 38.1821 9.3932 38.1821 10.7425V15H37.1341V12.904C37.1341 14.3188 36.1647 15.1703 34.8678 15.1703ZM33.5578 13.0612C33.5578 13.821 34.2128 14.2664 35.0119 14.2664C36.5839 14.2664 37.1472 13.0481 37.1472 12.0263V11.594L34.9464 11.8298C34.0032 11.9346 33.5578 12.38 33.5578 13.0612ZM43.4563 9.0919C42.0415 9.0919 41.1507 10.2447 41.1507 11.6464C41.1507 13.3101 42.1987 14.2271 43.4825 14.2271C44.7925 14.2271 45.7881 13.1791 45.7881 11.6464C45.7881 10.0744 44.7925 9.0919 43.4563 9.0919ZM40.142 17.751V8.319H41.19V10.677C41.3996 9.3539 42.1987 8.1487 43.8493 8.1487C45.5654 8.1487 46.8623 9.629 46.8623 11.6464C46.8623 13.6769 45.6047 15.1703 43.8493 15.1703C42.4869 15.1703 41.3996 14.2271 41.19 12.7468V17.751H40.142ZM50.4624 15.1703C49.0476 15.1703 48.1044 14.2533 48.1044 13.0612C48.1044 11.8036 49.0345 11.07 50.3052 10.939L52.7418 10.677C52.7156 9.7993 52.0999 9.0919 50.9602 9.0919C49.9384 9.0919 49.4406 9.7207 49.2965 10.3495L48.3664 10.0613C48.6415 8.9347 49.5716 8.1487 50.9602 8.1487C52.8466 8.1487 53.7767 9.3932 53.7767 10.7425V15H52.7287V12.904C52.7287 14.3188 51.7593 15.1703 50.4624 15.1703ZM49.1524 13.0612C49.1524 13.821 49.8074 14.2664 50.6065 14.2664C52.1785 14.2664 52.7418 13.0481 52.7418 12.0263V11.594L50.541 11.8298C49.5978 11.9346 49.1524 12.38 49.1524 13.0612ZM58.658 15.1703C56.6537 15.1703 55.2127 13.6769 55.2127 11.6595C55.2127 9.6421 56.693 8.1487 58.658 8.1487C59.9156 8.1487 61.147 8.7644 61.6841 10.1137L60.7933 10.5722C60.5444 9.8386 59.7584 9.1181 58.658 9.1181C57.2694 9.1181 56.2869 10.1792 56.2869 11.6595C56.2869 13.1922 57.3218 14.2009 58.658 14.2009C59.6274 14.2009 60.5575 13.69 60.9505 12.6027L61.802 13.0219C61.2518 14.5546 60.0073 15.1703 58.658 15.1703ZM63.3741 15V8.319H64.4221V15H63.3741ZM63.3479 7.1793V5.83H64.4483V7.1793H63.3479ZM68.6302 15C67.7132 15 67.0189 14.4367 67.0189 13.3363V9.236H65.8661V8.319H67.0451V6.7994H68.0669V8.319H70.1498V9.236H68.0669V13.3363C68.0669 13.8734 68.3813 14.083 68.7874 14.083H70.0581V15H68.6302ZM73.4178 15L71.0074 8.319H72.1602L74.4134 14.7904L76.7845 8.319H77.9635L74.361 17.751H73.2475L74.3348 15H73.4178ZM86.757 15.1703C85.1064 15.1703 84.3073 13.9651 84.0977 12.642V15H83.0497V5.83H84.0977V10.5722C84.3073 9.0919 85.3946 8.1487 86.757 8.1487C88.5124 8.1487 89.77 9.6421 89.77 11.6726C89.77 13.69 88.4731 15.1703 86.757 15.1703ZM84.0584 11.6726C84.0584 13.0743 84.9492 14.2271 86.364 14.2271C87.7002 14.2271 88.6958 13.2446 88.6958 11.6726C88.6958 10.1399 87.7002 9.0919 86.3902 9.0919C85.1064 9.0919 84.0584 10.0089 84.0584 11.6726ZM96.9463 8.319V15H95.8983V12.9433C95.8328 13.9127 95.0861 15.1703 93.5927 15.1703C92.0076 15.1703 91.2085 13.9913 91.2085 12.6551V8.319H92.2565V12.4455C92.2565 13.6376 93.0032 14.2009 93.9595 14.2009C95.0861 14.2009 95.8983 13.3756 95.8983 12.249V8.319H96.9463ZM98.9129 15V8.319H99.9609V15H98.9129ZM98.8867 7.1793V5.83H99.9871V7.1793H98.8867ZM101.929 15V5.83H102.977V15H101.929ZM107.506 15.1703C105.79 15.1703 104.414 13.69 104.414 11.6726C104.414 9.6421 105.751 8.1487 107.506 8.1487C108.921 8.1487 109.877 9.0919 110.087 10.5722V5.83H111.135V15H110.087V12.642C109.877 13.9651 109.196 15.1703 107.506 15.1703ZM105.489 11.6726C105.489 13.2446 106.484 14.2271 107.82 14.2271C109.235 14.2271 110.126 13.0743 110.126 11.6726C110.126 10.0089 109.078 9.0919 107.794 9.0919C106.484 9.0919 105.489 10.1399 105.489 11.6726ZM113.1 15V8.319H114.148V15H113.1ZM113.074 7.1793V5.83H114.175V7.1793H113.074ZM116.247 15V8.319H117.295V10.3757C117.295 9.4063 118.068 8.1487 119.562 8.1487C121.147 8.1487 121.985 9.3277 121.985 10.6639V15H120.937V10.8735C120.937 9.8255 120.151 9.1181 119.195 9.1181C118.068 9.1181 117.295 9.9434 117.295 11.07V15H116.247ZM126.385 17.9213C124.499 17.9213 123.163 17.2401 123.163 16.0349C123.163 15.3013 123.7 14.6332 124.918 14.6332H125.115C124.263 14.5153 123.923 14.0961 123.923 13.6114C123.923 13.1398 124.329 12.6813 125.154 12.6551C124.289 12.3014 123.739 11.5285 123.739 10.5067C123.739 9.0657 124.879 8.1487 126.346 8.1487C126.87 8.1487 127.368 8.319 127.577 8.4238L129.726 8.188V9.236H127.368C128.494 9.3408 128.887 10.1137 128.887 10.7556C128.887 12.0525 127.748 12.8778 126.346 12.8778C125.94 12.8778 125.56 12.8123 125.219 12.6813C125.049 12.7992 124.931 13.0088 124.931 13.2184C124.931 13.5983 125.298 13.7686 125.665 13.7686H127.512C128.914 13.7686 129.831 14.5153 129.831 15.7205C129.831 17.5676 127.774 17.9213 126.385 17.9213ZM124.198 15.7336C124.198 16.703 125.298 16.9781 126.385 16.9781C127.617 16.9781 128.77 16.703 128.77 15.7205C128.77 15.131 128.285 14.6987 127.342 14.6987H125.39C124.656 14.6987 124.198 15.1441 124.198 15.7336ZM124.748 10.5067C124.748 11.3713 125.377 12.0001 126.346 12.0001C127.315 12.0001 127.944 11.3713 127.944 10.5067C127.944 9.6683 127.315 9.0264 126.346 9.0264C125.377 9.0264 124.748 9.6683 124.748 10.5067Z" fill="#262626"/>
<rect y="3.12915" width="14.5264" height="14.5264" rx="3" fill="#DDD9B5"/>
<path d="M165.559 15V5.83H168.218C171.126 5.83 172.947 7.8081 172.947 10.415C172.947 13.2053 171.126 15 168.218 15H165.559ZM166.633 14.0306H168.153C170.498 14.0306 171.847 12.6682 171.847 10.415C171.847 8.2535 170.498 6.7994 168.153 6.7994H166.633V14.0306ZM174.65 15V8.319H175.685V10.9914C175.685 9.4456 176.576 8.2535 178.187 8.2535V9.3801H178.043C176.406 9.3801 175.698 10.4805 175.698 11.7512V15H174.65ZM179.627 15V8.319H180.675V15H179.627ZM179.6 7.1793V5.83H180.701V7.1793H179.6ZM184.45 15L182.053 8.319H183.167L185.42 14.7904L187.608 8.319H188.734L186.35 15H184.45ZM190.104 15V8.319H191.152V15H190.104ZM190.078 7.1793V5.83H191.178V7.1793H190.078ZM193.251 15V8.319H194.299V10.3757C194.299 9.4063 195.072 8.1487 196.565 8.1487C198.151 8.1487 198.989 9.3277 198.989 10.6639V15H197.941V10.8735C197.941 9.8255 197.155 9.1181 196.199 9.1181C195.072 9.1181 194.299 9.9434 194.299 11.07V15H193.251ZM203.389 17.9213C201.503 17.9213 200.166 17.2401 200.166 16.0349C200.166 15.3013 200.704 14.6332 201.922 14.6332H202.118C201.267 14.5153 200.926 14.0961 200.926 13.6114C200.926 13.1398 201.332 12.6813 202.158 12.6551C201.293 12.3014 200.743 11.5285 200.743 10.5067C200.743 9.0657 201.883 8.1487 203.35 8.1487C203.874 8.1487 204.372 8.319 204.581 8.4238L206.73 8.188V9.236H204.372C205.498 9.3408 205.891 10.1137 205.891 10.7556C205.891 12.0525 204.751 12.8778 203.35 12.8778C202.944 12.8778 202.564 12.8123 202.223 12.6813C202.053 12.7992 201.935 13.0088 201.935 13.2184C201.935 13.5983 202.302 13.7686 202.669 13.7686H204.516C205.917 13.7686 206.834 14.5153 206.834 15.7205C206.834 17.5676 204.778 17.9213 203.389 17.9213ZM201.201 15.7336C201.201 16.703 202.302 16.9781 203.389 16.9781C204.62 16.9781 205.773 16.703 205.773 15.7205C205.773 15.131 205.289 14.6987 204.345 14.6987H202.393C201.66 14.6987 201.201 15.1441 201.201 15.7336ZM201.752 10.5067C201.752 11.3713 202.38 12.0001 203.35 12.0001C204.319 12.0001 204.948 11.3713 204.948 10.5067C204.948 9.6683 204.319 9.0264 203.35 9.0264C202.38 9.0264 201.752 9.6683 201.752 10.5067ZM212.249 15V8.319H213.297V15H212.249ZM212.222 7.1793V5.83H213.323V7.1793H212.222ZM215.396 15V8.319H216.444V10.3757C216.444 9.4063 217.217 8.1487 218.71 8.1487C220.295 8.1487 221.134 9.3277 221.134 10.6639V15H220.086V10.8735C220.086 9.8255 219.3 9.1181 218.343 9.1181C217.217 9.1181 216.444 9.9434 216.444 11.07V15H215.396ZM223.726 15V9.236H222.377V8.319H224.368C223.818 8.319 223.097 7.9653 223.097 7.1531C223.097 6.4457 223.634 5.83 224.735 5.83H226.254V6.747H224.918C224.368 6.747 223.988 7.0483 223.988 7.5199C223.988 8.0308 224.407 8.319 224.984 8.319H226.752V9.236H224.774V15H223.726ZM228.122 15V5.83H229.17V15H228.122ZM236.738 8.319V15H235.69V12.9433C235.624 13.9127 234.878 15.1703 233.384 15.1703C231.799 15.1703 231 13.9913 231 12.6551V8.319H232.048V12.4455C232.048 13.6376 232.795 14.2009 233.751 14.2009C234.878 14.2009 235.69 13.3756 235.69 12.249V8.319H236.738ZM241.508 15.1703C239.491 15.1703 238.181 13.6638 238.181 11.594C238.181 9.4587 239.713 8.1487 241.495 8.1487C243.512 8.1487 244.639 9.6814 244.639 11.5285C244.639 11.6988 244.626 11.8691 244.613 11.987H239.229C239.36 13.3232 240.198 14.2271 241.508 14.2271C242.425 14.2271 243.159 13.8603 243.617 13.1005L244.403 13.5983C243.892 14.5415 242.831 15.1703 241.508 15.1703ZM239.242 11.07H243.617C243.617 9.9565 242.7 9.0657 241.495 9.0657C240.198 9.0657 239.425 9.9565 239.242 11.07ZM246.214 15V8.319H247.262V10.3757C247.262 9.4063 248.035 8.1487 249.528 8.1487C251.113 8.1487 251.952 9.3277 251.952 10.6639V15H250.904V10.8735C250.904 9.8255 250.118 9.1181 249.162 9.1181C248.035 9.1181 247.262 9.9434 247.262 11.07V15H246.214ZM256.837 15.1703C254.832 15.1703 253.391 13.6769 253.391 11.6595C253.391 9.6421 254.872 8.1487 256.837 8.1487C258.094 8.1487 259.326 8.7644 259.863 10.1137L258.972 10.5722C258.723 9.8386 257.937 9.1181 256.837 9.1181C255.448 9.1181 254.466 10.1792 254.466 11.6595C254.466 13.1922 255.5 14.2009 256.837 14.2009C257.806 14.2009 258.736 13.69 259.129 12.6027L259.981 13.0219C259.43 14.5546 258.186 15.1703 256.837 15.1703ZM264.356 15.1703C262.339 15.1703 261.029 13.6638 261.029 11.594C261.029 9.4587 262.561 8.1487 264.343 8.1487C266.36 8.1487 267.487 9.6814 267.487 11.5285C267.487 11.6988 267.474 11.8691 267.461 11.987H262.077C262.208 13.3232 263.046 14.2271 264.356 14.2271C265.273 14.2271 266.007 13.8603 266.465 13.1005L267.251 13.5983C266.74 14.5415 265.679 15.1703 264.356 15.1703ZM262.09 11.07H266.465C266.465 9.9565 265.548 9.0657 264.343 9.0657C263.046 9.0657 262.273 9.9565 262.09 11.07Z" fill="#262626"/>
<rect x="142.657" y="3.12915" width="14.5264" height="14.5264" rx="3" fill="#262626"/>
</svg>
