<svg width="473" height="258" viewBox="0 0 473 258" fill="none" xmlns="http://www.w3.org/2000/svg">
<path d="M296.229 205.382C291.479 205.85 286.694 205.85 281.944 205.382C277.194 204.914 272.501 203.98 267.934 202.595C263.366 201.209 258.946 199.378 254.736 197.128C250.527 194.878 246.549 192.22 242.859 189.192C239.169 186.164 235.786 182.781 232.758 179.091C229.73 175.401 227.072 171.423 224.822 167.214C222.572 163.004 220.741 158.584 219.355 154.016C217.969 149.448 217.036 144.756 216.568 140.006C216.1 135.255 216.1 130.471 216.568 125.72C217.036 120.97 217.969 116.278 219.355 111.71C220.741 107.143 222.572 102.722 224.822 98.5125C227.072 94.303 229.73 90.3247 232.758 86.6351C235.786 82.9454 239.169 79.5621 242.859 76.534C246.549 73.506 250.527 70.8478 254.736 68.5978C258.946 66.3477 263.366 64.5167 267.934 63.1312C272.502 61.7456 277.194 60.8122 281.944 60.3443C286.694 59.8765 291.479 59.8765 296.229 60.3443C300.979 60.8122 305.672 61.7456 310.24 63.1312C314.807 64.5167 319.228 66.3478 323.437 68.5978C327.647 70.8478 331.625 73.506 335.315 76.5341C339.004 79.5621 342.388 82.9454 345.416 86.6351C348.444 90.3247 351.102 94.303 353.352 98.5125C355.602 102.722 357.433 107.143 358.819 111.71C360.204 116.278 361.138 120.97 361.605 125.721C362.073 130.471 362.073 135.255 361.605 140.006C361.138 144.756 360.204 149.448 358.819 154.016C357.433 158.584 355.602 163.004 353.352 167.214C351.102 171.423 348.444 175.401 345.416 179.091C342.388 182.781 339.004 186.164 335.315 189.192C331.625 192.22 327.647 194.878 323.437 197.128C319.228 199.378 314.807 201.209 310.24 202.595C305.672 203.98 300.979 204.914 296.229 205.382Z" fill="#F5F3EE" stroke="#262626"/>
<path d="M356.266 256.761C347.898 257.585 339.468 257.585 331.099 256.761C322.731 255.936 314.463 254.292 306.416 251.851C298.369 249.41 290.582 246.184 283.165 242.22C275.749 238.256 268.741 233.573 262.24 228.238C255.74 222.903 249.779 216.943 244.445 210.443C239.11 203.942 234.427 196.934 230.463 189.517C226.499 182.101 223.273 174.313 220.832 166.266C218.391 158.219 216.746 149.952 215.922 141.583C215.098 133.215 215.098 124.785 215.922 116.417C216.746 108.048 218.391 99.7807 220.832 91.7337C223.273 83.6866 226.499 75.8988 230.463 68.4826C234.427 61.0664 239.11 54.0577 244.445 47.5574C249.779 41.057 255.74 35.0965 262.24 29.7618C268.741 24.4272 275.749 19.7441 283.165 15.7801C290.582 11.816 298.369 8.59017 306.417 6.14912C314.464 3.70811 322.731 2.06364 331.099 1.2394C339.468 0.415147 347.898 0.415147 356.266 1.2394C364.635 2.06364 372.902 3.70812 380.949 6.14912C388.996 8.59018 396.784 11.816 404.2 15.7801C411.616 19.7441 418.625 24.4272 425.125 29.7618C431.626 35.0965 437.586 41.057 442.921 47.5574C448.256 54.0577 452.939 61.0665 456.903 68.4827C460.867 75.8988 464.093 83.6866 466.534 91.7336C468.975 99.7806 470.619 108.048 471.444 116.417C472.268 124.785 472.268 133.215 471.444 141.583C470.619 149.952 468.975 158.219 466.534 166.266C464.093 174.313 460.867 182.101 456.903 189.517C452.939 196.934 448.256 203.942 442.921 210.443C437.586 216.943 431.626 222.903 425.126 228.238C418.625 233.573 411.616 238.256 404.2 242.22C396.784 246.184 388.996 249.41 380.949 251.851C372.902 254.292 364.635 255.936 356.266 256.761Z" stroke="#262626"/>
<path d="M409.777 176.161C406.146 176.639 402.467 176.639 398.836 176.161C395.204 175.683 391.651 174.73 388.267 173.329C384.883 171.927 381.697 170.088 378.791 167.858C375.885 165.628 373.284 163.027 371.055 160.121C368.825 157.215 366.985 154.03 365.584 150.645C364.182 147.261 363.23 143.708 362.752 140.077C362.274 136.445 362.274 132.767 362.752 129.135C363.23 125.504 364.182 121.951 365.584 118.567C366.985 115.183 368.825 111.997 371.055 109.091C373.284 106.185 375.885 103.584 378.791 101.354C381.697 99.1243 384.883 97.285 388.267 95.8833C391.651 94.4816 395.204 93.5295 398.836 93.0514C402.467 92.5733 406.146 92.5733 409.777 93.0514C413.409 93.5295 416.962 94.4816 420.346 95.8833C423.73 97.285 426.916 99.1243 429.822 101.354C432.728 103.584 435.329 106.185 437.558 109.091C439.788 111.997 441.627 115.183 443.029 118.567C444.431 121.951 445.383 125.504 445.861 129.135C446.339 132.767 446.339 136.445 445.861 140.077C445.383 143.708 444.431 147.261 443.029 150.645C441.627 154.03 439.788 157.215 437.558 160.121C435.329 163.027 432.728 165.628 429.822 167.858C426.916 170.088 423.73 171.927 420.346 173.329C416.962 174.73 413.409 175.683 409.777 176.161Z" fill="#F5F3EE" stroke="#262626"/>
<path d="M382.139 92.0969C378.507 92.575 374.829 92.575 371.197 92.0969C367.566 91.6188 364.012 90.6667 360.628 89.265C357.244 87.8633 354.059 86.0241 351.153 83.7943C348.247 81.5645 345.646 78.9633 343.416 76.0574C341.186 73.1515 339.347 69.9658 337.945 66.5818C336.543 63.1977 335.591 59.6446 335.113 56.0131C334.635 52.3815 334.635 48.703 335.113 45.0715C335.591 41.44 336.543 37.8868 337.945 34.5028C339.347 31.1188 341.186 27.9331 343.416 25.0272C345.646 22.1212 348.247 19.5201 351.153 17.2903C354.059 15.0605 357.244 13.2213 360.628 11.8196C364.012 10.4179 367.566 9.4658 371.197 8.9877C374.829 8.5096 378.507 8.5096 382.139 8.9877C385.77 9.4658 389.323 10.4179 392.707 11.8196C396.091 13.2213 399.277 15.0605 402.183 17.2903C405.089 19.5201 407.69 22.1212 409.92 25.0272C412.15 27.9331 413.989 31.1188 415.391 34.5028C416.792 37.8869 417.744 41.44 418.222 45.0715C418.7 48.703 418.7 52.3816 418.222 56.0131C417.744 59.6446 416.792 63.1977 415.391 66.5818C413.989 69.9658 412.15 73.1515 409.92 76.0574C407.69 78.9634 405.089 81.5645 402.183 83.7943C399.277 86.0241 396.091 87.8633 392.707 89.265C389.323 90.6667 385.77 91.6188 382.139 92.0969Z" fill="#F5F3EE" stroke="#262626"/>
<path d="M370.587 252.58C367.203 253.045 363.771 253.045 360.386 252.58C357.001 252.114 353.696 251.188 350.563 249.827C347.429 248.466 344.497 246.683 341.846 244.527C339.196 242.371 336.854 239.862 334.883 237.071C332.913 234.28 331.334 231.232 330.19 228.013C329.046 224.794 328.348 221.434 328.114 218.025C327.881 214.617 328.116 211.192 328.811 207.847C329.506 204.503 330.655 201.268 332.227 198.235C333.799 195.202 335.778 192.398 338.11 189.901C340.442 187.404 343.104 185.238 346.023 183.463C348.942 181.688 352.091 180.32 355.38 179.398C358.67 178.477 362.07 178.009 365.487 178.009C368.903 178.009 372.303 178.477 375.593 179.398C378.883 180.32 382.031 181.688 384.95 183.463C387.869 185.238 390.532 187.404 392.864 189.901C395.195 192.398 397.175 195.202 398.747 198.235C400.318 201.268 401.468 204.503 402.163 207.847C402.858 211.192 403.092 214.617 402.859 218.025C402.626 221.434 401.928 224.794 400.783 228.013C399.639 231.232 398.06 234.28 396.09 237.071C394.12 239.862 391.777 242.371 389.127 244.527C386.477 246.683 383.544 248.466 380.411 249.827C377.277 251.188 373.972 252.114 370.587 252.58Z" fill="#F5F3EE" stroke="#262626"/>
<path d="M87.9377 208.334C82.8891 208.816 77.8062 208.816 72.7576 208.334C67.7091 207.852 62.718 206.89 57.852 205.461C52.9859 204.032 48.267 202.143 43.7593 199.819C39.2516 197.495 34.9755 194.747 30.9891 191.612C27.0026 188.477 23.3239 184.97 20.0028 181.137C16.6817 177.304 13.7333 173.164 11.1975 168.771C8.6618 164.379 6.55026 159.756 4.89155 154.963C3.23284 150.171 2.03448 145.231 1.31273 140.211C0.590981 135.191 0.34912 130.114 0.590433 125.048C0.831745 119.983 1.55513 114.951 2.75077 110.023C3.94642 105.094 5.6089 100.291 7.71566 95.6778C9.82244 91.0646 12.3639 86.6626 15.3057 82.5314C18.2474 78.4004 21.5761 74.5589 25.2464 71.0592C28.9169 67.5595 32.9124 64.4174 37.1788 61.6755C41.4452 58.9337 45.9631 56.6045 50.6713 54.7196C55.3795 52.8348 60.2566 51.4027 65.2364 50.443C70.2162 49.4832 75.2762 49 80.3477 49C85.4191 49 90.4791 49.4832 95.4589 50.443C100.439 51.4027 105.316 52.8348 110.024 54.7197C114.732 56.6045 119.25 58.9337 123.517 61.6755C127.783 64.4174 131.778 67.5595 135.449 71.0592C139.119 74.5589 142.448 78.4004 145.39 82.5315C148.331 86.6626 150.873 91.0646 152.98 95.6778C155.086 100.291 156.749 105.094 157.945 110.023C159.14 114.951 159.864 119.983 160.105 125.048C160.346 130.114 160.104 135.191 159.383 140.211C158.661 145.231 157.462 150.171 155.804 154.963C154.145 159.756 152.033 164.379 149.498 168.771C146.962 173.164 144.014 177.304 140.692 181.137C137.371 184.97 133.693 188.477 129.706 191.612C125.72 194.747 121.444 197.495 116.936 199.819C112.428 202.143 107.709 204.032 102.843 205.461C97.9773 206.89 92.9862 207.852 87.9377 208.334Z" stroke="#262626"/>
<path d="M45.7388 133V124.826H42.752V123.83H49.8129V124.826H46.813V133H45.7388ZM51.3868 133V126.319H52.4217V128.991C52.4217 127.446 53.3125 126.253 54.9238 126.253V127.38H54.7797C53.1422 127.38 52.4348 128.48 52.4348 129.751V133H51.3868ZM58.2658 133.17C56.851 133.17 55.9078 132.253 55.9078 131.061C55.9078 129.804 56.8379 129.07 58.1086 128.939L60.5452 128.677C60.519 127.799 59.9033 127.092 58.7636 127.092C57.7418 127.092 57.244 127.721 57.0999 128.349L56.1698 128.061C56.4449 126.935 57.375 126.149 58.7636 126.149C60.65 126.149 61.5801 127.393 61.5801 128.742V133H60.5321V130.904C60.5321 132.319 59.5627 133.17 58.2658 133.17ZM56.9558 131.061C56.9558 131.821 57.6108 132.266 58.4099 132.266C59.9819 132.266 60.5452 131.048 60.5452 130.026V129.594L58.3444 129.83C57.4012 129.935 56.9558 130.38 56.9558 131.061ZM63.5401 133V126.319H64.5881V133H63.5401ZM63.5139 125.179V123.83H64.6143V125.179H63.5139ZM66.6872 133V126.319H67.7352V128.376C67.7352 127.406 68.5081 126.149 70.0015 126.149C71.5866 126.149 72.425 127.328 72.425 128.664V133H71.377V128.873C71.377 127.825 70.591 127.118 69.6347 127.118C68.5081 127.118 67.7352 127.943 67.7352 129.07V133H66.6872ZM74.3885 133V126.319H75.4365V133H74.3885ZM74.3623 125.179V123.83H75.4627V125.179H74.3623ZM77.5356 133V126.319H78.5836V128.376C78.5836 127.406 79.3565 126.149 80.8499 126.149C82.435 126.149 83.2734 127.328 83.2734 128.664V133H82.2254V128.873C82.2254 127.825 81.4394 127.118 80.4831 127.118C79.3565 127.118 78.5836 127.943 78.5836 129.07V133H77.5356ZM87.6736 135.921C85.7872 135.921 84.451 135.24 84.451 134.035C84.451 133.301 84.9881 132.633 86.2064 132.633H86.4029C85.5514 132.515 85.2108 132.096 85.2108 131.611C85.2108 131.14 85.6169 130.681 86.4422 130.655C85.5776 130.301 85.0274 129.528 85.0274 128.507C85.0274 127.066 86.1671 126.149 87.6343 126.149C88.1583 126.149 88.6561 126.319 88.8657 126.424L91.0141 126.188V127.236H88.6561C89.7827 127.341 90.1757 128.114 90.1757 128.756C90.1757 130.052 89.036 130.878 87.6343 130.878C87.2282 130.878 86.8483 130.812 86.5077 130.681C86.3374 130.799 86.2195 131.009 86.2195 131.218C86.2195 131.598 86.5863 131.769 86.9531 131.769H88.8002C90.2019 131.769 91.1189 132.515 91.1189 133.721C91.1189 135.568 89.0622 135.921 87.6736 135.921ZM85.4859 133.734C85.4859 134.703 86.5863 134.978 87.6736 134.978C88.905 134.978 90.0578 134.703 90.0578 133.721C90.0578 133.131 89.5731 132.699 88.6299 132.699H86.678C85.9444 132.699 85.4859 133.144 85.4859 133.734ZM86.0361 128.507C86.0361 129.371 86.6649 130 87.6343 130C88.6037 130 89.2325 129.371 89.2325 128.507C89.2325 127.668 88.6037 127.026 87.6343 127.026C86.6649 127.026 86.0361 127.668 86.0361 128.507ZM94.706 133.17C93.134 133.17 92.1646 132.306 91.9026 131.14L92.872 130.878C93.0816 131.782 93.8414 132.24 94.7584 132.24C95.8326 132.24 96.4352 131.769 96.4352 131.153C96.4352 130.629 96.0815 130.275 95.3348 130.131L94.2213 129.921C93.2257 129.738 92.3742 129.253 92.3742 128.061C92.3742 127 93.265 126.149 94.8108 126.149C96.147 126.149 97.1819 126.856 97.4177 128.048L96.4745 128.31C96.3697 127.55 95.7016 127.066 94.8108 127.066C93.8545 127.066 93.3567 127.511 93.3567 128.061C93.3567 128.585 93.7366 128.873 94.4702 129.018L95.5968 129.24C96.6448 129.45 97.4439 130.026 97.4439 131.153C97.4439 132.345 96.3435 133.17 94.706 133.17Z" fill="#262626"/>
<path d="M105.783 124.419C105.783 126.922 104.682 127.563 103.621 127.563V125.402C104.852 125.402 105.652 124.97 105.652 124.026V123.83H107.761V133H105.783V124.419ZM112.583 133.17C110.802 133.17 109.138 132.319 109.138 130.668C109.138 129.214 110.566 128.611 111.863 128.834L111.535 128.703C110.369 128.232 109.544 127.472 109.544 126.253C109.544 124.59 110.946 123.66 112.636 123.66C114.417 123.66 115.622 124.564 115.622 125.86C115.622 126.777 114.81 127.655 113.435 127.393L113.749 127.511C115.334 128.127 116.002 129.122 116.002 130.223C116.002 131.834 114.601 133.17 112.583 133.17ZM111.129 130.223C111.129 130.865 111.758 131.245 112.583 131.245C113.395 131.245 113.906 130.865 113.906 130.288C113.906 129.948 113.67 129.581 112.976 129.293L112.374 129.044C111.863 129.149 111.129 129.489 111.129 130.223ZM111.561 126.201C111.561 126.489 111.719 126.725 112.321 126.961L112.884 127.17C113.304 127.092 113.749 126.738 113.749 126.306C113.749 125.887 113.369 125.494 112.596 125.494C111.994 125.494 111.561 125.795 111.561 126.201Z" fill="#262626"/>
<path d="M250.35 139L247.521 130.04V139H246.473V129.83H248.516L251.333 138.79L254.215 129.83H256.245V139H255.197V130.04L252.354 139H250.35ZM258.532 139V132.319H259.58V139H258.532ZM258.505 131.179V129.83H259.606V131.179H258.505ZM264.6 139.17C262.596 139.17 261.155 137.677 261.155 135.659C261.155 133.642 262.635 132.149 264.6 132.149C265.858 132.149 267.089 132.764 267.626 134.114L266.735 134.572C266.486 133.839 265.7 133.118 264.6 133.118C263.211 133.118 262.229 134.179 262.229 135.659C262.229 137.192 263.264 138.201 264.6 138.201C265.569 138.201 266.5 137.69 266.893 136.603L267.744 137.022C267.194 138.555 265.949 139.17 264.6 139.17ZM269.316 139V132.319H270.351V134.991C270.351 133.446 271.242 132.253 272.853 132.253V133.38H272.709C271.072 133.38 270.364 134.48 270.364 135.751V139H269.316ZM277.112 139.17C275.095 139.17 273.641 137.729 273.641 135.659C273.641 133.603 275.095 132.149 277.112 132.149C279.13 132.149 280.584 133.603 280.584 135.659C280.584 137.729 279.13 139.17 277.112 139.17ZM274.715 135.659C274.715 137.166 275.71 138.227 277.112 138.227C278.514 138.227 279.509 137.166 279.509 135.659C279.509 134.192 278.514 133.092 277.112 133.092C275.71 133.092 274.715 134.192 274.715 135.659ZM284.44 139.17C282.868 139.17 281.898 138.306 281.636 137.14L282.606 136.878C282.815 137.782 283.575 138.24 284.492 138.24C285.566 138.24 286.169 137.769 286.169 137.153C286.169 136.629 285.815 136.275 285.069 136.131L283.955 135.921C282.959 135.738 282.108 135.253 282.108 134.061C282.108 133 282.999 132.149 284.545 132.149C285.881 132.149 286.916 132.856 287.151 134.048L286.208 134.31C286.103 133.55 285.435 133.066 284.545 133.066C283.588 133.066 283.09 133.511 283.09 134.061C283.09 134.585 283.47 134.873 284.204 135.018L285.331 135.24C286.379 135.45 287.178 136.026 287.178 137.153C287.178 138.345 286.077 139.17 284.44 139.17ZM289.081 139V132.319H290.129V139H289.081ZM289.055 131.179V129.83H290.156V131.179H289.055ZM294.337 139C293.42 139 292.726 138.437 292.726 137.336V133.236H291.573V132.319H292.752V130.799H293.774V132.319H295.857V133.236H293.774V137.336C293.774 137.873 294.089 138.083 294.495 138.083H295.765V139H294.337ZM300.239 139.17C298.221 139.17 296.911 137.664 296.911 135.594C296.911 133.459 298.444 132.149 300.225 132.149C302.243 132.149 303.369 133.681 303.369 135.528C303.369 135.699 303.356 135.869 303.343 135.987H297.959C298.09 137.323 298.929 138.227 300.239 138.227C301.156 138.227 301.889 137.86 302.348 137.1L303.134 137.598C302.623 138.541 301.562 139.17 300.239 139.17ZM297.972 135.07H302.348C302.348 133.956 301.431 133.066 300.225 133.066C298.929 133.066 298.156 133.956 297.972 135.07ZM307.224 139.17C305.652 139.17 304.683 138.306 304.421 137.14L305.39 136.878C305.6 137.782 306.359 138.24 307.276 138.24C308.351 138.24 308.953 137.769 308.953 137.153C308.953 136.629 308.599 136.275 307.853 136.131L306.739 135.921C305.744 135.738 304.892 135.253 304.892 134.061C304.892 133 305.783 132.149 307.329 132.149C308.665 132.149 309.7 132.856 309.936 134.048L308.992 134.31C308.888 133.55 308.22 133.066 307.329 133.066C306.372 133.066 305.875 133.511 305.875 134.061C305.875 134.585 306.255 134.873 306.988 135.018L308.115 135.24C309.163 135.45 309.962 136.026 309.962 137.153C309.962 138.345 308.861 139.17 307.224 139.17Z" fill="#262626"/>
<path d="M318.783 130.419C318.783 132.922 317.682 133.563 316.621 133.563V131.402C317.852 131.402 318.652 130.97 318.652 130.026V129.83H320.761V139H318.783V130.419ZM325.478 139.157C323.723 139.157 322.465 138.148 322.138 136.76L323.946 135.987C324.037 136.537 324.522 137.245 325.452 137.245C326.395 137.245 326.972 136.537 326.972 135.777C326.972 135.044 326.382 134.323 325.426 134.323C324.732 134.323 324.208 134.742 323.946 135.227L322.164 134.52L322.531 129.83H328.229V131.598H324.155L323.88 135.188C324.024 133.446 325.085 132.686 326.199 132.686C327.915 132.686 328.976 134.218 328.976 135.777C328.976 137.441 327.836 139.157 325.478 139.157Z" fill="#262626"/>
<path d="M344.473 53V43.83H347.97C349.804 43.83 350.826 44.9042 350.826 46.188C350.826 47.2884 350.132 48.3757 348.468 48.3757C349.935 48.4281 350.747 49.3582 350.747 50.5634V53H349.647V50.7468C349.647 49.8429 349.123 49.3189 348.062 49.3189H345.534V53H344.473ZM345.534 48.3495H347.839C348.913 48.3495 349.726 47.6159 349.726 46.5417C349.726 45.5723 349.123 44.7994 347.774 44.7994H345.534V48.3495ZM355.664 53.1703C353.646 53.1703 352.336 51.6638 352.336 49.594C352.336 47.4587 353.869 46.1487 355.65 46.1487C357.668 46.1487 358.794 47.6814 358.794 49.5285C358.794 49.6988 358.781 49.8691 358.768 49.987H353.384C353.515 51.3232 354.354 52.2271 355.664 52.2271C356.581 52.2271 357.314 51.8603 357.773 51.1005L358.559 51.5983C358.048 52.5415 356.987 53.1703 355.664 53.1703ZM353.397 49.07H357.773C357.773 47.9565 356.856 47.0657 355.65 47.0657C354.354 47.0657 353.581 47.9565 353.397 49.07ZM363.684 47.0919C362.269 47.0919 361.378 48.2447 361.378 49.6464C361.378 51.3101 362.426 52.2271 363.71 52.2271C365.02 52.2271 366.016 51.1791 366.016 49.6464C366.016 48.0744 365.02 47.0919 363.684 47.0919ZM360.37 55.751V46.319H361.418V48.677C361.627 47.3539 362.426 46.1487 364.077 46.1487C365.793 46.1487 367.09 47.629 367.09 49.6464C367.09 51.6769 365.832 53.1703 364.077 53.1703C362.714 53.1703 361.627 52.2271 361.418 50.7468V55.751H360.37ZM371.607 53.1703C369.59 53.1703 368.135 51.7293 368.135 49.6595C368.135 47.6028 369.59 46.1487 371.607 46.1487C373.624 46.1487 375.078 47.6028 375.078 49.6595C375.078 51.7293 373.624 53.1703 371.607 53.1703ZM369.21 49.6595C369.21 51.166 370.205 52.2271 371.607 52.2271C373.009 52.2271 374.004 51.166 374.004 49.6595C374.004 48.1923 373.009 47.0919 371.607 47.0919C370.205 47.0919 369.21 48.1923 369.21 49.6595ZM376.655 53V46.319H377.69V48.9914C377.69 47.4456 378.581 46.2535 380.192 46.2535V47.3801H380.048C378.41 47.3801 377.703 48.4805 377.703 49.7512V53H376.655ZM383.741 53C382.824 53 382.129 52.4367 382.129 51.3363V47.236H380.976V46.319H382.155V44.7994H383.177V46.319H385.26V47.236H383.177V51.3363C383.177 51.8734 383.492 52.083 383.898 52.083H385.168V53H383.741ZM389.118 53.1703C387.546 53.1703 386.576 52.3057 386.314 51.1398L387.284 50.8778C387.493 51.7817 388.253 52.2402 389.17 52.2402C390.244 52.2402 390.847 51.7686 390.847 51.1529C390.847 50.6289 390.493 50.2752 389.746 50.1311L388.633 49.9215C387.637 49.7381 386.786 49.2534 386.786 48.0613C386.786 47.0002 387.677 46.1487 389.222 46.1487C390.559 46.1487 391.594 46.8561 391.829 48.0482L390.886 48.3102C390.781 47.5504 390.113 47.0657 389.222 47.0657C388.266 47.0657 387.768 47.5111 387.768 48.0613C387.768 48.5853 388.148 48.8735 388.882 49.0176L390.008 49.2403C391.056 49.4499 391.856 50.0263 391.856 51.1529C391.856 52.345 390.755 53.1703 389.118 53.1703Z" fill="#262626"/>
<path d="M400.093 53.1572C398.337 53.1572 397.08 52.1485 396.752 50.7599L398.56 49.987C398.652 50.5372 399.136 51.2446 400.066 51.2446C401.01 51.2446 401.586 50.5372 401.586 49.7774C401.586 49.0438 400.996 48.3233 400.04 48.3233C399.346 48.3233 398.822 48.7425 398.56 49.2272L396.778 48.5198L397.145 43.83H402.844V45.5985H398.769L398.494 49.1879C398.638 47.4456 399.7 46.6858 400.813 46.6858C402.529 46.6858 403.59 48.2185 403.59 49.7774C403.59 51.4411 402.451 53.1572 400.093 53.1572Z" fill="#262626"/>
<path d="M374.52 129.17C371.769 129.17 369.883 127.14 369.883 124.415C369.883 121.716 371.822 119.66 374.52 119.66C376.499 119.66 377.926 120.76 378.542 122.201L377.638 122.699C377.232 121.598 376.079 120.655 374.52 120.655C372.438 120.655 370.97 122.253 370.97 124.415C370.97 126.603 372.438 128.175 374.52 128.175C375.988 128.175 377.337 127.284 377.756 125.764L378.699 126.249C378.123 127.952 376.525 129.17 374.52 129.17ZM382.439 129.17C381.024 129.17 380.081 128.253 380.081 127.061C380.081 125.804 381.011 125.07 382.281 124.939L384.718 124.677C384.692 123.799 384.076 123.092 382.936 123.092C381.915 123.092 381.417 123.721 381.273 124.349L380.343 124.061C380.618 122.935 381.548 122.149 382.936 122.149C384.823 122.149 385.753 123.393 385.753 124.742V129H384.705V126.904C384.705 128.319 383.735 129.17 382.439 129.17ZM381.129 127.061C381.129 127.821 381.784 128.266 382.583 128.266C384.155 128.266 384.718 127.048 384.718 126.026V125.594L382.517 125.83C381.574 125.935 381.129 126.38 381.129 127.061ZM387.713 129V122.319H388.761V124.376C388.761 123.118 389.573 122.149 390.922 122.149C391.997 122.149 393.045 122.699 393.254 124.376C393.333 123 394.21 122.149 395.389 122.149C396.909 122.149 397.734 123.288 397.734 124.664V129H396.686V124.873C396.686 123.773 396.005 123.118 394.996 123.118C394.04 123.118 393.254 123.799 393.254 125.07V129H392.206V124.86C392.206 123.773 391.433 123.118 390.477 123.118C389.481 123.118 388.761 123.917 388.761 125.07V129H387.713ZM403.014 123.092C401.599 123.092 400.709 124.245 400.709 125.646C400.709 127.31 401.757 128.227 403.04 128.227C404.35 128.227 405.346 127.179 405.346 125.646C405.346 124.074 404.35 123.092 403.014 123.092ZM399.7 131.751V122.319H400.748V124.677C400.957 123.354 401.757 122.149 403.407 122.149C405.123 122.149 406.42 123.629 406.42 125.646C406.42 127.677 405.163 129.17 403.407 129.17C402.045 129.17 400.957 128.227 400.748 126.747V131.751H399.7ZM410.02 129.17C408.605 129.17 407.662 128.253 407.662 127.061C407.662 125.804 408.592 125.07 409.863 124.939L412.3 124.677C412.273 123.799 411.658 123.092 410.518 123.092C409.496 123.092 408.998 123.721 408.854 124.349L407.924 124.061C408.199 122.935 409.129 122.149 410.518 122.149C412.404 122.149 413.335 123.393 413.335 124.742V129H412.287V126.904C412.287 128.319 411.317 129.17 410.02 129.17ZM408.71 127.061C408.71 127.821 409.365 128.266 410.164 128.266C411.736 128.266 412.3 127.048 412.3 126.026V125.594L410.099 125.83C409.156 125.935 408.71 126.38 408.71 127.061ZM415.294 129V122.319H416.342V129H415.294ZM415.268 121.179V119.83H416.369V121.179H415.268ZM420.878 131.921C418.992 131.921 417.656 131.24 417.656 130.035C417.656 129.301 418.193 128.633 419.411 128.633H419.607C418.756 128.515 418.415 128.096 418.415 127.611C418.415 127.14 418.821 126.681 419.647 126.655C418.782 126.301 418.232 125.528 418.232 124.507C418.232 123.066 419.372 122.149 420.839 122.149C421.363 122.149 421.861 122.319 422.07 122.424L424.219 122.188V123.236H421.861C422.987 123.341 423.38 124.114 423.38 124.756C423.38 126.052 422.241 126.878 420.839 126.878C420.433 126.878 420.053 126.812 419.712 126.681C419.542 126.799 419.424 127.009 419.424 127.218C419.424 127.598 419.791 127.769 420.158 127.769H422.005C423.406 127.769 424.323 128.515 424.323 129.721C424.323 131.568 422.267 131.921 420.878 131.921ZM418.69 129.734C418.69 130.703 419.791 130.978 420.878 130.978C422.11 130.978 423.262 130.703 423.262 129.721C423.262 129.131 422.778 128.699 421.834 128.699H419.883C419.149 128.699 418.69 129.144 418.69 129.734ZM419.241 124.507C419.241 125.371 419.869 126 420.839 126C421.808 126 422.437 125.371 422.437 124.507C422.437 123.668 421.808 123.026 420.839 123.026C419.869 123.026 419.241 123.668 419.241 124.507ZM426.028 129V122.319H427.076V124.376C427.076 123.406 427.849 122.149 429.342 122.149C430.927 122.149 431.766 123.328 431.766 124.664V129H430.718V124.873C430.718 123.825 429.932 123.118 428.975 123.118C427.849 123.118 427.076 123.943 427.076 125.07V129H426.028ZM436.009 129.17C434.437 129.17 433.467 128.306 433.205 127.14L434.175 126.878C434.384 127.782 435.144 128.24 436.061 128.24C437.135 128.24 437.738 127.769 437.738 127.153C437.738 126.629 437.384 126.275 436.637 126.131L435.524 125.921C434.528 125.738 433.677 125.253 433.677 124.061C433.677 123 434.568 122.149 436.113 122.149C437.45 122.149 438.484 122.856 438.72 124.048L437.777 124.31C437.672 123.55 437.004 123.066 436.113 123.066C435.157 123.066 434.659 123.511 434.659 124.061C434.659 124.585 435.039 124.873 435.773 125.018L436.899 125.24C437.947 125.45 438.746 126.026 438.746 127.153C438.746 128.345 437.646 129.17 436.009 129.17Z" fill="#262626"/>
<path d="M404.093 148.157C402.337 148.157 401.08 147.148 400.752 145.76L402.56 144.987C402.652 145.537 403.136 146.245 404.066 146.245C405.01 146.245 405.586 145.537 405.586 144.777C405.586 144.044 404.996 143.323 404.04 143.323C403.346 143.323 402.822 143.742 402.56 144.227L400.778 143.52L401.145 138.83H406.844V140.598H402.769L402.494 144.188C402.638 142.446 403.7 141.686 404.813 141.686C406.529 141.686 407.59 143.218 407.59 144.777C407.59 146.441 406.451 148.157 404.093 148.157Z" fill="#262626"/>
<path d="M369.158 222V220.507H365.621V216.039L368.11 212.83H370.507L365.844 218.673H369.158V216.681H371.123V218.673H372.21V220.507H371.123V222H369.158Z" fill="#262626"/>
</svg>
