<svg width="346" height="178" viewBox="0 0 346 178" fill="none" xmlns="http://www.w3.org/2000/svg">
<path d="M276.644 171.684C274.993 171.684 273.644 170.937 273.225 169.339L274.22 169.024C274.508 170.125 275.36 170.701 276.644 170.701C277.98 170.701 278.792 169.955 278.792 169.024C278.792 168.121 278.163 167.61 277.194 167.387L275.871 167.086C274.692 166.824 273.618 166.156 273.618 164.636C273.618 163.247 274.783 162.173 276.617 162.173C278.281 162.173 279.395 163.012 279.696 164.282L278.727 164.597C278.517 163.706 277.705 163.143 276.617 163.143C275.294 163.143 274.666 163.876 274.666 164.636C274.666 165.54 275.373 165.907 276.12 166.077L277.469 166.391C278.753 166.693 279.892 167.479 279.892 169.024C279.892 170.439 278.687 171.684 276.644 171.684ZM283.897 171.513C282.98 171.513 282.285 170.95 282.285 169.85V165.749H281.133V164.832H282.312V163.313H283.333V164.832H285.416V165.749H283.333V169.85C283.333 170.387 283.648 170.596 284.054 170.596H285.325V171.513H283.897ZM286.994 171.513V164.832H288.029V167.505C288.029 165.959 288.92 164.767 290.531 164.767V165.894H290.387C288.75 165.894 288.042 166.994 288.042 168.265V171.513H286.994ZM293.873 171.684C292.459 171.684 291.515 170.767 291.515 169.575C291.515 168.317 292.446 167.583 293.716 167.452L296.153 167.19C296.127 166.313 295.511 165.605 294.371 165.605C293.349 165.605 292.852 166.234 292.708 166.863L291.777 166.575C292.053 165.448 292.983 164.662 294.371 164.662C296.258 164.662 297.188 165.907 297.188 167.256V171.513H296.14V169.417C296.14 170.832 295.17 171.684 293.873 171.684ZM292.563 169.575C292.563 170.334 293.218 170.78 294.018 170.78C295.59 170.78 296.153 169.562 296.153 168.54V168.107L293.952 168.343C293.009 168.448 292.563 168.893 292.563 169.575ZM301.257 171.513C300.34 171.513 299.646 170.95 299.646 169.85V165.749H298.493V164.832H299.672V163.313H300.694V164.832H302.776V165.749H300.694V169.85C300.694 170.387 301.008 170.596 301.414 170.596H302.685V171.513H301.257ZM307.158 171.684C305.14 171.684 303.83 170.177 303.83 168.107C303.83 165.972 305.363 164.662 307.145 164.662C309.162 164.662 310.289 166.195 310.289 168.042C310.289 168.212 310.276 168.383 310.263 168.5H304.878C305.009 169.837 305.848 170.741 307.158 170.741C308.075 170.741 308.808 170.374 309.267 169.614L310.053 170.112C309.542 171.055 308.481 171.684 307.158 171.684ZM304.892 167.583H309.267C309.267 166.47 308.35 165.579 307.145 165.579C305.848 165.579 305.075 166.47 304.892 167.583ZM314.173 174.435C312.286 174.435 310.95 173.754 310.95 172.548C310.95 171.815 311.487 171.147 312.705 171.147H312.902C312.05 171.029 311.71 170.61 311.71 170.125C311.71 169.653 312.116 169.195 312.941 169.169C312.077 168.815 311.526 168.042 311.526 167.02C311.526 165.579 312.666 164.662 314.133 164.662C314.657 164.662 315.155 164.832 315.365 164.937L317.513 164.701V165.749H315.155C316.282 165.854 316.675 166.627 316.675 167.269C316.675 168.566 315.535 169.391 314.133 169.391C313.727 169.391 313.347 169.326 313.007 169.195C312.836 169.313 312.718 169.522 312.718 169.732C312.718 170.112 313.085 170.282 313.452 170.282H315.299C316.701 170.282 317.618 171.029 317.618 172.234C317.618 174.081 315.561 174.435 314.173 174.435ZM311.985 172.247C311.985 173.216 313.085 173.492 314.173 173.492C315.404 173.492 316.557 173.216 316.557 172.234C316.557 171.644 316.072 171.212 315.129 171.212H313.177C312.443 171.212 311.985 171.658 311.985 172.247ZM312.535 167.02C312.535 167.885 313.164 168.514 314.133 168.514C315.103 168.514 315.731 167.885 315.731 167.02C315.731 166.182 315.103 165.54 314.133 165.54C313.164 165.54 312.535 166.182 312.535 167.02ZM321.012 171.513L318.602 164.832H319.755L322.008 171.304L324.379 164.832H325.558L321.955 174.264H320.842L321.929 171.513H321.012Z" fill="#1A1A1A"/>
<path d="M334.303 171.513V170.02H330.766V165.553L333.255 162.343H335.652L330.989 168.186H334.303V166.195H336.268V168.186H337.355V170.02H336.268V171.513H334.303Z" fill="#1A1A1A"/>
<path d="M260.137 118.623C258.021 120.381 255.273 120.025 253.532 117.929C251.807 115.853 251.985 113.032 254.061 111.308C255.582 110.044 257.384 109.978 258.778 110.693L258.401 111.653C257.385 111.066 255.896 111.077 254.697 112.073C253.094 113.404 252.987 115.571 254.368 117.234C255.766 118.917 257.899 119.189 259.501 117.858C260.63 116.92 261.099 115.373 260.45 113.936L261.485 113.706C262.13 115.384 261.679 117.343 260.137 118.623ZM266.228 113.564C265.14 114.468 263.829 114.365 263.067 113.448C262.263 112.481 262.51 111.322 263.404 110.41L265.111 108.651C264.53 107.993 263.604 107.842 262.727 108.57C261.941 109.223 261.96 110.025 262.251 110.601L261.352 110.973C260.843 109.931 261.057 108.732 262.125 107.845C263.576 106.639 265.086 107.002 265.949 108.04L268.669 111.315L267.863 111.985L266.524 110.373C267.428 111.461 267.226 112.735 266.228 113.564ZM263.873 112.779C264.359 113.363 265.147 113.287 265.762 112.777C266.971 111.772 266.626 110.475 265.973 109.689L265.697 109.357L264.154 110.944C263.496 111.627 263.438 112.255 263.873 112.779ZM270.177 110.063L265.908 104.924L266.714 104.254L268.028 105.836C267.224 104.869 267.23 103.604 268.268 102.742C269.094 102.056 270.252 101.809 271.484 102.965C270.666 101.857 270.797 100.641 271.704 99.8876C272.873 98.9166 274.236 99.2659 275.115 100.324L277.886 103.659L277.079 104.329L274.443 101.155C273.74 100.308 272.797 100.24 272.021 100.884C271.286 101.495 271.116 102.522 271.928 103.499L274.439 106.522L273.633 107.192L270.988 104.008C270.293 103.171 269.28 103.161 268.545 103.772C267.779 104.408 267.735 105.483 268.472 106.37L270.983 109.393L270.177 110.063ZM278.172 95.7411C277.084 96.6452 277.135 98.1011 278.031 99.1794C279.094 100.459 280.486 100.495 281.473 99.6746C282.481 98.8375 282.577 97.3952 281.598 96.2162C280.593 95.007 279.2 94.8873 278.172 95.7411ZM281.155 104.52L275.129 97.2643L275.935 96.5947L277.441 98.4085C276.757 97.2568 276.602 95.8192 277.871 94.7645C279.192 93.6679 281.135 93.978 282.424 95.5298C283.722 97.0917 283.708 99.0441 282.358 100.166C281.31 101.036 279.871 101.005 278.764 100.001L281.961 103.85L281.155 104.52ZM287.445 95.9402C286.357 96.8442 285.045 96.7415 284.284 95.8245C283.48 94.8571 283.727 93.6985 284.62 92.7858L286.327 91.0273C285.746 90.3689 284.821 90.2182 283.944 90.9464C283.158 91.5993 283.177 92.4011 283.468 92.9768L282.568 93.3495C282.06 92.3071 282.273 91.1081 283.341 90.2209C284.792 89.0155 286.303 89.3785 287.165 90.4164L289.886 93.6914L289.08 94.3611L287.74 92.7488C288.644 93.8371 288.443 95.1115 287.445 95.9402ZM285.09 95.1548C285.575 95.7393 286.364 95.6634 286.978 95.1528C288.188 94.1483 287.842 92.8513 287.19 92.0653L286.913 91.7327L285.371 93.3203C284.712 94.0036 284.654 94.6308 285.09 95.1548ZM291.393 92.4391L287.124 87.2998L287.931 86.6302L292.2 91.7694L291.393 92.4391ZM286.376 86.4399L285.514 85.402L286.36 84.6988L287.222 85.7368L286.376 86.4399ZM297.555 91.1184C296.104 92.3238 294.641 92.6536 293.871 91.7265C293.402 91.1622 293.388 90.3051 294.326 89.5266L294.477 89.4011C293.746 89.8544 293.216 89.7496 292.907 89.3768C292.605 89.014 292.625 88.4018 293.243 87.8543C292.352 88.1347 291.435 87.8917 290.782 87.1057C289.861 85.9973 290.152 84.5636 291.28 83.6261C291.684 83.2913 292.175 83.1042 292.404 83.0509L293.905 81.4968L294.575 82.3029L292.761 83.8096C293.695 83.1704 294.491 83.5138 294.901 84.0076C295.73 85.0052 295.38 86.3683 294.302 87.2639C293.99 87.5234 293.656 87.7158 293.31 87.8326C293.254 88.0321 293.298 88.2687 293.432 88.4299C293.674 88.7222 294.065 88.6188 294.347 88.3844L295.768 87.2042C296.847 86.3085 298.029 86.297 298.799 87.2241C299.979 88.6449 298.623 90.2312 297.555 91.1184ZM294.474 90.8335C295.094 91.5792 296.116 91.0876 296.952 90.3929C297.9 89.6061 298.611 88.6578 297.983 87.9021C297.606 87.4486 296.957 87.4258 296.232 88.0285L294.73 89.2757C294.166 89.7444 294.098 90.38 294.474 90.8335ZM291.558 86.4612C292.11 87.1263 292.996 87.2082 293.741 86.5888C294.487 85.9693 294.569 85.0839 294.017 84.4188C293.481 83.7739 292.587 83.6819 291.841 84.3013C291.096 84.9207 291.022 85.8163 291.558 86.4612ZM299.65 85.5808L295.381 80.4416L296.187 79.7719L297.501 81.354C296.882 80.6083 296.673 79.1471 297.821 78.1928C299.041 77.18 300.439 77.5512 301.293 78.5791L304.063 81.9145L303.257 82.5842L300.621 79.4099C299.951 78.6038 298.894 78.5619 298.159 79.1729C297.292 79.8928 297.225 81.0215 297.945 81.8881L300.456 84.9112L299.65 85.5808ZM307.436 79.3344C306.227 80.3389 304.929 80.2932 303.982 79.5638L304.56 78.7428C305.299 79.3042 306.177 79.1714 306.882 78.5855C307.708 77.8991 307.871 77.1513 307.477 76.6776C307.142 76.2746 306.644 76.2285 305.978 76.5948L304.987 77.145C304.104 77.6401 303.14 77.8113 302.378 76.8943C301.7 76.0781 301.841 74.8539 303.03 73.8662C304.058 73.0124 305.306 72.8953 306.249 73.6616L305.691 74.4658C305.125 73.9483 304.301 74.0024 303.616 74.5716C302.88 75.1826 302.782 75.8433 303.134 76.2666C303.468 76.6696 303.945 76.6486 304.601 76.2907L305.61 75.7421C306.55 75.2337 307.533 75.1665 308.253 76.0331C309.015 76.9501 308.696 78.2881 307.436 79.3344Z" fill="#262626"/>
<path d="M316.723 71.6029C315.373 72.7246 313.761 72.7522 312.622 71.8933L313.518 70.1437C313.941 70.5083 314.765 70.7428 315.481 70.1484C316.206 69.5458 316.198 68.6333 315.712 68.0489C315.244 67.4845 314.33 67.307 313.594 67.918C313.06 68.3617 312.925 69.0189 313.033 69.5592L311.21 70.1534L308.496 66.3115L312.879 62.6704L314.009 64.0307L310.876 66.634L312.957 69.5708C311.955 68.1385 312.286 66.876 313.142 66.1646C314.462 65.068 316.258 65.569 317.254 66.7682C318.317 68.0479 318.537 70.0962 316.723 71.6029Z" fill="#262626"/>
<path d="M42.2549 46.0671L217.665 172.107L218.926 173.013H0.686523L0.897461 172.36L41.4873 46.3201L41.6973 45.6667L42.2549 46.0671Z" fill="#DDD9B5" stroke="#E2C641"/>
<path d="M161.327 1.4563L217.848 172.357L218.34 173.844L217.077 172.916L72.0068 66.3567L71.4551 65.9514L72.0088 65.5491L160.559 1.20923L161.112 0.806885L161.327 1.4563Z" fill="#262626" stroke="#E2C641"/>
<path d="M247.247 80.5535L247.039 81.2058L217.849 172.666L217.373 174.158L216.896 172.666L187.706 81.2058L187.498 80.5535H247.247Z" fill="#262626" stroke="#E2C641"/>
<path d="M236.826 115.507L264.438 137.567L264.946 137.973L264.422 138.36L217.67 172.902L216.389 173.849L216.9 172.34L236.039 115.738L236.268 115.063L236.826 115.507Z" fill="#262626" stroke="#E2C641"/>
<path d="M256.827 145.355L265.848 172.355L266.067 173.013H215.773L217.088 172.102L256.068 145.102L256.616 144.723L256.827 145.355Z" fill="#262626" stroke="#E2C641"/>
<path d="M26.8838 162.513V154.339H23.897V153.343H30.9579V154.339H27.958V162.513H26.8838ZM32.5318 162.513V155.832H33.5667V158.505C33.5667 156.959 34.4575 155.767 36.0688 155.767V156.894H35.9247C34.2872 156.894 33.5798 157.994 33.5798 159.265V162.513H32.5318ZM39.4108 162.684C37.996 162.684 37.0528 161.767 37.0528 160.575C37.0528 159.317 37.9829 158.583 39.2536 158.452L41.6902 158.19C41.664 157.313 41.0483 156.605 39.9086 156.605C38.8868 156.605 38.389 157.234 38.2449 157.863L37.3148 157.575C37.5899 156.448 38.52 155.662 39.9086 155.662C41.795 155.662 42.7251 156.907 42.7251 158.256V162.513H41.6771V160.417C41.6771 161.832 40.7077 162.684 39.4108 162.684ZM38.1008 160.575C38.1008 161.334 38.7558 161.78 39.5549 161.78C41.1269 161.78 41.6902 160.562 41.6902 159.54V159.107L39.4894 159.343C38.5462 159.448 38.1008 159.893 38.1008 160.575ZM44.6851 162.513V155.832H45.7331V162.513H44.6851ZM44.6589 154.693V153.343H45.7593V154.693H44.6589ZM47.8322 162.513V155.832H48.8802V157.889C48.8802 156.92 49.6531 155.662 51.1465 155.662C52.7316 155.662 53.57 156.841 53.57 158.177V162.513H52.522V158.387C52.522 157.339 51.736 156.632 50.7797 156.632C49.6531 156.632 48.8802 157.457 48.8802 158.583V162.513H47.8322ZM55.5335 162.513V155.832H56.5815V162.513H55.5335ZM55.5073 154.693V153.343H56.6077V154.693H55.5073ZM58.6806 162.513V155.832H59.7286V157.889C59.7286 156.92 60.5015 155.662 61.9949 155.662C63.58 155.662 64.4184 156.841 64.4184 158.177V162.513H63.3704V158.387C63.3704 157.339 62.5844 156.632 61.6281 156.632C60.5015 156.632 59.7286 157.457 59.7286 158.583V162.513H58.6806ZM68.8186 165.435C66.9322 165.435 65.596 164.754 65.596 163.548C65.596 162.815 66.1331 162.147 67.3514 162.147H67.5479C66.6964 162.029 66.3558 161.61 66.3558 161.125C66.3558 160.653 66.7619 160.195 67.5872 160.169C66.7226 159.815 66.1724 159.042 66.1724 158.02C66.1724 156.579 67.3121 155.662 68.7793 155.662C69.3033 155.662 69.8011 155.832 70.0107 155.937L72.1591 155.701V156.749H69.8011C70.9277 156.854 71.3207 157.627 71.3207 158.269C71.3207 159.566 70.181 160.391 68.7793 160.391C68.3732 160.391 67.9933 160.326 67.6527 160.195C67.4824 160.313 67.3645 160.522 67.3645 160.732C67.3645 161.112 67.7313 161.282 68.0981 161.282H69.9452C71.3469 161.282 72.2639 162.029 72.2639 163.234C72.2639 165.081 70.2072 165.435 68.8186 165.435ZM66.6309 163.247C66.6309 164.216 67.7313 164.492 68.8186 164.492C70.05 164.492 71.2028 164.216 71.2028 163.234C71.2028 162.644 70.7181 162.212 69.7749 162.212H67.823C67.0894 162.212 66.6309 162.658 66.6309 163.247ZM67.1811 158.02C67.1811 158.885 67.8099 159.514 68.7793 159.514C69.7487 159.514 70.3775 158.885 70.3775 158.02C70.3775 157.182 69.7487 156.54 68.7793 156.54C67.8099 156.54 67.1811 157.182 67.1811 158.02ZM75.851 162.684C74.279 162.684 73.3096 161.819 73.0476 160.653L74.017 160.391C74.2266 161.295 74.9864 161.754 75.9034 161.754C76.9776 161.754 77.5802 161.282 77.5802 160.666C77.5802 160.142 77.2265 159.789 76.4798 159.645L75.3663 159.435C74.3707 159.252 73.5192 158.767 73.5192 157.575C73.5192 156.514 74.41 155.662 75.9558 155.662C77.292 155.662 78.3269 156.37 78.5627 157.562L77.6195 157.824C77.5147 157.064 76.8466 156.579 75.9558 156.579C74.9995 156.579 74.5017 157.025 74.5017 157.575C74.5017 158.099 74.8816 158.387 75.6152 158.531L76.7418 158.754C77.7898 158.963 78.5889 159.54 78.5889 160.666C78.5889 161.858 77.4885 162.684 75.851 162.684Z" fill="#262626"/>
<path d="M86.9275 153.933C86.9275 156.435 85.8271 157.077 84.766 157.077V154.915C85.9974 154.915 86.7965 154.483 86.7965 153.54V153.343H88.9056V162.513H86.9275V153.933ZM93.7282 162.684C91.9466 162.684 90.2829 161.832 90.2829 160.182C90.2829 158.728 91.7108 158.125 93.0077 158.348L92.6802 158.217C91.5143 157.745 90.689 156.985 90.689 155.767C90.689 154.103 92.0907 153.173 93.7806 153.173C95.5622 153.173 96.7674 154.077 96.7674 155.374C96.7674 156.291 95.9552 157.169 94.5797 156.907L94.8941 157.025C96.4792 157.64 97.1473 158.636 97.1473 159.736C97.1473 161.348 95.7456 162.684 93.7282 162.684ZM92.2741 159.736C92.2741 160.378 92.9029 160.758 93.7282 160.758C94.5404 160.758 95.0513 160.378 95.0513 159.802C95.0513 159.461 94.8155 159.094 94.1212 158.806L93.5186 158.557C93.0077 158.662 92.2741 159.003 92.2741 159.736ZM92.7064 155.715C92.7064 156.003 92.8636 156.239 93.4662 156.474L94.0295 156.684C94.4487 156.605 94.8941 156.252 94.8941 155.819C94.8941 155.4 94.5142 155.007 93.7413 155.007C93.1387 155.007 92.7064 155.308 92.7064 155.715Z" fill="#262626"/>
<path d="M96.0569 73.625L99.0992 64.7346L93.7798 71.9452L92.9365 71.323L98.3803 63.9437L100.025 65.1569L96.9719 74.0396L104.611 68.5399L106.245 69.7453L100.801 77.1246L99.9574 76.5024L105.277 69.2918L97.6698 74.8148L96.0569 73.625ZM102.641 78.482L106.607 73.1057L107.45 73.7278L103.484 79.1042L102.641 78.482ZM107.262 72.173L108.063 71.0872L108.949 71.7404L108.148 72.8262L107.262 72.173ZM107.423 82.2216C105.81 81.0317 105.537 78.9745 106.735 77.351C107.932 75.7276 110.01 75.4046 111.591 76.5712C112.603 77.3177 113.229 78.5442 112.86 79.9489L111.871 79.789C112.106 79.0509 111.901 78.0045 111.016 77.3512C109.898 76.5269 108.478 76.7975 107.599 77.9887C106.689 79.2221 106.923 80.6482 107.998 81.4415C108.779 82.017 109.83 82.158 110.792 81.5163L111.228 82.3592C109.876 83.2659 108.509 83.0226 107.423 82.2216ZM111.319 84.8843L115.285 79.5079L116.118 80.1223L114.532 82.2728C115.449 81.0289 116.874 80.5984 118.171 81.555L117.502 82.4616L117.386 82.376C116.068 81.4039 114.846 81.8695 114.091 82.892L112.163 85.5064L111.319 84.8843ZM117.492 89.6495C115.868 88.4518 115.554 86.429 116.782 84.7634C118.003 83.1083 120.037 82.8014 121.66 83.999C123.284 85.1967 123.59 87.2301 122.37 88.8851C121.141 90.5507 119.115 90.8471 117.492 89.6495ZM117.647 85.4011C116.752 86.6134 116.924 88.0583 118.052 88.8905C119.18 89.7226 120.611 89.4597 121.505 88.2474C122.376 87.0667 122.228 85.5902 121.1 84.7581C119.972 83.9259 118.518 84.2204 117.647 85.4011ZM123.388 93.9995C122.123 93.0662 121.856 91.795 122.338 90.7012L123.273 91.0659C122.905 91.9177 123.245 92.7377 123.983 93.2821C124.847 93.9198 125.612 93.898 125.977 93.4026C126.289 92.9809 126.214 92.4863 125.699 91.9271L124.927 91.0974C124.235 90.3587 123.837 89.4632 124.545 88.5039C125.175 87.65 126.397 87.4936 127.641 88.4113C128.716 89.2045 129.129 90.3881 128.611 91.4874L127.697 91.1383C128.063 90.4647 127.814 89.678 127.097 89.1492C126.327 88.5815 125.662 88.6444 125.336 89.0871C125.024 89.5088 125.159 89.9663 125.664 90.5177L126.438 91.3658C127.157 92.1566 127.458 93.0948 126.789 94.0014C126.082 94.9607 124.706 94.9716 123.388 93.9995ZM127.225 96.6179L131.191 91.2416L132.034 91.8638L128.068 97.2401L127.225 96.6179ZM131.846 90.3089L132.647 89.2231L133.533 89.8764L132.732 90.9622L131.846 90.3089ZM131.454 99.7383C130.716 99.1939 130.492 98.3284 131.145 97.4429L133.58 94.1433L132.652 93.459L133.196 92.721L134.145 93.421L135.047 92.1981L135.869 92.8047L134.967 94.0276L136.643 95.2641L136.099 96.002L134.423 94.7655L131.989 98.0651C131.67 98.4973 131.798 98.8526 132.125 99.0937L133.148 99.848L132.603 100.586L131.454 99.7383ZM136.102 103.379C134.478 102.181 134.319 100.191 135.547 98.5253C136.815 96.807 138.826 96.6627 140.26 97.7203C141.883 98.918 141.88 100.82 140.783 102.307C140.682 102.444 140.571 102.573 140.49 102.66L136.157 99.4637C135.47 100.617 135.608 101.842 136.662 102.62C137.4 103.164 138.208 103.304 139.028 102.965L139.365 103.832C138.394 104.288 137.167 104.164 136.102 103.379ZM136.712 98.7335L140.233 101.331C140.894 100.435 140.685 99.1737 139.715 98.4582C138.672 97.6883 137.521 97.9463 136.712 98.7335ZM141.723 107.525C140.458 106.592 140.191 105.321 140.673 104.227L141.608 104.592C141.24 105.444 141.58 106.264 142.318 106.808C143.182 107.446 143.947 107.424 144.312 106.929C144.624 106.507 144.549 106.012 144.034 105.453L143.262 104.623C142.57 103.885 142.172 102.989 142.88 102.03C143.51 101.176 144.732 101.02 145.976 101.937C147.051 102.731 147.464 103.914 146.946 105.013L146.032 104.664C146.398 103.991 146.148 103.204 145.432 102.675C144.662 102.107 143.997 102.17 143.67 102.613C143.359 103.035 143.494 103.492 143.999 104.044L144.773 104.892C145.492 105.683 145.793 106.621 145.124 107.527C144.416 108.487 143.041 108.498 141.723 107.525Z" fill="#F5F3EE"/>
<path d="M155.415 106.752C153.929 108.765 152.663 108.629 151.809 107.999L153.092 106.259C154.083 106.99 154.983 107.117 155.542 106.358L155.659 106.2L157.356 107.452L151.913 114.831L150.321 113.657L155.415 106.752ZM155.616 117.758C154.203 116.716 153.79 115.158 154.351 113.846L156.264 114.297C156.011 114.794 155.982 115.651 156.73 116.203C157.489 116.763 158.373 116.536 158.824 115.925C159.259 115.335 159.213 114.405 158.443 113.837C157.884 113.425 157.214 113.451 156.715 113.686L155.702 112.059L158.781 108.503L163.367 111.886L162.317 113.309L159.038 110.89L156.686 113.615C157.836 112.299 159.141 112.317 160.037 112.978C161.418 113.997 161.362 115.86 160.437 117.115C159.449 118.454 157.513 119.158 155.616 117.758Z" fill="#F5F3EE"/>
<path d="M197.463 88.3413L206.183 85.5019L207.266 88.8277C207.834 90.5716 207.129 91.8758 205.908 92.2733C204.861 92.614 203.613 92.2905 203.097 90.7086C203.502 92.1199 202.869 93.1802 201.723 93.5533L199.406 94.3078L199.066 93.2615L201.208 92.5638C202.067 92.2839 202.403 91.6234 202.075 90.6145L201.292 88.2104L197.792 89.3502L197.463 88.3413ZM202.214 87.9103L202.928 90.1026C203.26 91.124 204.209 91.6691 205.231 91.3365C206.153 91.0363 206.701 90.224 206.283 88.941L205.589 86.811L202.214 87.9103ZM200.766 99.035C200.142 97.1167 201.169 95.4047 203.137 94.7638C205.167 94.1026 206.887 95.1544 207.439 96.8484C208.064 98.7667 206.955 100.312 205.199 100.884C205.037 100.937 204.871 100.977 204.755 101.001L203.088 95.882C201.858 96.4203 201.258 97.4973 201.663 98.743C201.947 99.6149 202.523 100.199 203.388 100.4L203.158 101.301C202.103 101.107 201.176 100.293 200.766 99.035ZM203.964 95.6105L205.318 99.7709C206.377 99.4261 206.94 98.2783 206.567 97.1324C206.165 95.8992 205.079 95.4401 203.964 95.6105ZM209.03 104.779C208.591 103.434 207.219 102.944 205.887 103.378C204.305 103.893 203.757 105.173 204.155 106.394C204.56 107.64 205.865 108.262 207.323 107.787C208.817 107.301 209.443 106.05 209.03 104.779ZM199.77 104.309L208.738 101.388L209.063 102.385L206.821 103.115C208.144 102.905 209.537 103.291 210.048 104.861C210.579 106.493 209.573 108.184 207.655 108.809C205.724 109.437 203.915 108.704 203.372 107.035C202.95 105.739 203.51 104.414 204.853 103.756L200.094 105.305L199.77 104.309ZM205.703 114.195C205.078 112.277 205.998 110.448 207.966 109.807C209.922 109.17 211.755 110.103 212.38 112.021C213.004 113.939 212.072 115.772 210.116 116.409C208.148 117.05 206.328 116.113 205.703 114.195ZM208.299 110.828C206.867 111.295 206.166 112.57 206.6 113.903C207.034 115.236 208.351 115.854 209.784 115.387C211.179 114.933 211.917 113.646 211.483 112.313C211.049 110.98 209.694 110.374 208.299 110.828ZM207.428 118.942L213.781 116.874L214.101 117.858L211.56 118.685C213.03 118.206 214.439 118.684 214.938 120.216L213.867 120.565L213.822 120.428C213.315 118.871 212.05 118.539 210.842 118.933L207.753 119.939L207.428 118.942ZM209.622 125.68C209.338 124.808 209.659 123.973 210.705 123.632L214.604 122.363L214.247 121.267L215.119 120.983L215.484 122.104L216.929 121.633L217.245 122.605L215.8 123.075L216.445 125.056L215.573 125.34L214.928 123.359L211.029 124.629C210.519 124.795 210.417 125.159 210.543 125.545L210.936 126.753L210.064 127.037L209.622 125.68ZM211.125 130.845C210.638 129.35 211.16 128.161 212.188 127.551L212.737 128.391C211.942 128.871 211.742 129.735 212.026 130.607C212.358 131.628 212.993 132.055 213.579 131.865C214.077 131.702 214.304 131.257 214.209 130.502L214.064 129.378C213.93 128.375 214.127 127.415 215.261 127.046C216.27 126.717 217.355 127.301 217.834 128.771C218.248 130.041 217.895 131.244 216.835 131.838L216.294 131.022C216.984 130.687 217.238 129.902 216.962 129.055C216.666 128.145 216.088 127.81 215.565 127.98C215.067 128.142 214.91 128.593 215.001 129.335L215.138 130.475C215.263 131.537 214.962 132.475 213.891 132.824C212.757 133.193 211.632 132.402 211.125 130.845Z" fill="#F5F3EE"/>
<path d="M214.845 142.227C214.301 140.558 214.871 139.05 216.09 138.309L217.385 139.788C216.89 140.046 216.367 140.726 216.655 141.61C216.947 142.507 217.798 142.836 218.521 142.601C219.218 142.374 219.721 141.59 219.425 140.681C219.21 140.021 218.649 139.652 218.107 139.553L218.228 137.64L222.801 136.537L224.565 141.955L222.884 142.503L221.622 138.629L218.124 139.479C219.825 139.076 220.876 139.85 221.221 140.909C221.753 142.54 220.624 144.024 219.142 144.507C217.56 145.022 215.575 144.469 214.845 142.227Z" fill="#F5F3EE"/>
</svg>
