<svg width="382" height="186" viewBox="0 0 382 186" fill="none" xmlns="http://www.w3.org/2000/svg">
<path d="M224.00 179.00L8.00 179.00L48.59 52.96Z" fill="#DDD9B5"/>
<text x="77.1" y="171.0" fill="#262626" font-family="'Helvetica Neue', Helvetica, Arial, sans-serif" font-size="11" font-weight="600" letter-spacing="0.5">18</text>
<text x="77.1" y="159.0" fill="#262626" font-family="'Helvetica Neue', Helvetica, Arial, sans-serif" font-size="8.5" letter-spacing="0.3">Trainings</text>
<path d="M224.00 179.00L78.93 72.44L167.48 8.10Z" fill="#262626"/>
<text x="151.1" y="90.6" fill="#F5F3EE" font-family="'Helvetica Neue', Helvetica, Arial, sans-serif" font-size="8.5" letter-spacing="0.3" text-anchor="middle" dominant-baseline="central" transform="rotate(54.0 151.1 90.6)">Microsites</text>
<text x="162.5" y="82.4" fill="#F5F3EE" font-family="'Helvetica Neue', Helvetica, Arial, sans-serif" font-size="12" font-weight="600" letter-spacing="0.5" text-anchor="middle" dominant-baseline="central" transform="rotate(54.0 162.5 82.4)">15</text>
<path d="M224.00 179.00L194.81 87.54L253.19 87.54Z" fill="#262626"/>
<text x="217.0" y="118.0" fill="#F5F3EE" font-family="'Helvetica Neue', Helvetica, Arial, sans-serif" font-size="8.5" letter-spacing="0.3" text-anchor="middle" dominant-baseline="central" transform="rotate(-90.0 217.0 118.0)">Campaigns</text>
<text x="231.0" y="118.0" fill="#F5F3EE" font-family="'Helvetica Neue', Helvetica, Arial, sans-serif" font-size="12" font-weight="600" letter-spacing="0.5" text-anchor="middle" dominant-baseline="central" transform="rotate(-90.0 231.0 118.0)">8</text>
<path d="M224.00 179.00L242.84 122.03L272.36 143.48Z" fill="#262626"/>
<text x="246.4" y="148.2" fill="#F5F3EE" font-family="'Helvetica Neue', Helvetica, Arial, sans-serif" font-size="9" font-weight="600" letter-spacing="0.5" text-anchor="middle" dominant-baseline="central" transform="rotate(-54.0 246.4 148.2)">5</text>
<text x="267.0" y="119.8" fill="#262626" font-family="'Helvetica Neue', Helvetica, Arial, sans-serif" font-size="7.5" letter-spacing="0.3" text-anchor="middle" dominant-baseline="central" transform="rotate(-36.0 267.0 119.8)">Reports</text>
<path d="M224.00 179.00L262.98 150.99L272.00 179.00Z" fill="#262626"/>
<text x="253.0" y="169.7" fill="#F5F3EE" font-family="'Helvetica Neue', Helvetica, Arial, sans-serif" font-size="9" font-weight="600" letter-spacing="0.5" text-anchor="middle" dominant-baseline="central" transform="rotate(-17.9 253.0 169.7)">4</text>
<text x="282.7" y="160.1" fill="#262626" font-family="'Helvetica Neue', Helvetica, Arial, sans-serif" font-size="7.5" letter-spacing="0.3" text-anchor="middle" dominant-baseline="central" transform="rotate(-72.2 282.7 160.1)">Strategy</text>
<text x="302.0" y="165.0" fill="#262626" font-family="'Helvetica Neue', Helvetica, Arial, sans-serif" font-size="8.5" letter-spacing="0.3">Platforms &amp;</text>
<text x="302.0" y="176.0" fill="#262626" font-family="'Helvetica Neue', Helvetica, Arial, sans-serif" font-size="8.5" letter-spacing="0.3">microsites</text>
</svg>