<svg width="447" height="244" viewBox="0 0 447 244" fill="none" xmlns="http://www.w3.org/2000/svg">
<path d="M87.9368 201.472C82.8883 201.954 77.8053 201.954 72.7568 201.472C67.7083 200.99 62.7172 200.028 57.8511 198.599C52.9851 197.17 48.2662 195.281 43.7585 192.957C39.2508 190.633 34.9747 187.885 30.9882 184.75C27.0018 181.615 23.3231 178.108 20.002 174.275C16.6808 170.442 13.7324 166.302 11.1967 161.91C8.66094 157.518 6.5494 152.894 4.89069 148.101C3.23199 143.309 2.03363 138.369 1.31188 133.349C0.590126 128.33 0.348266 123.252 0.589579 118.187C0.83089 113.121 1.55428 108.09 2.74992 103.161C3.94556 98.2326 5.60804 93.4291 7.71481 88.816C9.82158 84.2028 12.3631 79.8008 15.3048 75.6697C18.2466 71.5386 21.5752 67.6971 25.2456 64.1974C28.916 60.6977 32.9115 57.5556 37.1779 54.8137C41.4443 52.0719 45.9622 49.7427 50.6704 47.8579C55.3786 45.973 60.2557 44.5409 65.2355 43.5812C70.2154 42.6214 75.2753 42.1382 80.3468 42.1382C85.4183 42.1382 90.4783 42.6214 95.4581 43.5812C100.438 44.541 105.315 45.973 110.023 47.8579C114.731 49.7427 119.249 52.0719 123.516 54.8137C127.782 57.5556 131.778 60.6977 135.448 64.1974C139.118 67.6971 142.447 71.5386 145.389 75.6697C148.331 79.8008 150.872 84.2028 152.979 88.816C155.086 93.4292 156.748 98.2326 157.944 103.161C159.139 108.09 159.863 113.121 160.104 118.187C160.345 123.252 160.103 128.33 159.382 133.349C158.66 138.369 157.462 143.309 155.803 148.101C154.144 152.894 152.033 157.518 149.497 161.91C146.961 166.302 144.013 170.442 140.692 174.275C137.371 178.108 133.692 181.615 129.705 184.75C125.719 187.885 121.443 190.633 116.935 192.957C112.427 195.281 107.709 197.17 102.842 198.599C97.9764 200.028 92.9853 200.99 87.9368 201.472Z" stroke="#262626"/>
<path d="M45.7374 126.138V117.964H42.7506V116.968H49.8115V117.964H46.8116V126.138H45.7374ZM51.3853 126.138V119.457H52.4202V122.13C52.4202 120.584 53.311 119.392 54.9223 119.392V120.518H54.7782C53.1407 120.518 52.4333 121.619 52.4333 122.889V126.138H51.3853ZM58.2643 126.309C56.8495 126.309 55.9063 125.392 55.9063 124.199C55.9063 122.942 56.8364 122.208 58.1071 122.077L60.5437 121.815C60.5175 120.938 59.9018 120.23 58.7621 120.23C57.7403 120.23 57.2425 120.859 57.0984 121.488L56.1683 121.2C56.4434 120.073 57.3735 119.287 58.7621 119.287C60.6485 119.287 61.5786 120.531 61.5786 121.881V126.138H60.5306V124.042C60.5306 125.457 59.5612 126.309 58.2643 126.309ZM56.9543 124.199C56.9543 124.959 57.6093 125.405 58.4084 125.405C59.9804 125.405 60.5437 124.186 60.5437 123.165V122.732L58.3429 122.968C57.3997 123.073 56.9543 123.518 56.9543 124.199ZM63.5386 126.138V119.457H64.5866V126.138H63.5386ZM63.5124 118.318V116.968H64.6128V118.318H63.5124ZM66.6857 126.138V119.457H67.7337V121.514C67.7337 120.545 68.5066 119.287 70 119.287C71.5851 119.287 72.4235 120.466 72.4235 121.802V126.138H71.3755V122.012C71.3755 120.964 70.5895 120.256 69.6332 120.256C68.5066 120.256 67.7337 121.082 67.7337 122.208V126.138H66.6857ZM74.3871 126.138V119.457H75.4351V126.138H74.3871ZM74.3609 118.318V116.968H75.4613V118.318H74.3609ZM77.5341 126.138V119.457H78.5821V121.514C78.5821 120.545 79.355 119.287 80.8484 119.287C82.4335 119.287 83.2719 120.466 83.2719 121.802V126.138H82.2239V122.012C82.2239 120.964 81.4379 120.256 80.4816 120.256C79.355 120.256 78.5821 121.082 78.5821 122.208V126.138H77.5341ZM87.6721 129.06C85.7857 129.06 84.4495 128.378 84.4495 127.173C84.4495 126.44 84.9866 125.771 86.2049 125.771H86.4014C85.5499 125.654 85.2093 125.234 85.2093 124.75C85.2093 124.278 85.6154 123.82 86.4407 123.793C85.5761 123.44 85.0259 122.667 85.0259 121.645C85.0259 120.204 86.1656 119.287 87.6328 119.287C88.1568 119.287 88.6546 119.457 88.8642 119.562L91.0126 119.326V120.374H88.6546C89.7812 120.479 90.1742 121.252 90.1742 121.894C90.1742 123.191 89.0345 124.016 87.6328 124.016C87.2267 124.016 86.8468 123.951 86.5062 123.82C86.3359 123.937 86.218 124.147 86.218 124.357C86.218 124.737 86.5848 124.907 86.9516 124.907H88.7987C90.2004 124.907 91.1174 125.654 91.1174 126.859C91.1174 128.706 89.0607 129.06 87.6721 129.06ZM85.4844 126.872C85.4844 127.841 86.5848 128.116 87.6721 128.116C88.9035 128.116 90.0563 127.841 90.0563 126.859C90.0563 126.269 89.5716 125.837 88.6284 125.837H86.6765C85.9429 125.837 85.4844 126.282 85.4844 126.872ZM86.0346 121.645C86.0346 122.51 86.6634 123.138 87.6328 123.138C88.6022 123.138 89.231 122.51 89.231 121.645C89.231 120.807 88.6022 120.165 87.6328 120.165C86.6634 120.165 86.0346 120.807 86.0346 121.645ZM94.7046 126.309C93.1326 126.309 92.1632 125.444 91.9012 124.278L92.8706 124.016C93.0802 124.92 93.84 125.378 94.757 125.378C95.8312 125.378 96.4338 124.907 96.4338 124.291C96.4338 123.767 96.0801 123.413 95.3334 123.269L94.2199 123.06C93.2243 122.876 92.3728 122.392 92.3728 121.2C92.3728 120.138 93.2636 119.287 94.8094 119.287C96.1456 119.287 97.1805 119.994 97.4163 121.186L96.4731 121.448C96.3683 120.689 95.7002 120.204 94.8094 120.204C93.8531 120.204 93.3553 120.649 93.3553 121.2C93.3553 121.724 93.7352 122.012 94.4688 122.156L95.5954 122.379C96.6434 122.588 97.4425 123.165 97.4425 124.291C97.4425 125.483 96.3421 126.309 94.7046 126.309Z" fill="#262626"/>
<path d="M105.781 117.558C105.781 120.06 104.681 120.702 103.62 120.702V118.54C104.851 118.54 105.65 118.108 105.65 117.165V116.968H107.759V126.138H105.781V117.558ZM112.582 126.309C110.8 126.309 109.136 125.457 109.136 123.806C109.136 122.352 110.564 121.75 111.861 121.972L111.534 121.841C110.368 121.37 109.543 120.61 109.543 119.392C109.543 117.728 110.944 116.798 112.634 116.798C114.416 116.798 115.621 117.702 115.621 118.999C115.621 119.916 114.809 120.793 113.433 120.531L113.748 120.649C115.333 121.265 116.001 122.261 116.001 123.361C116.001 124.972 114.599 126.309 112.582 126.309ZM111.128 123.361C111.128 124.003 111.756 124.383 112.582 124.383C113.394 124.383 113.905 124.003 113.905 123.427C113.905 123.086 113.669 122.719 112.975 122.431L112.372 122.182C111.861 122.287 111.128 122.627 111.128 123.361ZM111.56 119.339C111.56 119.628 111.717 119.863 112.32 120.099L112.883 120.309C113.302 120.23 113.748 119.876 113.748 119.444C113.748 119.025 113.368 118.632 112.595 118.632C111.992 118.632 111.56 118.933 111.56 119.339Z" fill="#262626"/>
<path d="M288.59 198.879C283.84 199.347 279.055 199.347 274.305 198.879C269.555 198.411 264.862 197.478 260.295 196.092C255.727 194.707 251.307 192.876 247.097 190.626C242.888 188.376 238.909 185.717 235.22 182.689C231.53 179.661 228.147 176.278 225.119 172.588C222.091 168.899 219.433 164.92 217.183 160.711C214.932 156.501 213.101 152.081 211.716 147.513C210.33 142.946 209.397 138.253 208.929 133.503C208.461 128.753 208.461 123.968 208.929 119.218C209.397 114.468 210.33 109.775 211.716 105.208C213.101 100.64 214.932 96.2194 217.183 92.0099C219.433 87.8004 222.091 83.8221 225.119 80.1325C228.147 76.4428 231.53 73.0595 235.22 70.0314C238.909 67.0034 242.888 64.3452 247.097 62.0952C251.307 59.8451 255.727 58.0141 260.295 56.6285C264.862 55.243 269.555 54.3096 274.305 53.8417C279.055 53.3739 283.84 53.3739 288.59 53.8417C293.34 54.3096 298.033 55.243 302.601 56.6285C307.168 58.0141 311.589 59.8451 315.798 62.0952C320.008 64.3452 323.986 67.0034 327.676 70.0314C331.365 73.0595 334.749 76.4427 337.777 80.1324C340.805 83.8221 343.463 87.8004 345.713 92.0099C347.963 96.2195 349.794 100.64 351.18 105.207C352.565 109.775 353.499 114.468 353.966 119.218C354.434 123.968 354.434 128.753 353.966 133.503C353.499 138.253 352.565 142.946 351.18 147.513C349.794 152.081 347.963 156.501 345.713 160.711C343.463 164.92 340.805 168.899 337.777 172.588C334.749 176.278 331.365 179.661 327.676 182.689C323.986 185.717 320.008 188.376 315.798 190.626C311.589 192.876 307.168 194.707 302.601 196.092C298.033 197.478 293.34 198.411 288.59 198.879Z" fill="#F5F3EE" stroke="#262626"/>
<path d="M244.347 131.138L241.517 122.178V131.138H240.469V121.968H242.513L245.329 130.929L248.211 121.968H250.242V131.138H249.194V122.178L246.351 131.138H244.347ZM252.528 131.138V124.457H253.576V131.138H252.528ZM252.502 123.318V121.968H253.602V123.318H252.502ZM258.597 131.309C256.592 131.309 255.151 129.815 255.151 127.798C255.151 125.78 256.632 124.287 258.597 124.287C259.854 124.287 261.086 124.903 261.623 126.252L260.732 126.71C260.483 125.977 259.697 125.256 258.597 125.256C257.208 125.256 256.226 126.317 256.226 127.798C256.226 129.33 257.26 130.339 258.597 130.339C259.566 130.339 260.496 129.828 260.889 128.741L261.741 129.16C261.19 130.693 259.946 131.309 258.597 131.309ZM263.313 131.138V124.457H264.348V127.13C264.348 125.584 265.238 124.392 266.85 124.392V125.518H266.706C265.068 125.518 264.361 126.619 264.361 127.889V131.138H263.313ZM271.109 131.309C269.091 131.309 267.637 129.868 267.637 127.798C267.637 125.741 269.091 124.287 271.109 124.287C273.126 124.287 274.58 125.741 274.58 127.798C274.58 129.868 273.126 131.309 271.109 131.309ZM268.711 127.798C268.711 129.304 269.707 130.365 271.109 130.365C272.51 130.365 273.506 129.304 273.506 127.798C273.506 126.331 272.51 125.23 271.109 125.23C269.707 125.23 268.711 126.331 268.711 127.798ZM278.436 131.309C276.864 131.309 275.895 130.444 275.633 129.278L276.602 129.016C276.812 129.92 277.572 130.378 278.489 130.378C279.563 130.378 280.165 129.907 280.165 129.291C280.165 128.767 279.812 128.413 279.065 128.269L277.952 128.06C276.956 127.876 276.104 127.392 276.104 126.2C276.104 125.138 276.995 124.287 278.541 124.287C279.877 124.287 280.912 124.994 281.148 126.186L280.205 126.448C280.1 125.689 279.432 125.204 278.541 125.204C277.585 125.204 277.087 125.649 277.087 126.2C277.087 126.724 277.467 127.012 278.2 127.156L279.327 127.379C280.375 127.588 281.174 128.165 281.174 129.291C281.174 130.483 280.074 131.309 278.436 131.309ZM283.078 131.138V124.457H284.126V131.138H283.078ZM283.052 123.318V121.968H284.152V123.318H283.052ZM288.334 131.138C287.417 131.138 286.723 130.575 286.723 129.475V125.374H285.57V124.457H286.749V122.938H287.771V124.457H289.854V125.374H287.771V129.475C287.771 130.012 288.085 130.221 288.491 130.221H289.762V131.138H288.334ZM294.235 131.309C292.218 131.309 290.908 129.802 290.908 127.732C290.908 125.597 292.44 124.287 294.222 124.287C296.239 124.287 297.366 125.82 297.366 127.667C297.366 127.837 297.353 128.007 297.34 128.125H291.956C292.087 129.461 292.925 130.365 294.235 130.365C295.152 130.365 295.886 129.999 296.344 129.239L297.13 129.737C296.619 130.68 295.558 131.309 294.235 131.309ZM291.969 127.208H296.344C296.344 126.095 295.427 125.204 294.222 125.204C292.925 125.204 292.152 126.095 291.969 127.208ZM301.221 131.309C299.649 131.309 298.679 130.444 298.417 129.278L299.387 129.016C299.596 129.92 300.356 130.378 301.273 130.378C302.347 130.378 302.95 129.907 302.95 129.291C302.95 128.767 302.596 128.413 301.849 128.269L300.736 128.06C299.74 127.876 298.889 127.392 298.889 126.2C298.889 125.138 299.78 124.287 301.325 124.287C302.662 124.287 303.696 124.994 303.932 126.186L302.989 126.448C302.884 125.689 302.216 125.204 301.325 125.204C300.369 125.204 299.871 125.649 299.871 126.2C299.871 126.724 300.251 127.012 300.985 127.156L302.111 127.379C303.159 127.588 303.958 128.165 303.958 129.291C303.958 130.483 302.858 131.309 301.221 131.309Z" fill="#262626"/>
<path d="M312.779 122.558C312.779 125.06 311.679 125.702 310.618 125.702V123.54C311.849 123.54 312.648 123.108 312.648 122.165V121.968H314.757V131.138H312.779V122.558ZM319.475 131.295C317.72 131.295 316.462 130.287 316.134 128.898L317.942 128.125C318.034 128.675 318.519 129.383 319.449 129.383C320.392 129.383 320.968 128.675 320.968 127.916C320.968 127.182 320.379 126.462 319.423 126.462C318.728 126.462 318.204 126.881 317.942 127.365L316.161 126.658L316.527 121.968H322.226V123.737H318.152L317.877 127.326C318.021 125.584 319.082 124.824 320.195 124.824C321.912 124.824 322.973 126.357 322.973 127.916C322.973 129.579 321.833 131.295 319.475 131.295Z" fill="#262626"/>
<path d="M374.969 83.9678C371.338 84.4459 367.659 84.4459 364.028 83.9678C360.396 83.4897 356.843 82.5376 353.459 81.1359C350.075 79.7342 346.889 77.8949 343.983 75.6651C341.078 73.4353 338.476 70.8342 336.247 67.9283C334.017 65.0224 332.178 61.8367 330.776 58.4527C329.374 55.0686 328.422 51.5154 327.944 47.8839C327.466 44.2524 327.466 40.5739 327.944 36.9424C328.422 33.3109 329.374 29.7577 330.776 26.3737C332.178 22.9897 334.017 19.804 336.247 16.8981C338.476 13.9921 341.078 11.391 343.983 9.16122C346.889 6.93142 350.075 5.09217 353.459 3.69046C356.843 2.28875 360.396 1.33668 364.028 0.858579C367.659 0.380482 371.338 0.380482 374.969 0.85858C378.601 1.33668 382.154 2.28875 385.538 3.69046C388.922 5.09217 392.108 6.93143 395.014 9.16122C397.92 11.391 400.521 13.9921 402.751 16.8981C404.98 19.804 406.82 22.9897 408.221 26.3737C409.623 29.7577 410.575 33.3109 411.053 36.9424C411.531 40.5739 411.531 44.2524 411.053 47.8839C410.575 51.5155 409.623 55.0686 408.221 58.4527C406.82 61.8367 404.98 65.0224 402.751 67.9283C400.521 70.8342 397.92 73.4353 395.014 75.6651C392.108 77.8949 388.922 79.7342 385.538 81.1359C382.154 82.5376 378.601 83.4897 374.969 83.9678Z" fill="#F5F3EE" stroke="#262626"/>
<path d="M340.471 47.1382V37.9682H343.969C345.803 37.9682 346.825 39.0424 346.825 40.3262C346.825 41.4266 346.13 42.5139 344.467 42.5139C345.934 42.5663 346.746 43.4964 346.746 44.7016V47.1382H345.646V44.885C345.646 43.9811 345.122 43.4571 344.06 43.4571H341.532V47.1382H340.471ZM341.532 42.4877H343.838C344.912 42.4877 345.724 41.7541 345.724 40.6799C345.724 39.7105 345.122 38.9376 343.772 38.9376H341.532V42.4877ZM351.662 47.3085C349.645 47.3085 348.335 45.802 348.335 43.7322C348.335 41.5969 349.867 40.2869 351.649 40.2869C353.666 40.2869 354.793 41.8196 354.793 43.6667C354.793 43.837 354.78 44.0073 354.767 44.1252H349.383C349.514 45.4614 350.352 46.3653 351.662 46.3653C352.579 46.3653 353.313 45.9985 353.771 45.2387L354.557 45.7365C354.046 46.6797 352.985 47.3085 351.662 47.3085ZM349.396 43.2082H353.771C353.771 42.0947 352.854 41.2039 351.649 41.2039C350.352 41.2039 349.579 42.0947 349.396 43.2082ZM359.682 41.2301C358.268 41.2301 357.377 42.3829 357.377 43.7846C357.377 45.4483 358.425 46.3653 359.709 46.3653C361.019 46.3653 362.014 45.3173 362.014 43.7846C362.014 42.2126 361.019 41.2301 359.682 41.2301ZM356.368 49.8892V40.4572H357.416V42.8152C357.626 41.4921 358.425 40.2869 360.075 40.2869C361.792 40.2869 363.088 41.7672 363.088 43.7846C363.088 45.8151 361.831 47.3085 360.075 47.3085C358.713 47.3085 357.626 46.3653 357.416 44.885V49.8892H356.368ZM367.605 47.3085C365.588 47.3085 364.134 45.8675 364.134 43.7977C364.134 41.741 365.588 40.2869 367.605 40.2869C369.623 40.2869 371.077 41.741 371.077 43.7977C371.077 45.8675 369.623 47.3085 367.605 47.3085ZM365.208 43.7977C365.208 45.3042 366.204 46.3653 367.605 46.3653C369.007 46.3653 370.003 45.3042 370.003 43.7977C370.003 42.3305 369.007 41.2301 367.605 41.2301C366.204 41.2301 365.208 42.3305 365.208 43.7977ZM372.654 47.1382V40.4572H373.688V43.1296C373.688 41.5838 374.579 40.3917 376.191 40.3917V41.5183H376.046C374.409 41.5183 373.702 42.6187 373.702 43.8894V47.1382H372.654ZM379.739 47.1382C378.822 47.1382 378.128 46.5749 378.128 45.4745V41.3742H376.975V40.4572H378.154V38.9376H379.176V40.4572H381.259V41.3742H379.176V45.4745C379.176 46.0116 379.49 46.2212 379.896 46.2212H381.167V47.1382H379.739ZM385.116 47.3085C383.544 47.3085 382.575 46.4439 382.313 45.278L383.282 45.016C383.492 45.9199 384.252 46.3784 385.169 46.3784C386.243 46.3784 386.845 45.9068 386.845 45.2911C386.845 44.7671 386.492 44.4134 385.745 44.2693L384.631 44.0597C383.636 43.8763 382.784 43.3916 382.784 42.1995C382.784 41.1384 383.675 40.2869 385.221 40.2869C386.557 40.2869 387.592 40.9943 387.828 42.1864L386.885 42.4484C386.78 41.6886 386.112 41.2039 385.221 41.2039C384.265 41.2039 383.767 41.6493 383.767 42.1995C383.767 42.7235 384.147 43.0117 384.88 43.1558L386.007 43.3785C387.055 43.5881 387.854 44.1645 387.854 45.2911C387.854 46.4832 386.754 47.3085 385.116 47.3085Z" fill="#262626"/>
<path d="M396.091 47.2954C394.336 47.2954 393.078 46.2867 392.751 44.8981L394.558 44.1252C394.65 44.6754 395.135 45.3828 396.065 45.3828C397.008 45.3828 397.584 44.6754 397.584 43.9156C397.584 43.182 396.995 42.4615 396.039 42.4615C395.344 42.4615 394.82 42.8807 394.558 43.3654L392.777 42.658L393.144 37.9682H398.842V39.7367H394.768L394.493 43.3261C394.637 41.5838 395.698 40.824 396.812 40.824C398.528 40.824 399.589 42.3567 399.589 43.9156C399.589 45.5793 398.449 47.2954 396.091 47.2954Z" fill="#262626"/>
<path d="M409.774 169.299C406.143 169.777 402.464 169.777 398.833 169.299C395.201 168.821 391.648 167.869 388.264 166.467C384.88 165.065 381.694 163.226 378.788 160.996C375.882 158.767 373.281 156.165 371.051 153.259C368.822 150.354 366.982 147.168 365.581 143.784C364.179 140.4 363.227 136.847 362.749 133.215C362.271 129.584 362.271 125.905 362.749 122.274C363.227 118.642 364.179 115.089 365.581 111.705C366.982 108.321 368.822 105.135 371.051 102.229C373.281 99.3233 375.882 96.7222 378.788 94.4924C381.694 92.2626 384.88 90.4233 388.264 89.0216C391.648 87.6199 395.201 86.6679 398.833 86.1898C402.464 85.7117 406.143 85.7117 409.774 86.1898C413.406 86.6679 416.959 87.6199 420.343 89.0216C423.727 90.4233 426.912 92.2626 429.818 94.4924C432.724 96.7222 435.325 99.3233 437.555 102.229C439.785 105.135 441.624 108.321 443.026 111.705C444.428 115.089 445.38 118.642 445.858 122.274C446.336 125.905 446.336 129.584 445.858 133.215C445.38 136.847 444.428 140.4 443.026 143.784C441.624 147.168 439.785 150.354 437.555 153.259C435.325 156.165 432.724 158.767 429.818 160.996C426.912 163.226 423.727 165.065 420.343 166.467C416.959 167.869 413.406 168.821 409.774 169.299Z" fill="#F5F3EE" stroke="#262626"/>
<path d="M374.517 123.309C371.766 123.309 369.88 121.278 369.88 118.553C369.88 115.855 371.818 113.798 374.517 113.798C376.495 113.798 377.923 114.898 378.539 116.339L377.635 116.837C377.229 115.737 376.076 114.794 374.517 114.794C372.434 114.794 370.967 116.392 370.967 118.553C370.967 120.741 372.434 122.313 374.517 122.313C375.984 122.313 377.334 121.422 377.753 119.903L378.696 120.387C378.12 122.09 376.521 123.309 374.517 123.309ZM382.435 123.309C381.02 123.309 380.077 122.392 380.077 121.199C380.077 119.942 381.007 119.208 382.278 119.077L384.715 118.815C384.688 117.938 384.073 117.23 382.933 117.23C381.911 117.23 381.413 117.859 381.269 118.488L380.339 118.2C380.614 117.073 381.544 116.287 382.933 116.287C384.819 116.287 385.749 117.531 385.749 118.881V123.138H384.701V121.042C384.701 122.457 383.732 123.309 382.435 123.309ZM381.125 121.199C381.125 121.959 381.78 122.405 382.579 122.405C384.151 122.405 384.715 121.186 384.715 120.165V119.732L382.514 119.968C381.571 120.073 381.125 120.518 381.125 121.199ZM387.709 123.138V116.457H388.757V118.514C388.757 117.256 389.57 116.287 390.919 116.287C391.993 116.287 393.041 116.837 393.251 118.514C393.329 117.138 394.207 116.287 395.386 116.287C396.906 116.287 397.731 117.427 397.731 118.802V123.138H396.683V119.012C396.683 117.911 396.002 117.256 394.993 117.256C394.037 117.256 393.251 117.938 393.251 119.208V123.138H392.203V118.999C392.203 117.911 391.43 117.256 390.474 117.256C389.478 117.256 388.757 118.055 388.757 119.208V123.138H387.709ZM403.011 117.23C401.596 117.23 400.705 118.383 400.705 119.785C400.705 121.448 401.753 122.365 403.037 122.365C404.347 122.365 405.343 121.317 405.343 119.785C405.343 118.213 404.347 117.23 403.011 117.23ZM399.696 125.889V116.457H400.744V118.815C400.954 117.492 401.753 116.287 403.404 116.287C405.12 116.287 406.417 117.767 406.417 119.785C406.417 121.815 405.159 123.309 403.404 123.309C402.041 123.309 400.954 122.365 400.744 120.885V125.889H399.696ZM410.017 123.309C408.602 123.309 407.659 122.392 407.659 121.199C407.659 119.942 408.589 119.208 409.86 119.077L412.296 118.815C412.27 117.938 411.654 117.23 410.515 117.23C409.493 117.23 408.995 117.859 408.851 118.488L407.921 118.2C408.196 117.073 409.126 116.287 410.515 116.287C412.401 116.287 413.331 117.531 413.331 118.881V123.138H412.283V121.042C412.283 122.457 411.314 123.309 410.017 123.309ZM408.707 121.199C408.707 121.959 409.362 122.405 410.161 122.405C411.733 122.405 412.296 121.186 412.296 120.165V119.732L410.095 119.968C409.152 120.073 408.707 120.518 408.707 121.199ZM415.291 123.138V116.457H416.339V123.138H415.291ZM415.265 115.318V113.968H416.365V115.318H415.265ZM420.875 126.06C418.988 126.06 417.652 125.378 417.652 124.173C417.652 123.44 418.189 122.771 419.408 122.771H419.604C418.753 122.654 418.412 122.234 418.412 121.75C418.412 121.278 418.818 120.82 419.643 120.793C418.779 120.44 418.229 119.667 418.229 118.645C418.229 117.204 419.368 116.287 420.835 116.287C421.359 116.287 421.857 116.457 422.067 116.562L424.215 116.326V117.374H421.857C422.984 117.479 423.377 118.252 423.377 118.894C423.377 120.191 422.237 121.016 420.835 121.016C420.429 121.016 420.049 120.951 419.709 120.82C419.539 120.937 419.421 121.147 419.421 121.357C419.421 121.737 419.787 121.907 420.154 121.907H422.001C423.403 121.907 424.32 122.654 424.32 123.859C424.32 125.706 422.263 126.06 420.875 126.06ZM418.687 123.872C418.687 124.841 419.787 125.116 420.875 125.116C422.106 125.116 423.259 124.841 423.259 123.859C423.259 123.269 422.774 122.837 421.831 122.837H419.879C419.146 122.837 418.687 123.282 418.687 123.872ZM419.237 118.645C419.237 119.51 419.866 120.138 420.835 120.138C421.805 120.138 422.434 119.51 422.434 118.645C422.434 117.807 421.805 117.165 420.835 117.165C419.866 117.165 419.237 117.807 419.237 118.645ZM426.024 123.138V116.457H427.072V118.514C427.072 117.545 427.845 116.287 429.339 116.287C430.924 116.287 431.762 117.466 431.762 118.802V123.138H430.714V119.012C430.714 117.964 429.928 117.256 428.972 117.256C427.845 117.256 427.072 118.082 427.072 119.208V123.138H426.024ZM436.005 123.309C434.433 123.309 433.464 122.444 433.202 121.278L434.171 121.016C434.381 121.92 435.141 122.378 436.058 122.378C437.132 122.378 437.734 121.907 437.734 121.291C437.734 120.767 437.381 120.413 436.634 120.269L435.52 120.06C434.525 119.876 433.673 119.392 433.673 118.2C433.673 117.138 434.564 116.287 436.11 116.287C437.446 116.287 438.481 116.994 438.717 118.186L437.774 118.448C437.669 117.689 437.001 117.204 436.11 117.204C435.154 117.204 434.656 117.649 434.656 118.2C434.656 118.724 435.036 119.012 435.769 119.156L436.896 119.379C437.944 119.588 438.743 120.165 438.743 121.291C438.743 122.483 437.643 123.309 436.005 123.309Z" fill="#262626"/>
<path d="M404.089 142.295C402.334 142.295 401.076 141.287 400.749 139.898L402.556 139.125C402.648 139.675 403.133 140.383 404.063 140.383C405.006 140.383 405.583 139.675 405.583 138.916C405.583 138.182 404.993 137.462 404.037 137.462C403.342 137.462 402.818 137.881 402.556 138.365L400.775 137.658L401.142 132.968H406.84V134.737H402.766L402.491 138.326C402.635 136.584 403.696 135.824 404.81 135.824C406.526 135.824 407.587 137.357 407.587 138.916C407.587 140.579 406.447 142.295 404.089 142.295Z" fill="#262626"/>
<path d="M371.586 242.718C368.202 243.183 364.769 243.183 361.385 242.718C358 242.253 354.695 241.327 351.561 239.965C348.428 238.604 345.495 236.821 342.845 234.665C340.195 232.509 337.852 230 335.882 227.209C333.912 224.418 332.333 221.371 331.189 218.152C330.045 214.932 329.346 211.572 329.113 208.163C328.88 204.755 329.114 201.331 329.809 197.986C330.504 194.641 331.654 191.407 333.226 188.373C334.797 185.34 336.777 182.536 339.109 180.039C341.44 177.542 344.103 175.376 347.022 173.601C349.941 171.826 353.089 170.458 356.379 169.537C359.669 168.615 363.069 168.148 366.485 168.148C369.902 168.148 373.302 168.615 376.592 169.537C379.882 170.458 383.03 171.826 385.949 173.601C388.868 175.376 391.53 177.542 393.862 180.039C396.194 182.536 398.173 185.34 399.745 188.373C401.317 191.407 402.466 194.641 403.161 197.986C403.857 201.331 404.091 204.755 403.858 208.163C403.624 211.572 402.926 214.932 401.782 218.152C400.638 221.371 399.059 224.418 397.089 227.209C395.119 230 392.776 232.509 390.126 234.665C387.476 236.821 384.543 238.604 381.409 239.965C378.276 241.327 374.971 242.253 371.586 242.718Z" fill="#F5F3EE" stroke="#262626"/>
<path d="M366.157 210.138V208.645H362.62V204.178L365.109 200.968H367.506L362.842 206.811H366.157V204.82H368.122V206.811H369.209V208.645H368.122V210.138H366.157Z" fill="#262626"/>
</svg>
