<svg width="207" height="112" viewBox="0 0 207 112" fill="none" xmlns="http://www.w3.org/2000/svg">
<path d="M206.063 110.523C191.262 110.257 179.345 98.1757 179.345 83.3104C179.345 68.4451 191.262 56.3651 206.063 56.0984L206.063 110.523Z" fill="#F5F3EE" stroke="#262626"/>
<path d="M178.345 110.523C163.543 110.257 151.626 98.1757 151.626 83.3104C151.626 68.4451 163.543 56.3651 178.345 56.0984L178.345 110.523Z" fill="#F5F3EE" stroke="#262626"/>
<path d="M151.231 110.523C136.43 110.257 124.512 98.1757 124.512 83.3103C124.513 68.445 136.43 56.3651 151.231 56.0984L151.231 110.523Z" fill="#F5F3EE" stroke="#262626"/>
<path d="M81.6133 110.523C66.8116 110.256 54.8945 98.1756 54.8945 83.3102C54.8946 68.4449 66.8117 56.365 81.6133 56.0983L81.6133 110.523Z" fill="#E2C641" stroke="#262626"/>
<path d="M0.5 0.50592C15.3017 0.772581 27.2188 12.8534 27.2188 27.7188C27.2187 42.5841 15.3016 54.6641 0.5 54.9307L0.5 0.50592Z" fill="#E2C641" stroke="#262626"/>
<path d="M28.2186 0.505859C43.0203 0.77252 54.9374 12.8534 54.9374 27.7188C54.9373 42.584 43.0203 54.664 28.2186 54.9307V0.505859Z" fill="#E2C641" stroke="#262626"/>
<path d="M55.332 0.50592C70.1337 0.772581 82.0508 12.8534 82.0508 27.7188C82.0507 42.5841 70.1337 54.6641 55.332 54.9307V0.50592Z" fill="#E2C641" stroke="#262626"/>
<path d="M124.511 0.50592C139.313 0.772581 151.23 12.8534 151.23 27.7188C151.23 42.5841 139.313 54.6641 124.511 54.9307V0.50592Z" fill="#F5F3EE" stroke="#262626"/>
<path d="M92.9695 40.9911L92.9695 18.5565L112.397 29.7733L92.9695 40.9911Z" stroke="#262626"/>
<path d="M112.156 72.0936L112.156 94.5282L92.728 83.3114L112.156 72.0936Z" stroke="#262626"/>
</svg>
