<svg width="17" height="16" viewBox="0 0 17 16" fill="none" xmlns="http://www.w3.org/2000/svg">
<path d="M0.5 12.13H16.4883M16.4883 12.13L13.4136 15.2047M16.4883 12.13L13.4136 9.05533M2.59078 5.74698V0.500366C2.59078 1.22476 2.0029 1.81141 1.27851 1.81141H0.841903M4.33965 5.74821H0.841903M10.243 5.74698H6.74527V5.00168C6.74527 4.48145 7.05274 4.00918 7.53115 3.8001L9.47804 2.94903C9.74584 2.8305 9.96486 2.62364 10.0985 2.36304C10.2321 2.10244 10.2723 1.80387 10.2122 1.51722C10.1522 1.23057 9.99562 0.973206 9.76864 0.788129C9.54166 0.603052 9.25805 0.501474 8.96518 0.500366H8.05631C7.48565 0.500366 6.99862 0.864407 6.81906 1.37357M14.8685 2.90476C15.5942 2.90476 16.1808 3.49263 16.1808 4.21703V4.43594C16.1808 5.16034 15.5929 5.74821 14.8685 5.74821H13.9953C13.4235 5.74821 12.9377 5.38294 12.7569 4.87255" stroke="#262626" stroke-linecap="round" stroke-linejoin="round"/>
<path d="M12.9463 1.37505C13.0181 1.12342 13.1699 0.902003 13.3787 0.744249C13.5875 0.586496 13.8419 0.500978 14.1036 0.500615H14.7591C14.9202 0.495461 15.0807 0.522743 15.2311 0.58084C15.3814 0.638936 15.5186 0.726662 15.6344 0.838806C15.7502 0.950949 15.8422 1.08522 15.9051 1.23365C15.968 1.38207 16.0004 1.54162 16.0004 1.70281C16.0004 1.864 15.968 2.02355 15.9051 2.17198C15.8422 2.3204 15.7502 2.45467 15.6344 2.56682C15.5186 2.67896 15.3814 2.76669 15.2311 2.82478C15.0807 2.88288 14.9202 2.91016 14.7591 2.90501H14.6509" stroke="#262626" stroke-linecap="round" stroke-linejoin="round"/>
</svg>
