<svg width="17" height="17" viewBox="0 0 17 17" fill="none" xmlns="http://www.w3.org/2000/svg">
<path d="M12.1141 8.25012C12.1141 9.01655 11.887 9.76576 11.4616 10.403C11.0362 11.0403 10.4316 11.537 9.72413 11.8303C9.01671 12.1236 8.23828 12.2003 7.48729 12.0508C6.7363 11.9013 6.04646 11.5322 5.50503 10.9902C4.96359 10.4483 4.59487 9.75782 4.44548 9.00612C4.2961 8.25442 4.37277 7.47526 4.66579 6.76718C4.95882 6.05909 5.45504 5.45388 6.0917 5.02808C6.72836 4.60227 7.47687 4.375 8.24258 4.375" stroke="white" stroke-linecap="round"/>
<path d="M9.79156 0.655005C9.29085 0.552702 8.77465 0.501033 8.24297 0.5C3.96653 0.5 0.5 3.96978 0.5 8.25024C0.5 12.5307 3.96653 16.0005 8.24297 16.0005C12.5194 16.0005 15.9859 12.5307 15.9859 8.25024C15.9849 7.71806 15.9333 7.20138 15.8311 6.7002" stroke="white" stroke-linecap="round"/>
<path d="M8.26562 8.22168L11.791 4.69299M14.2355 2.31754L13.8073 0.776794C13.7901 0.718097 13.7588 0.66453 13.7161 0.620831C13.6734 0.577132 13.6205 0.54465 13.5623 0.526259C13.504 0.507868 13.4421 0.504134 13.3821 0.51539C13.322 0.526645 13.2657 0.552542 13.218 0.590788C12.1061 1.49989 10.8951 2.72521 11.8839 4.65734C13.877 5.58737 15.0152 4.33338 15.887 3.27857C15.9265 3.22999 15.9532 3.17233 15.9648 3.11082C15.9764 3.0493 15.9724 2.98587 15.9534 2.92624C15.9343 2.86662 15.9007 2.8127 15.8556 2.76934C15.8105 2.72599 15.7553 2.69457 15.695 2.67793L14.2355 2.31754Z" stroke="white" stroke-linecap="round" stroke-linejoin="round"/>
</svg>
