<svg width="18" height="18" viewBox="0 0 18 18" fill="none" xmlns="http://www.w3.org/2000/svg">
<path d="M9.10729 0.569206C9.10729 0.418243 9.04732 0.273463 8.94058 0.166716C8.83383 0.0599697 8.68905 0 8.53809 0C8.38712 0 8.24234 0.0599697 8.1356 0.166716C8.02885 0.273463 7.96888 0.418243 7.96888 0.569206V7.1644L4.51342 3.70743C4.46094 3.65304 4.39815 3.60965 4.32872 3.57978C4.25929 3.54992 4.18461 3.53418 4.10903 3.53349C4.03345 3.5328 3.95849 3.54716 3.88852 3.57575C3.81856 3.60434 3.75499 3.64657 3.70152 3.69999C3.64805 3.75341 3.60575 3.81694 3.5771 3.88688C3.54845 3.95682 3.53401 4.03177 3.53463 4.10735C3.53525 4.18292 3.55092 4.25762 3.58071 4.32708C3.61051 4.39654 3.65385 4.45937 3.70819 4.5119L7.1644 7.96888H0.569206C0.418243 7.96888 0.273463 8.02885 0.166716 8.1356C0.0599697 8.24234 0 8.38712 0 8.53809C0 8.68905 0.0599697 8.83383 0.166716 8.94058C0.273463 9.04732 0.418243 9.10729 0.569206 9.10729H7.1644L3.70819 12.5627C3.60445 12.6701 3.54701 12.8138 3.54823 12.9631C3.54946 13.1123 3.60925 13.2551 3.71474 13.3607C3.82023 13.4663 3.96296 13.5262 4.11221 13.5276C4.26145 13.5289 4.40526 13.4716 4.51266 13.368L7.96888 9.91253V16.507C7.96888 16.6579 8.02885 16.8027 8.1356 16.9095C8.24234 17.0162 8.38712 17.0762 8.53809 17.0762C8.68905 17.0762 8.83383 17.0162 8.94058 16.9095C9.04732 16.8027 9.10729 16.6579 9.10729 16.507V9.91177L12.5627 13.368C12.6701 13.4717 12.8138 13.5292 12.9631 13.5279C13.1123 13.5267 13.2551 13.4669 13.3607 13.3614C13.4663 13.2559 13.5262 13.1132 13.5276 12.964C13.5289 12.8147 13.4716 12.6709 13.368 12.5635L9.91253 9.10729H16.507C16.6579 9.10729 16.8027 9.04732 16.9095 8.94058C17.0162 8.83383 17.0762 8.68905 17.0762 8.53809C17.0762 8.38712 17.0162 8.24234 16.9095 8.1356C16.8027 8.02885 16.6579 7.96888 16.507 7.96888H9.91177L13.368 4.51342C13.4224 4.46094 13.4658 4.39815 13.4956 4.32872C13.5255 4.25929 13.5412 4.18461 13.5419 4.10903C13.5426 4.03345 13.5283 3.95849 13.4997 3.88852C13.4711 3.81856 13.4288 3.75499 13.3754 3.70152C13.322 3.64805 13.2585 3.60575 13.1885 3.5771C13.1186 3.54845 13.0436 3.53401 12.9681 3.53463C12.8925 3.53525 12.8178 3.55092 12.7483 3.58071C12.6789 3.61051 12.616 3.65385 12.5635 3.70819L9.10729 7.16364V0.569206Z" fill="black"/>
</svg>
