<svg width="17" height="17" viewBox="0 0 17 17" fill="none" xmlns="http://www.w3.org/2000/svg">
<path d="M12.1252 8.25012C12.1252 9.01655 11.898 9.76576 11.4722 10.403C11.0464 11.0403 10.4412 11.537 9.73307 11.8303C9.02498 12.1236 8.24583 12.2003 7.49413 12.0508C6.74243 11.9013 6.05194 11.5322 5.51 10.9902C4.96805 10.4483 4.59898 9.75782 4.44946 9.00612C4.29994 8.25442 4.37668 7.47526 4.66998 6.76718C4.96328 6.05909 5.45996 5.45388 6.09722 5.02808C6.73448 4.60227 7.4837 4.375 8.25012 4.375" stroke="#1A1A1A" stroke-linecap="round"/>
<path d="M9.80029 0.655005C9.29911 0.552702 8.78243 0.501033 8.25024 0.5C3.96978 0.5 0.5 3.96978 0.5 8.25024C0.5 12.5307 3.96978 16.0005 8.25024 16.0005C12.5307 16.0005 16.0005 12.5307 16.0005 8.25024C15.9995 7.71806 15.9478 7.20138 15.8455 6.7002" stroke="#1A1A1A" stroke-linecap="round"/>
<path d="M8.27344 8.22168L11.8021 4.69299M14.2489 2.31754L13.8203 0.776794C13.8032 0.718097 13.7718 0.66453 13.729 0.620831C13.6863 0.577132 13.6334 0.54465 13.5751 0.526259C13.5168 0.507868 13.4548 0.504134 13.3947 0.51539C13.3346 0.526645 13.2782 0.552542 13.2305 0.590788C12.1176 1.49989 10.9054 2.72521 11.8951 4.65734C13.89 5.58737 15.0293 4.33338 15.902 3.27857C15.9415 3.22999 15.9682 3.17233 15.9798 3.11082C15.9914 3.0493 15.9875 2.98587 15.9684 2.92624C15.9493 2.86662 15.9157 2.8127 15.8705 2.76934C15.8254 2.72599 15.7701 2.69457 15.7098 2.67793L14.2489 2.31754Z" stroke="#1A1A1A" stroke-linecap="round" stroke-linejoin="round"/>
</svg>
